<svg width="359" height="594" viewBox="0 0 359 594" fill="none" xmlns="http://www.w3.org/2000/svg">
<g opacity="0.05" clip-path="url(#clip0)">
<path fill-rule="evenodd" clip-rule="evenodd" d="M82.7396 202.766C87.2591 193.614 99.4932 170.191 80.8732 167.353C67.111 165.257 59.2757 173.405 53.5461 185.029C48.212 195.856 42.4593 220.852 57.0355 226.662C70.6129 232.083 78.2368 211.879 82.7396 202.766ZM56.5284 187.054C60.0562 178.166 67.4562 168.854 78.4167 172.879C91.6942 177.755 84.53 190.91 79.9058 199.342C75.1352 208.043 68.1906 216.644 59.9997 211.067C51.9622 205.592 53.4959 194.699 56.5284 187.054Z" fill="black"/>
<path fill-rule="evenodd" clip-rule="evenodd" d="M243.406 340.543C243.128 340.097 242.684 339.779 242.17 339.659C241.113 339.409 240.032 340.106 239.794 341.162C239.243 343.573 236.734 355.811 241.082 360.189C241.456 360.568 241.956 360.777 242.486 360.777C243.015 360.777 243.513 360.568 243.892 360.189C244.662 359.41 244.662 358.145 243.892 357.366C241.806 355.274 242.508 347.147 243.662 342.05C243.782 341.532 243.689 341 243.406 340.543Z" fill="black"/>
<path fill-rule="evenodd" clip-rule="evenodd" d="M238.24 246.794C237.669 246.794 236.999 246.216 236.225 245.545C235.157 244.623 233.83 243.476 232.037 243.476C230.8 243.476 229.571 244.018 228.29 245.138C227.697 245.654 227.636 246.56 228.146 247.158C228.643 247.731 229.586 247.801 230.155 247.302C230.898 246.653 231.516 246.341 232.047 246.341C232.773 246.341 233.478 246.949 234.373 247.724C235.37 248.586 236.616 249.659 238.232 249.659C238.306 249.659 238.38 249.657 238.451 249.653C242.692 249.401 243.835 243.468 243.845 240.367C243.848 239.947 243.826 239.511 243.805 239.05C243.675 236.234 243.475 231.983 248.184 221.632C249.412 218.934 250.908 217.472 252.626 217.286C256.034 216.924 260.096 221.318 261.34 222.975C261.794 223.581 262.728 223.714 263.332 223.258C263.636 223.029 263.83 222.693 263.884 222.315C263.94 221.936 263.84 221.559 263.617 221.256C263.401 220.963 258.015 213.832 252.328 214.434C249.533 214.738 247.273 216.758 245.594 220.441C240.597 231.424 240.815 236.093 240.963 239.187C240.977 239.621 240.999 239.998 240.996 240.353C240.987 242.885 240.115 246.684 238.24 246.794Z" fill="black"/>
<path fill-rule="evenodd" clip-rule="evenodd" d="M242.41 258.702C243.174 258.516 243.644 257.739 243.46 256.974C243.3 256.328 242.733 255.881 242.076 255.881C241.962 255.881 241.848 255.894 241.656 255.926C241.53 255.926 240.375 255.875 238.463 254.099C237.716 253.404 236.963 253.056 236.207 253.056C235.393 253.056 234.786 253.454 234.381 253.714C234.116 253.884 233.963 253.979 233.807 253.979C233.505 253.979 233.013 253.665 232.345 253.049C231.68 252.432 230.928 252.124 230.114 252.124C228.873 252.124 227.764 252.84 226.935 253.375C226.55 253.625 226.177 253.863 225.886 253.96C225.534 253.959 224.797 253.393 224.393 252.903C223.91 252.316 222.977 252.22 222.391 252.699C221.787 253.196 221.697 254.104 222.187 254.716C222.476 255.066 223.998 256.826 225.884 256.826C226.227 256.825 226.56 256.769 226.881 256.651C227.452 256.445 227.977 256.105 228.491 255.77C229.118 255.365 229.748 254.988 230.083 254.988C230.158 254.985 230.252 255 230.418 255.156C231.662 256.303 232.771 256.861 233.814 256.861C234.669 256.861 235.36 256.485 235.922 256.119C236.059 256.031 236.211 255.931 236.178 255.915C236.211 255.925 236.292 255.977 236.528 256.199C238.325 257.872 240.146 258.79 241.649 258.79C241.912 258.791 242.172 258.76 242.41 258.702Z" fill="black"/>
<path fill-rule="evenodd" clip-rule="evenodd" d="M226.747 220.537C227.008 220.754 227.335 220.876 227.668 220.876L227.67 220.874C228.091 220.871 228.488 220.688 228.756 220.363C229.265 219.761 229.184 218.857 228.587 218.351C225.885 216.058 222.664 214.898 219.024 214.898C214.464 214.898 210.89 216.752 210.861 216.768C210.166 217.133 209.896 217.998 210.259 218.697C210.596 219.342 211.415 219.614 212.083 219.331C212.118 219.498 212.171 219.662 212.263 219.811C212.293 219.859 215.459 224.816 221.633 224.816C222.787 224.816 223.98 224.641 225.183 224.292C225.938 224.078 226.379 223.283 226.162 222.525C225.953 221.789 225.146 221.33 224.399 221.542C223.442 221.818 222.501 221.958 221.603 221.958C217.295 221.958 215.013 218.795 214.709 218.341C215.869 218.011 217.342 217.719 218.97 217.719C221.925 217.717 224.541 218.666 226.747 220.537Z" fill="black"/>
<path fill-rule="evenodd" clip-rule="evenodd" d="M234.64 259.549C230.259 259.549 228.754 257.953 228.754 257.953C228.288 257.367 227.359 257.264 226.771 257.73C226.156 258.218 226.049 259.121 226.537 259.742C226.748 260.016 228.81 262.415 234.644 262.415C235.718 262.415 236.875 262.331 238.079 262.164C238.456 262.115 238.785 261.919 239.019 261.613C239.245 261.307 239.344 260.936 239.295 260.553C239.19 259.785 238.518 259.228 237.687 259.329C236.616 259.477 235.59 259.549 234.64 259.549Z" fill="black"/>
<path fill-rule="evenodd" clip-rule="evenodd" d="M224.54 209.425C219.487 208.457 213.863 210.255 207.919 214.735C207.611 214.962 207.413 215.296 207.364 215.673C207.306 216.052 207.402 216.431 207.628 216.735C208.078 217.342 209.008 217.482 209.623 217.024C214.899 213.051 219.75 211.431 223.982 212.23C228.77 213.134 231.212 216.894 231.309 217.047C231.571 217.472 232.027 217.725 232.518 217.725C232.786 217.725 233.041 217.653 233.266 217.512C233.593 217.311 233.817 216.997 233.905 216.626C233.991 216.252 233.931 215.867 233.731 215.541C233.605 215.341 230.615 210.587 224.54 209.425Z" fill="black"/>
<path fill-rule="evenodd" clip-rule="evenodd" d="M40.0529 225.073C39.5152 223.826 38.2863 223.1 36.9381 223.246C35.5927 223.385 34.5402 224.354 34.2689 225.685C31.9241 237.399 31.2454 249.683 31.0174 261.938C30.8932 268.593 30.4622 275.567 30.7314 282.192C30.8291 284.594 31.1248 286.523 31.8271 286.685C32.5574 286.844 33.2206 286.062 33.7884 285.038C35.4316 282.081 36.8928 278.312 38.5122 275.164C39.8702 272.524 41.2798 269.932 42.7626 267.392C46.2994 261.337 50.2623 255.571 55.0036 250.116C56.6385 248.233 58.3675 246.388 60.2018 244.579C60.561 244.227 60.6809 243.732 60.5338 243.246C60.1446 242.047 56.3002 241.715 54.7867 241.187C47.2005 238.548 43.3979 232.847 40.0529 225.073ZM45.1374 257.808C40.5823 263 35.4344 258.087 34.1615 252.933C33.7382 251.406 33.4836 249.717 33.4522 247.935C33.3336 241.085 36.498 235.441 40.4965 235.369C42.3113 235.34 43.8415 236.408 44.9142 237.828C46.7032 240.074 47.9021 243.641 47.9719 247.68C48.0486 252.069 47.1119 255.557 45.1374 257.808Z" fill="black"/>
<path fill-rule="evenodd" clip-rule="evenodd" d="M237.718 559.205C234.845 561.643 231.87 563.945 228.87 566.049C212.732 577.346 191.838 585.229 170.036 588.234C153.82 590.482 137.38 589.997 122.491 586.855C100.429 582.202 81.9238 571.933 65.369 556.885C50.0954 543.001 38.1814 526.447 30.3273 507.313C19.553 481.062 17.3818 452.173 20.4499 424.144C22.1148 408.919 25.2498 394.397 28.9401 381.312C39.2862 344.625 56.1751 310.937 77.6184 279.539C82.1121 272.956 86.799 266.479 91.6582 260.085C95.6407 254.839 99.8282 249.53 104.226 244.146C106.075 241.88 108.899 234.715 107.677 231.983C106.452 229.24 101.748 235.846 101.083 236.76C100.351 237.765 99.6762 238.711 99.1887 239.347C90.665 250.461 82.555 261.824 74.9932 273.656C69.825 281.743 64.6464 290.362 59.7161 299.114C48.3189 319.336 38.2888 339.871 30.6482 361.43C28.1282 368.546 25.8678 375.77 23.9038 383.133C22.006 390.247 20.5985 397.343 18.9623 404.501C17.2758 411.872 17.3177 409.995 18.3534 402.546C19.901 391.424 21.7688 380.444 24.3411 369.508C25.5672 364.289 26.9419 359.074 28.4979 353.78C30.1962 347.998 32.0961 341.987 34.1062 335.982C37.4895 325.866 41.1665 315.501 45.2397 305.272C48.3406 297.491 51.7407 289.524 55.5272 281.706C64.638 262.889 75.6327 248.244 87.5621 231.435C92.7365 224.144 98.6781 215.285 103.494 205.83C107.117 198.714 110.095 191.263 111.637 183.892C111.795 183.88 111.951 183.873 112.109 183.874C131.99 184.033 140.4 172.991 141.291 169.596C142.179 166.198 137.912 163.695 133.822 167.627C129.737 171.56 112.943 176.758 112.943 176.758C112.943 176.758 112.823 176.799 112.639 176.863C112.85 174.05 112.809 171.27 112.458 168.546C118.118 166.043 129.744 159.526 138.162 153.168C141.926 150.324 148.482 145.307 148.488 139.964C148.49 137.771 146.748 137.69 144.979 138.268C142.057 139.22 137.084 143.893 134.661 145.792C127.425 151.47 116.4 159.949 111.492 163.714C111.446 163.541 111.413 163.365 111.361 163.194C110.736 161.039 109.955 159.11 109.04 157.386C111.581 153.725 117.205 147.522 129.646 138.256C138.384 131.751 144.018 126.209 146.867 121.316C148.521 118.477 151.453 108.079 148.806 106.057C147.422 105 144.823 106.433 141.081 110.314C137.824 113.695 133.227 118.268 129.087 122.25C128.578 122.737 128.084 123.211 127.597 123.675C126.507 124.718 125.477 125.702 124.49 126.677C118.006 133.067 114.752 138.606 110.166 146.965C108.717 149.605 107.454 151.981 106.594 153.612C105.33 151.998 103.92 150.631 102.403 149.48L102.419 149.445C102.622 149.026 122.763 107.424 139.421 98.2882C152.513 91.1061 156.05 88.948 155.992 87.4428C155.967 86.7898 155.227 86.3655 154.424 86.005C152.758 85.2496 147.013 83.2878 140.563 83.2878C132.474 83.2878 126.111 86.3823 122.16 92.2353C114.117 104.149 101.201 137.63 98.5603 147.101C98.3315 146.988 98.1062 146.872 97.8788 146.765C97.1451 146.338 96.3709 145.962 95.5765 145.61C96.8438 140.769 97.5713 135.171 98.3308 129.277C99.4105 120.922 100.526 112.284 103.315 104.649C104.938 100.486 107.258 96.6379 109.501 92.9178L110.045 92.0151C112.101 88.6071 114.05 85.3892 115.495 81.6017C116.327 79.4197 116.481 78.0478 115.984 77.1557C115.458 76.2025 113.978 75.4878 111.585 75.0319L96.3138 72.1176C93.1138 71.5046 91.0703 71.6477 90.0617 72.5539C89.0525 73.4629 88.6989 75.4247 88.9521 78.7268C89.3343 83.7213 90.2194 88.1652 91.1581 92.8694C91.3904 94.0379 91.6275 95.2232 91.8605 96.4394C92.5014 99.7864 93.164 103.247 93.7122 106.797C95.6393 119.275 93.4605 133.852 91.4887 144.201C90.0499 143.832 88.5413 143.556 86.9483 143.388C87.2677 138.229 87.6534 129.576 86.9783 124.83C85.5199 114.574 84.0427 103.64 83.4094 92.6737C83.2762 90.3528 83.1806 88.0747 83.1304 85.8984C83.0425 82.1846 83.0739 78.5626 83.2232 75.1364C83.3131 73.0926 82.8075 72.3189 82.4155 71.9149C81.7836 71.2606 79.5818 70.8187 75.6823 70.5627C72.331 70.3425 68.3715 70.3067 65.7519 70.2835C64.6415 70.2723 63.7662 70.2646 63.1748 70.2471C59.8556 70.2906 58.7954 70.9891 58.4851 71.5664C58.1621 72.1759 58.1928 73.5562 60.1862 76.6696C67.1998 87.5894 73.1261 100.004 77.7977 113.564C80.6754 121.921 82.7343 133.891 82.9282 143.176C82.8696 143.176 82.8193 143.172 82.7615 143.172C80.7611 143.172 78.6472 143.319 76.4474 143.595C74.747 131.003 70.3893 117.188 66.7883 108.279C64.2042 101.888 60.9973 94.8606 57.2534 87.3916C56.5964 86.0779 56.023 84.8771 55.4714 83.7164C51.6395 75.6736 49.8917 72.004 38.3976 70.8531C34.5748 70.4708 30.4912 70.494 27.3624 70.5571C26.5743 70.5718 25.699 70.5718 24.7707 70.5718C22.3407 70.5718 19.5865 70.5732 17.5541 70.8685C16.4361 71.0326 15.5691 71.3321 14.8989 71.7894C14.3856 72.138 14.0849 72.5988 14.0068 73.1536C13.8297 74.4098 14.8431 75.8546 15.4638 76.6051C17.9754 79.6463 21.6545 81.2622 25.5651 82.9792C28.2315 84.1505 30.9885 85.3604 33.3996 87.0858C40.3512 92.0544 46.7796 98.9651 53.6266 108.832C61.9431 120.825 68.5278 133.691 71.8421 144.363C71.3113 144.468 70.7875 144.56 70.2498 144.68C68.707 145.022 67.2298 145.437 65.7833 145.885C63.543 138.21 55.4672 127.421 48.2966 117.856C45.3366 113.908 42.5412 110.18 40.4732 107.074C34.7527 98.4853 28.0034 89.1359 20.307 86.9224C18.9943 86.5429 17.8868 86.3423 16.9215 86.3059C15.4903 86.2631 14.4685 86.5548 13.8143 87.2282C12.3811 88.6969 12.5666 91.994 12.7298 94.9076L12.7347 94.9952C12.7737 95.691 12.81 96.3496 12.8253 96.9823C12.879 99.1516 12.9788 101.285 13.0562 102.999L13.0597 103.085C13.1315 104.606 13.1803 105.728 13.1803 106.314C13.1803 110.941 13.1803 111.028 16.3614 111.886C17.2556 112.127 18.3701 112.427 19.719 112.878C24.0425 114.325 27.9462 115.974 32.3765 118.228C41.4476 122.851 49.6315 129.238 56.044 136.699C58.7501 139.841 60.8955 143.105 62.7835 146.892C60.5914 147.714 58.5144 148.665 56.5399 149.725C49.7041 138.507 41.3925 131.907 32.1045 126.24C28.2803 123.907 24.4471 122.327 21.3399 121.491C18.8137 120.812 15.671 119.965 14.2175 120.972C13.6009 121.399 13.2403 122.202 13.1127 123.433C12.7856 126.561 13.052 131.267 13.2131 134.079C13.4691 138.653 19.673 135.683 23.8549 136.149C27.3324 136.535 30.7758 137.007 34.1222 137.81C37.9143 138.717 41.5808 140.05 45.0339 142.163C48.6558 144.377 51.8257 147.226 54.6567 150.815C52.5902 152.044 50.6443 153.401 48.8155 154.876C43.6292 149.183 37.5474 145.355 30.6712 143.517C27.0291 142.543 14.8563 142.773 13.029 145.679C12.5966 146.368 12.9474 147.394 14.0745 148.73C16.0811 151.092 17.6817 152.46 20.3746 152.917C22.7292 153.31 24.8767 152.174 27.3896 151.005C29.7038 149.924 32.0835 148.817 34.632 148.817C35.2123 148.817 35.801 148.874 36.4001 149.001C40.7278 149.931 44.2318 153.191 47.0349 156.373C45.5577 157.68 44.1474 159.054 42.8258 160.512C40.7452 158.758 38.4499 157.395 36.7042 156.432C35.9133 155.994 35.1265 155.777 34.3823 155.777C33.6995 155.777 33.0537 155.96 32.4713 156.329C31.4154 156.998 30.7486 158.201 30.8093 159.315C30.8623 160.255 31.4314 161.013 32.4511 161.51C34.217 162.368 36.5438 163.741 38.8412 165.45C37.8417 166.824 36.8995 168.245 36.0004 169.709C35.0547 168.986 34.1236 168.321 33.1618 167.688C31.4035 166.527 29.9361 165.629 28.5167 164.762C26.4676 163.507 23.8194 161.863 21.2199 160.038C19.0969 158.544 14.1331 157.825 13.5458 161.309C13.188 163.444 14.0626 166.128 14.8354 168.496C15.0391 169.126 15.2358 169.734 15.4031 170.303C16.706 174.749 21.6224 175.339 28.38 175.024C29.6445 174.964 30.9299 174.903 32.1874 174.903C32.4832 174.903 32.7705 174.92 33.0628 174.928C31.9845 177.047 30.9892 179.236 30.0707 181.48C28.2245 180.485 26.3365 179.902 24.401 180.005C22.4879 180.105 20.3523 181.214 18.4929 181.599C18.034 181.694 17.5618 181.736 16.9285 181.683C15.5922 181.571 13.6246 180.502 13.2027 182.506C12.7947 184.45 13.1057 188.15 13.4984 190.217C13.8018 191.818 14.6311 193.153 16.8929 193.176C18.6651 193.048 20.5804 191.385 21.8616 190.297C22.9922 189.338 24.06 188.431 25.1578 187.869C25.7625 187.558 26.7117 187.343 27.9462 187.131C26.9433 190.055 26.0735 193.065 25.2777 196.113C22.4949 196.331 19.4163 197.039 17.5736 197.967C15.3229 199.1 13.3847 203.031 13.9971 205.22C14.1177 205.653 14.4881 206.97 17.409 206.715C18.0514 206.632 21.0623 205.491 23.3402 204.462C23.0522 205.883 22.7641 207.306 22.5102 208.738C22.2208 210.346 21.9488 211.98 21.6851 213.627C18.7495 213.777 15.3934 214.078 14.795 214.268C14.0557 214.517 13.7278 214.75 13.7474 217.648C13.7502 218.113 13.7432 218.542 13.739 218.944C13.7 221.876 13.6958 222.182 16.8204 222.787C17.9935 223.015 19.251 223.078 20.3377 222.995C19.4735 229.7 18.783 236.594 18.2725 243.511C17.6552 251.856 17.386 259.836 17.4 267.853C17.4118 275.855 17.2828 296.108 19.0634 303.186C19.7141 305.775 20.5643 307.898 21.6789 308.948C26.3093 313.322 31.997 307.898 26.0456 306.021C24.4359 305.674 23.3514 303.847 22.9196 301.661C22.4886 299.483 22.2438 296.984 22.0918 294.426C21.8965 291.162 21.8463 287.8 21.7381 284.883C21.7075 276.327 21.7033 267.777 21.9097 259.223C22.4056 238.829 24.8014 214.193 31.2668 193.209C38.6975 169.094 47.7575 154.248 71.3315 149.779C74.8537 149.111 78.1743 148.772 81.1992 148.772C89.9369 148.772 96.4532 151.512 100.564 156.921C106.144 164.263 106.964 176.03 102.931 190.944C101.396 196.605 99.0094 202.454 96.1659 208.184C93.4388 213.681 90.2947 219.073 87.0899 224.084C85.3065 226.872 83.5042 229.542 81.7453 232.051C76.8589 239.019 75.2094 241.502 80.5714 232.325C82.6087 228.842 84.6558 225.322 86.6428 221.754C92.0955 211.957 97.0726 201.796 99.99 191.04C103.759 177.151 103.011 165.781 97.8844 159.028C92.8753 152.435 83.8362 150.414 71.3183 153.129C51.4359 157.447 44.0212 177.059 40.1747 191.439C39.7486 193.05 39.3176 194.785 38.8579 196.744C38.0956 199.989 37.6213 201.573 35.9753 204.211C34.9933 205.782 34.729 207.078 35.2123 207.958C35.7877 209.002 37.3954 209.316 39.6195 208.82C43.2917 207.999 43.1452 205.303 42.989 202.429C42.8048 198.99 43.0197 195.803 43.7339 192.42C45.9469 181.954 52.5832 163.771 72.1699 159.606C83.8035 157.143 91.7517 158.641 95.6212 163.999C99.347 169.148 99.3407 177.619 95.6093 189.177C90.6323 204.589 82.9526 218.124 76.0938 229.328C72.1155 235.829 68.2523 242.352 64.5048 248.99C50.0179 275.185 35.3588 308.179 25.2631 341.657C22.6086 350.458 20.2944 359.199 18.3764 367.964C15.5796 380.751 13.6204 393.67 12.7061 406.73C11.655 421.751 11.9424 436.834 13.4872 451.84C14.8326 464.911 17.1517 477.871 20.4946 490.583C27.7949 518.348 42.3689 541.992 63.7885 561.117C68.3074 565.152 73.1393 568.996 78.2803 572.646C90.2354 581.126 107.369 587.993 121.624 591.005C130.094 592.792 139.041 593.742 148.163 593.854C155.585 593.938 163.122 593.47 170.603 592.435C193.055 589.335 214.603 581.197 231.272 569.525C234.38 567.347 237.461 564.967 240.434 562.441C241.324 561.69 241.436 560.357 240.685 559.461C239.936 558.565 238.608 558.454 237.718 559.205Z" fill="black"/>
<path fill-rule="evenodd" clip-rule="evenodd" d="M320.342 44.157C316.211 47.5951 312.354 51.7613 307.832 57.6677C304.27 62.3206 301.39 67.0577 298.68 71.9442C297.285 74.458 295.934 77.0138 294.56 79.6159C289.484 89.2325 282.358 100.363 277.838 110.117C275.23 115.751 275.557 119.39 282.459 110.091C290.574 99.1606 297.951 86.5505 309.024 77.988C311.113 76.3727 313.324 74.8683 315.958 73.0889C331.125 62.8501 342.378 52.3294 346.891 38.5249C347.646 36.2145 348.144 34.0094 348.447 31.779C348.572 30.8476 349.88 23.3134 347.875 24.9097C343.591 28.3156 338.616 31.9263 334.332 34.5614C329.677 37.423 324.89 40.3667 320.342 44.157Z" fill="black"/>
<path fill-rule="evenodd" clip-rule="evenodd" d="M332.249 93.2554C339.898 91.2333 348.785 88.8703 348.79 79.0489C348.792 73.7388 348.797 68.4258 348.797 63.1178C348.797 62.8849 348.67 62.7089 348.449 62.6324C348.27 62.5735 348.034 62.6289 347.898 62.8113C342.097 70.4977 335.034 76.3346 324.274 82.3307C315.846 86.7388 309.991 91.5826 304.631 97.0141C299.921 101.783 293.072 108.798 288.872 113.963C282.255 122.103 287.387 120.421 292.595 115.831C298.48 110.647 302.804 106.894 309.564 102.941C316.968 98.6125 323.983 95.4437 332.249 93.2554Z" fill="black"/>
<path fill-rule="evenodd" clip-rule="evenodd" d="M279.084 571.047C283.465 566.44 288.129 559.242 280.854 554.977C278.236 553.443 274.573 552.034 270.604 550.871C266.332 549.613 261.706 548.639 257.643 548.093C256.05 547.876 254.544 547.728 253.182 547.651C243.784 547.134 248.657 550.112 254.384 552.685C261.655 555.949 268.441 558.231 273.069 564.851C275.396 568.191 275.955 574.334 279.084 571.047Z" fill="black"/>
<path fill-rule="evenodd" clip-rule="evenodd" d="M308.611 431.754C310.02 430.845 311.45 429.87 312.895 428.819C317.115 442.4 332.591 465.343 340.572 474.834C343.26 478.038 346.036 481.054 348.866 483.902V467.417C334.626 458.885 322.761 439.193 317.08 426.393C317.08 426.393 316.975 426.18 316.792 425.828C324.325 419.705 331.968 411.417 338.318 399.924C346.093 385.851 349.041 374.717 349.093 358.537C349.111 353.24 348.987 347.937 348.987 342.637C341.876 339.391 336.65 333.759 332.976 325.065C336.775 325.354 343.922 325.805 348.987 325.575V310.844C347.987 311.478 346.888 312.102 345.747 312.622C341.677 314.482 334.77 315.408 327.671 314.38C327.466 314.037 327.256 313.694 327.037 313.347C325.678 310.835 324.256 308.442 322.814 306.275C327.22 305.476 338.986 303.024 348.949 298.116L348.988 298.1V282.304C346.1 284.011 343.728 285.724 340.134 288.009C333.723 292.087 324.34 297.365 317.009 298.609C315.288 296.549 313.496 294.6 311.683 292.704C313.499 291.701 323.357 286.156 330.847 279.885L330.855 279.878C336.53 275.445 341.825 270.788 347.089 265.927C347.705 265.358 348.329 264.79 348.949 264.218V240.967C338.454 250.911 330.602 264.866 322.073 275.241C317.608 279.812 311.239 285.272 305.381 286.499C304.069 285.298 302.759 284.138 301.449 283.022C296.924 279.162 291.38 274.673 286.466 271.41C283.5 269.437 261.884 256.16 275.794 266.214C280.873 269.88 285.833 273.737 290.613 277.793C299.005 284.912 305.651 291.661 310.912 297.892C310.915 297.896 310.917 297.899 310.92 297.903C315.485 304.377 322.1 315.483 324.264 328.273C324.999 332.6 325.947 336.499 327.094 340.05C321.85 361.926 305.331 381.498 295.581 391.533C296.228 389.406 296.817 387.392 297.342 385.571L297.434 385.238H297.437C298.198 382.579 298.812 380.335 299.246 378.709L299.217 378.728C299.593 377.352 299.968 375.97 300.337 374.591C303.47 363.006 306.712 351.018 308.715 347.721C309.703 346.102 310.527 344.393 311.216 342.711C311.287 342.555 311.338 342.389 311.372 342.217C311.617 341 310.971 339.841 309.926 339.626C308.998 339.435 308.069 340.05 307.695 341.036C307.673 341.082 307.652 341.133 307.633 341.184C307.313 342.043 306.679 343.428 305.331 345.641C304.581 346.876 303.754 348.899 302.856 351.519C301.007 356.915 298.866 364.836 296.503 373.584C294.024 382.736 291.482 392.127 289.113 399.18C287.401 404.272 285.185 409.298 283.001 414.195C281.429 417.725 279.807 421.261 278.278 424.523C277.636 425.9 277.008 427.23 276.408 428.493C276.104 429.182 273.86 433.523 273.936 433.654C272.242 437.164 271.122 439.422 271.084 439.498C271.067 439.533 269.707 442.305 267.468 444.119C263.835 447.575 259.564 444.651 256.887 441.642C256.248 440.921 255.598 440.103 254.941 439.189C251.218 433.986 247.367 430.157 243.287 426.103C234.428 417.286 225.271 408.172 216.5 383.402C210.982 367.802 205.606 356.235 200.529 349.025C197.217 344.306 194.06 341.605 191.885 341.605C191.844 341.602 188.753 341.368 179.918 334.864C179.453 334.492 178.939 334.121 178.41 333.734C178.339 333.681 178.266 333.621 178.184 333.563C177.84 333.299 177.498 333.006 177.11 332.656C176.327 331.956 175.433 331.165 174.048 330.273C172.403 328.923 170.625 327.416 168.699 325.716C166.24 323.553 163.931 321.644 161.757 319.916C161.703 319.876 161.66 319.839 161.614 319.792C161.49 319.696 151.706 311.577 146.139 308.128C145.19 307.54 144.362 307.089 143.728 306.832C142.19 305.653 140.439 304.121 139.73 303.128C139.222 302.418 145.291 305.481 145.888 305.757C146.371 305.981 146.855 306.197 147.335 306.417C151.274 308.197 155.344 310.032 163.132 316.199C163.967 316.854 165.267 316.694 165.914 315.865C166.592 314.998 166.442 313.742 165.583 313.059C157.972 307.036 153.723 304.939 149.821 303.163C150.385 302.865 150.829 302.738 151.299 302.738C152.25 302.738 153.587 303.236 155.894 304.1C155.923 304.107 155.957 304.107 155.985 304.112C158.281 304.932 164.893 307.381 167.944 309.573C168.284 309.817 168.686 309.946 169.1 309.946C169.738 309.946 170.336 309.635 170.714 309.113C171.02 308.672 171.142 308.145 171.055 307.619C170.964 307.095 170.681 306.631 170.255 306.324C167.689 304.481 163.271 302.611 160.135 301.397C160.872 300.812 161.79 300.247 162.84 299.938C163.747 299.67 164.209 299.679 165.061 299.996C166.928 300.697 170.732 302.279 173.787 304.586C174.136 304.849 174.547 304.983 174.982 304.983C175.603 304.983 176.193 304.687 176.566 304.186C177.22 303.307 177.044 302.05 176.172 301.391C174.958 300.481 173.66 299.67 172.398 298.976C173.213 298.856 173.992 298.757 174.759 298.757C176.409 298.757 178.524 299.079 182.756 301.391C182.805 301.453 182.849 301.513 182.902 301.567C183.659 302.301 184.977 302.274 185.707 301.505C187.919 299.184 189.83 298.057 191.554 298.057L191.749 298.064C193.552 298.151 195.458 299.518 197.585 302.231C200.647 306.151 202.935 311.525 204.027 314.381C206.079 319.743 207.994 325.331 208.011 325.386C208.076 325.572 208.163 325.745 208.279 325.908C208.613 326.369 216.481 337.367 222.724 347.451C224.539 350.393 226.127 353.156 227.66 355.831C230.923 361.515 233.738 366.422 237.093 369.988C246.209 379.676 262.823 396.12 266.064 399.321L266.179 399.429C266.547 399.79 267.037 399.999 267.562 399.999C268.095 399.999 268.6 399.781 268.98 399.4C269.347 399.019 269.554 398.513 269.544 397.981C269.539 397.445 269.328 396.948 268.948 396.571C268.832 396.459 260.405 388.153 251.842 379.487C251.985 379.223 252.081 378.926 252.091 378.605L252.117 377.707C252.31 371.854 252.699 359.68 257.066 348.963C262.279 336.164 263.419 327.853 260.877 321.164C260.373 319.839 260.033 318.911 259.807 318.262C259.671 317.873 259.525 317.386 259.33 316.915C258.755 315.524 256.873 314.632 255.893 316.25C255.553 316.813 255.469 317.588 255.665 318.329C255.769 318.724 255.909 319.104 256.023 319.44C256.282 320.205 256.652 321.225 257.169 322.589C259.322 328.243 258.189 335.676 253.39 347.452C249.166 357.824 248.456 369.247 248.214 375.804C245.219 372.734 242.347 369.767 239.978 367.245C236.941 364.027 234.232 359.302 231.096 353.839C229.544 351.136 227.945 348.337 226.09 345.352C220.223 335.871 212.882 325.512 211.665 323.812C211.298 322.741 209.57 317.759 207.73 312.954C206.561 309.891 204.089 304.102 200.704 299.768C197.829 296.088 194.96 294.227 191.943 294.078C189.344 293.942 186.744 295.093 184.045 297.569C180.346 295.614 177.544 294.764 174.79 294.764C173.41 294.764 172.131 294.963 170.771 295.181C169.095 295.446 167.129 295.753 164.559 295.698L164.341 295.695C160.372 295.695 157.411 298.26 155.948 299.867C154.045 299.174 152.624 298.74 151.261 298.74C149.33 298.74 147.717 299.654 145.536 301.199C142.577 299.819 140.309 298.87 138.631 298.87C137.699 298.87 136.938 299.151 136.373 299.715C134.797 301.263 135.831 303.604 136.169 304.373C136.586 305.302 137.185 306.16 137.95 307.008C131.08 307.87 118.049 310.543 107.373 318.765C100.958 323.709 92.929 324.574 84.4291 325.489C77.0758 326.277 69.486 327.092 62.5254 330.647C67.6461 325.589 73.6136 323.783 80.0902 321.824C84.791 320.405 89.653 318.931 94.7221 316.206C95.4384 315.818 96.161 315.449 96.9198 315.057C101.84 312.526 107.412 309.662 112.501 302.249C129.868 276.96 149.619 274.069 160.249 272.507C164.284 271.919 166.944 271.525 168.508 270.15C171.85 267.213 183.383 260.007 188.682 256.738C188.692 256.77 188.699 256.798 188.705 256.826C191.585 268.4 197.058 284.162 206.809 293.554C221.005 307.24 223.783 312.443 224.31 313.751C224.317 313.772 224.354 313.777 224.374 313.791C224.763 314.593 225.527 315.224 226.372 315.35C227.532 315.527 228.397 314.688 228.305 313.479C228.287 313.21 228.216 312.947 228.114 312.696C228.111 312.684 228.115 312.673 228.111 312.662C227.231 310.216 223.604 304.222 209.554 290.675C205.405 286.677 202.052 281.371 199.353 275.601C197.941 272.578 196.704 269.428 195.629 266.272C195.149 264.864 194.7 263.455 194.281 262.058V262.054C193.914 261.145 193.283 258.706 192.71 256.353C192.275 254.622 191.871 252.879 191.494 251.137L191.485 251.093L191.483 251.084L191.471 251.034V251.033C190.037 244.332 189.285 238.733 188.949 235.797C189.518 234.366 189.551 232.804 189.567 231.546C189.61 228.813 189.641 226.843 192.951 225.467C201.004 222.121 206.489 219.837 208.315 210.215C212.946 209.986 217.325 209.514 221.376 208.796C230.015 207.264 237.388 204.62 243.287 200.938C250.145 196.655 253.437 191.96 254.904 189.194C256.446 190.321 257.776 191.547 258.816 192.832C268.126 204.351 265.445 217.919 263.376 224.29C261.031 222.713 258.528 221.904 255.883 221.904C251.179 221.903 247.77 224.49 247.736 224.518C247.112 224.999 246.997 225.897 247.476 226.524C247.935 227.13 248.861 227.254 249.468 226.792C249.51 226.755 250.003 226.397 250.797 225.989C250.333 226.491 250.252 227.259 250.686 227.827C250.816 227.991 253.908 231.915 258.599 231.915C259.252 231.915 259.911 231.832 260.561 231.675C260.329 232.738 260.313 233.643 260.297 234.867C260.275 236.367 260.241 238.421 259.718 242.235C259.454 244.099 258.629 246.406 257.479 248.914C257.461 248.958 257.438 248.995 257.423 249.039C256.251 251.589 254.735 254.34 253.106 257.067C253.096 257.093 253.081 257.109 253.068 257.13C249.471 263.15 245.339 269.017 243.126 272.157L243.001 272.331C242.494 273.051 242.093 273.62 241.826 274.013C241.772 274.093 241.171 274.841 237.994 274.841C232.319 274.841 222.936 272.473 212.89 268.51C199.136 263.083 194.81 239.538 194.765 239.302C194.581 238.235 193.592 237.487 192.464 237.685C191.388 237.875 190.665 238.914 190.859 239.996C190.905 240.256 192.007 246.466 195.043 253.579C199.139 263.158 204.803 269.605 211.441 272.223C221.919 276.361 231.807 278.83 237.876 278.83C241.515 278.83 243.947 277.965 245.101 276.26C245.36 275.883 245.754 275.328 246.249 274.626L246.36 274.466C247.764 272.475 249.909 269.426 252.22 265.917C251.962 269.879 251.726 274.807 251.726 279.523C251.726 280.623 252.616 281.521 253.713 281.521C254.805 281.518 255.692 280.624 255.692 279.523C255.692 270.549 256.58 260.704 256.773 258.633C258.03 256.501 259.206 254.351 260.238 252.264C261.773 249.208 262.836 246.944 263.645 242.789C264.209 238.717 264.242 236.518 264.263 234.901C264.296 232.871 264.298 232.26 265.557 229.64C265.981 228.747 275.87 207.595 261.891 190.311C259.3 187.105 255.469 184.345 250.81 182.282C255.354 177.358 256.614 173.302 256.68 173.067C256.812 172.612 256.782 172.148 256.63 171.73C261.754 172.064 273.592 175.198 279.053 185.524C279.504 186.375 279.921 187.258 280.291 188.141C280.52 188.7 280.984 189.11 281.538 189.278C277.224 195.562 272.932 204.014 271.997 218.13C271.746 221.965 271.578 224.957 271.475 227.313C263.559 231.888 268.799 243.387 278.061 237.991C278.063 237.991 280.49 239.635 280.691 239.752C282.787 240.994 285.79 242.599 289.004 244.196C295.092 247.224 305.316 250.835 319.46 250.835C323.581 250.835 327.882 250.528 332.237 249.922C332.913 249.83 333.484 249.399 333.766 248.775C334.052 248.151 334.001 247.435 333.631 246.863C333.52 246.692 330.857 242.596 324.811 238.533C315.234 232.089 303.757 230.041 292.406 230.54C302.978 227.895 305.141 228.1 315.181 221.944C321.152 218.281 326.979 213.815 331.725 208.709C332.188 208.21 332.362 207.514 332.198 206.851C332.025 206.189 331.539 205.667 330.889 205.451C330.759 205.406 327.634 204.397 322.55 204.397C314.601 204.396 299.606 205.949 287.06 216.521C287.105 216.443 287.162 216.372 287.209 216.296C291.911 208.955 297.603 197.475 298.288 178.558C298.315 177.874 297.992 177.233 297.437 176.845C296.886 176.46 296.157 176.385 295.537 176.644C295.312 176.74 289.988 179.038 284.417 185.521C284.212 185.758 284.008 186.018 283.799 186.269C283.414 185.376 283.002 184.498 282.555 183.652C279.123 177.152 273.1 171.315 265.047 169.09C260.581 167.855 256.723 167.67 254.813 167.668C254.27 167.155 253.389 166.375 252.208 165.484C252.223 164.61 251.704 163.782 250.846 163.453C250.333 163.254 249.77 163.292 249.278 163.496C247.377 162.331 245.064 161.147 242.356 160.179C238.438 158.769 234.298 158.055 230.059 158.055C222.687 158.054 215.14 160.218 207.639 164.48C207.172 164.74 206.842 165.168 206.697 165.68C206.559 166.193 206.624 166.735 206.886 167.197C207.398 168.12 208.659 168.48 209.584 167.956C220.472 161.772 231.093 160.401 240.953 163.908C243.269 164.736 245.277 165.752 246.949 166.755C245.601 168.836 242.914 172.182 238.103 175.401C231.517 179.802 219.213 185.054 198.013 185.054C197.6 185.054 197.169 185.043 196.746 185.041C200.589 177.859 204.233 167.935 205.639 154.824C205.713 154.145 205.439 153.482 204.908 153.054C204.387 152.635 203.673 152.502 203.029 152.721C202.446 152.921 197.195 154.845 191.312 160.78C185.851 166.291 178.846 176.468 176.485 193.651C176.085 196.536 175.773 198.94 175.533 200.955C175.631 196.361 173.501 188.377 168.42 178.018C164.816 170.668 159.134 161.526 151.798 154.632C151.305 154.171 150.602 153.99 149.949 154.158C149.289 154.329 148.766 154.82 148.558 155.467C148.483 155.699 146.718 161.243 147.936 169.73C148.936 176.703 152.728 193.936 162.434 204.887C161.859 204.453 161.257 204.011 160.62 203.566C153.483 198.604 141.033 192.409 122.259 191.096L122.113 191.089C121.49 191.089 120.899 191.393 120.522 191.899C120.119 192.451 120.02 193.162 120.265 193.801C120.351 194.027 122.474 199.463 128.721 205.265C133.213 209.439 140.662 214.465 152.069 217.235C143.599 218.087 132.403 221.04 119.773 229.006C118.408 229.865 115.324 231.321 115.382 233.059C115.405 233.744 115.772 234.359 116.351 234.7C116.448 234.759 117.433 235.34 119.215 236.03C121.62 236.962 125.472 238.094 130.535 238.411H130.538C130.538 238.411 131.969 238.44 134.088 238.406C140.161 238.32 145.785 237.551 151.12 235.738C158.837 233.117 167.155 226.733 174.001 221.938C174.766 222.348 175.619 222.597 176.54 222.597C179.675 222.596 182.222 219.905 182.222 216.589C182.222 214.228 180.915 212.194 179.03 211.216C179.658 209.942 180.336 207.616 181.341 203.366C182.102 202.842 183.413 201.879 185.034 200.401C185.088 200.41 185.142 200.422 185.195 200.423C187.902 200.544 190.594 200.608 193.196 200.608C204.058 200.607 213.868 199.549 222.35 197.472C230.892 195.378 238.186 192.244 244.044 188.144C245.465 187.154 246.712 186.158 247.838 185.168C248.018 185.353 248.241 185.506 248.49 185.613C249.546 186.051 250.558 186.538 251.527 187.059C250.385 189.259 247.492 193.656 241.043 197.644C236.152 200.665 228.006 204.12 215.225 205.618C213.223 205.852 211.114 206.038 208.886 206.167C204.202 206.435 199.514 206.442 194.826 206.233C191.362 206.078 187.776 205.808 184.099 205.421L183.895 205.412C182.877 205.412 182.027 206.181 181.922 207.201C181.869 207.732 182.022 208.251 182.353 208.666C182.69 209.077 183.162 209.34 183.689 209.392C189.994 210.054 196.044 210.383 201.676 210.383C202.535 210.383 203.378 210.374 204.219 210.361C202.684 217.087 198.862 218.693 191.433 221.779C185.709 224.158 185.644 228.568 185.601 231.49C185.586 234.265 184.904 235.823 181.754 235.823C176.952 235.822 174.386 229.958 174.284 229.71C173.865 228.727 172.659 228.239 171.682 228.657C171.196 228.865 170.815 229.253 170.616 229.749C170.423 230.237 170.426 230.785 170.631 231.272C170.667 231.358 174.318 239.814 181.759 239.814C182.6 239.814 183.46 239.703 184.32 239.489C184.693 239.393 185.034 239.28 185.355 239.16C185.803 242.533 186.556 247.276 187.732 252.646C183.089 255.489 169.784 263.728 165.893 267.149C165.207 267.752 162.39 268.165 159.654 268.565C148.451 270.205 127.584 273.263 109.234 299.99C104.715 306.568 99.8345 309.077 95.1127 311.505C94.3664 311.891 93.5929 312.288 92.8453 312.689C88.136 315.227 83.4701 316.635 78.9338 318.005C72.8115 319.862 67.031 321.609 61.7987 325.882C55.9812 330.64 51.7943 337.793 48.6272 348.396C45.195 359.859 44.8679 366.293 47.5182 369.926C48.1738 370.82 48.9606 371.482 49.8205 371.965H49.8219C49.8219 371.965 50.6624 372.428 52.2512 372.89C53.4892 373.177 54.8897 373.318 56.3543 373.378C38.8433 394.782 28.3047 422.164 28.3047 451.981C28.3047 520.309 83.5837 575.896 151.527 575.896C219.471 575.896 274.749 520.309 274.749 451.981C274.749 449.672 274.66 447.387 274.533 445.112C275.563 444.972 278.15 444.56 281.844 443.593C282.708 447.746 284.493 456.26 286.912 467.499C288.031 472.687 289.182 477.696 290.27 481.862C293.497 494.213 299.045 505.568 299.175 506.883C299.488 510.025 298.91 512.228 279.07 519.567C271.705 522.289 263.399 526.281 259.081 529.741C256.845 531.528 255.233 533.254 254.068 534.822C253.401 535.72 252.877 536.574 252.479 537.348C248.121 545.746 256.589 543.451 256.728 541.302C256.894 538.68 256.407 533.404 266.898 530.163C270.74 528.97 274.37 527.815 277.767 526.671C279.793 532.636 284.707 543.773 286.629 548.737C292.191 563.101 294.783 560.621 285.368 575.41C283.797 577.88 281.992 580.642 280.216 583.331C278.893 585.342 277.827 586.799 276.445 588.799C275.863 589.64 275.287 590.49 274.731 591.345C273.833 592.731 274.866 593.403 275.895 593.493C277.38 593.622 278.268 592.778 279.052 591.666C280.129 590.141 281.207 588.616 282.241 587.141C284.09 584.51 285.42 582.588 286.778 580.6C295.289 568.148 298.162 561.458 293.709 553.834C292.729 552.157 290.853 548.223 288.928 543.608C286.306 537.316 283.592 529.753 282.918 524.879C294.028 520.867 301.949 516.915 305.296 512.279C308.655 507.618 304.292 503.986 300.019 493.731C296.734 485.854 294.937 478.233 292.909 469.98C292.089 466.64 288.273 450.151 285.931 442.411C288.967 441.454 292.442 440.178 296.189 438.495L340.56 593.581H348.878L299.694 436.829C302.571 435.391 305.568 433.711 308.611 431.754ZM261.981 227.91C261.893 228.093 261.825 228.247 261.748 228.419C261.516 228.403 261.285 228.414 261.067 228.508C260.236 228.874 259.399 229.056 258.569 229.056C255.28 229.056 253.034 226.197 252.944 226.079C252.663 225.708 252.205 225.542 251.755 225.559C252.832 225.12 254.212 224.734 255.81 224.734C258.097 224.734 260.292 225.526 262.351 227.069C262.156 227.531 262.021 227.828 261.981 227.91ZM295.779 234.436C308.786 234.436 317.509 238.443 322.534 241.798C324.995 243.446 326.831 245.109 328.091 246.401C325.155 246.696 322.265 246.846 319.46 246.846C298.262 246.843 284.695 238.472 281.272 235.65C282.908 235.456 286.168 235.076 288.137 234.864C290.739 234.577 293.31 234.436 295.779 234.436ZM322.554 208.389C323.992 208.389 325.253 208.481 326.301 208.605C321.322 213.571 316.184 217.27 311.227 220.026C305.761 223.064 300.508 224.956 295.926 226.134C288.923 227.931 283.48 228.059 281.21 228.059C281.086 228.059 280.977 228.059 280.865 228.059C282.021 226.862 283.301 225.553 284.702 224.134C298.213 210.424 314.271 208.389 322.554 208.389ZM291.398 184.155C292.398 183.302 293.324 182.609 294.121 182.06C292.928 198.052 287.994 207.675 283.93 214.05C280.583 219.295 277.265 222.48 275.624 223.879C275.723 222.219 275.833 220.391 275.96 218.396C276.663 207.759 279.376 200.389 282.469 195.049C284.732 191.137 287.935 187.117 291.398 184.155ZM162.372 224.9C158.673 227.299 154.988 229.252 151.324 230.756C144.638 233.5 138.027 234.749 131.576 234.473C127.224 234.286 123.805 233.412 121.522 232.617C136.602 223.001 149.467 220.936 157.73 220.936C160.788 220.936 163.975 221.197 166.952 221.897C165.575 222.813 164.043 223.813 162.372 224.9ZM150.798 212.793C141.49 210.157 135.32 205.94 131.487 202.405C128.662 199.791 126.778 197.263 125.602 195.401C141.461 197.127 152.082 202.494 158.281 206.791C161.389 208.944 163.737 211.059 165.396 212.765C166.47 213.867 167.258 214.797 167.781 215.46C162.033 214.944 156.384 214.374 150.798 212.793ZM168.457 205.491C163.459 200.507 160.321 194.082 157.373 188.455C155.121 184.153 153.387 179.281 152.389 174.262C151.455 169.554 151.164 164.714 151.696 160.092C155.203 163.654 156.709 165.235 161.009 171.749C167.957 182.271 172.47 196.791 172.352 209.345C171.17 208.185 169.866 206.902 168.457 205.491ZM179.699 199.64C179.907 197.994 180.149 196.176 180.421 194.195C182.62 178.161 189.052 168.745 194.053 163.669C196.756 160.931 199.343 159.131 201.241 158.018C199.507 169.858 195.873 178.687 192.269 184.93C192.115 184.922 191.969 184.921 191.816 184.915C190.674 184.915 189.744 185.813 189.69 186.965C189.667 187.488 189.841 187.968 190.134 188.352C189.636 189.09 189.15 189.789 188.67 190.428C184.963 195.425 181.43 198.36 179.699 199.64ZM241.449 184.738C233.439 190.284 217.734 196.915 189.082 196.26C189.959 195.251 190.868 194.141 191.789 192.904C192.586 191.83 193.426 190.614 194.268 189.288C195.525 189.323 196.778 189.345 198.004 189.345C220.412 189.345 233.552 183.644 240.633 178.858C245.869 175.324 248.866 171.664 250.473 169.194C251.814 170.26 252.548 171.022 252.564 171.037C252.653 171.138 252.753 171.223 252.863 171.301C252.752 171.465 252.656 171.644 252.597 171.841C252.578 171.903 250.42 178.525 241.449 184.738ZM292.349 401.659C292.477 401.286 292.598 400.911 292.726 400.538C300.47 393.444 321.466 372.465 329.764 346.93C331.212 350.043 332.872 352.832 334.737 355.375C325.953 394.531 296.73 412.428 285.691 417.91C288.134 412.513 290.466 407.26 292.349 401.659ZM169.726 565.29C168.376 565.039 166.976 564.539 165.444 563.753C162.701 562.381 160.314 560.055 158.545 558.186C158.158 557.77 157.763 557.331 157.359 556.88C156.472 555.894 155.517 554.825 154.492 553.871C155.507 554.266 156.543 554.721 157.619 555.241C159.26 555.99 160.997 557.01 162.931 558.354L163.171 558.003L174.022 565.371C172.588 565.554 171.143 565.533 169.726 565.29ZM161.296 542.613L160.958 542.36C159.873 543.828 158.602 545.096 156.964 546.346C156.178 546.917 155.322 547.44 154.306 547.957C155.533 546.539 156.548 544.879 157.475 543.243C159.077 540.372 160.462 538.203 161.838 536.418C162.609 535.431 163.443 534.595 164.381 533.865C165.207 533.204 166.053 532.754 166.952 532.475L161.296 542.613ZM165.002 548.983L155.36 549.9C157.69 548.758 159.865 546.989 161.859 544.56C164.635 541.105 166.645 536.918 168.418 533.221L169.188 531.624C169.462 531.057 169.215 530.467 168.829 530.182C168.499 529.933 168.102 529.916 167.802 530.114C166.823 530.285 165.79 530.518 164.814 531.046C164.336 531.29 163.86 531.589 163.403 531.921C162.882 532.279 162.458 532.61 162.069 532.957C161.257 533.661 160.443 534.551 159.653 535.584C158.911 536.505 158.221 537.528 157.592 538.631C157.29 539.17 156.996 539.715 156.703 540.258C155.778 541.951 154.826 543.709 153.665 545.293C152.466 546.963 151.055 548.145 149.463 549.375C149.069 549.178 148.627 549.075 148.155 549.116C147.439 549.174 146.826 549.535 146.41 550.062C132.925 549.535 120.15 546.186 108.665 540.561C110.748 540.427 112.904 539.906 115.128 538.952C117.375 538.024 119.571 536.661 121.613 535.323C123.124 534.279 124.563 533.221 125.952 532.204L127.405 531.143H127.41C127.93 530.751 127.957 530.133 127.76 529.719C127.589 529.357 127.249 529.16 126.903 529.18C122.499 527.516 117.528 529.706 114.124 531.849C113.512 532.232 112.903 532.634 112.291 533.033C110.815 534.005 109.287 535.006 107.673 535.812C106.185 536.513 104.671 536.917 103.183 537.214C102.737 536.338 101.797 535.767 100.758 535.853C100.607 535.867 100.464 535.897 100.321 535.931C94.4132 532.261 88.9416 527.951 83.9827 523.11L84.0008 523.09C83.4652 522.59 82.9351 522.062 82.4009 521.542C82.0354 521.167 81.679 520.779 81.317 520.395L72.3937 509.211C74.6082 510.572 77.2355 511.419 80.2869 511.714C81.437 511.83 82.4978 511.886 83.5168 511.886C83.666 511.886 83.816 511.886 83.9639 511.882C85.1 511.853 86.3059 511.78 87.6492 511.662C89.1899 511.542 90.7397 511.33 92.2385 511.126C93.0671 511.015 93.8817 510.901 94.6691 510.811H94.6705C95.271 510.736 95.6142 510.233 95.6567 509.762C109.754 523.537 128.971 532.048 150.135 532.048C167.304 532.048 183.187 526.441 196.103 516.974C195.506 517.871 194.986 518.847 194.567 519.893C194.092 521.078 193.798 522.405 193.59 523.423C193.351 524.611 193.2 525.879 193.146 527.189C193.128 527.751 193.112 528.312 193.098 528.876C193.047 530.916 192.996 533.03 192.677 535.112C192.406 536.992 191.782 538.555 191.029 540.216C190.853 540.19 190.669 540.178 190.479 540.196C189.384 540.289 188.522 541.081 188.276 542.096C180.949 545.338 173.149 547.687 165.002 548.983ZM115.532 536.992L115.354 536.611C112.699 537.866 110.043 538.459 107.069 538.415C108.772 537.742 110.385 536.742 111.766 535.884L112.777 535.255C114.769 534.013 116.832 532.728 118.827 531.904C121.16 530.861 123.151 530.521 125.057 530.824L115.532 536.992ZM109.473 557.29C107.972 555.015 106.849 552.382 106.043 549.247L105.784 548.223C105.417 546.765 105.018 545.181 104.488 543.657C106.255 545.705 108.115 548.201 109.752 551.409L110.128 551.215L116.168 562.613C113.558 561.681 111.303 559.896 109.473 557.29ZM55.0961 454.583C55.0961 440.533 58.1517 427.19 63.5911 415.163C63.8541 417.319 64.518 419.519 65.6312 421.766C67.499 425.671 70.4039 429.228 72.9657 432.367C73.4225 432.926 73.8682 433.47 74.302 434.011C72.7383 440.21 71.8992 446.694 71.8992 453.372C71.8992 459.361 72.5918 465.19 73.8584 470.8C73.5187 470.442 73.1637 470.096 72.7683 469.767C71.2827 468.408 69.1833 467.151 66.5316 466.03C65.7867 465.716 65.0139 465.419 64.2307 465.119C62.5889 464.488 60.892 463.837 59.3778 462.986C57.8099 462.098 56.5015 461.016 55.366 459.936C55.7189 459.459 55.9156 458.865 55.864 458.228C55.8152 457.617 55.5439 457.088 55.1491 456.685C55.1338 455.984 55.0961 455.29 55.0961 454.583ZM69.9233 532.827C69.0369 531.848 68.2983 530.678 67.6957 529.247C67.1126 527.861 66.7548 526.415 66.6348 524.94C66.5058 523.566 66.5191 522.085 66.6739 520.54C66.8427 518.995 67.1879 517.455 67.4718 516.285C67.5715 515.884 67.6768 515.467 67.7842 515.047C68.0046 514.175 68.2369 513.274 68.4308 512.376C68.5668 511.789 68.6826 511.245 68.7725 510.735C68.797 510.869 68.8228 511.001 68.8472 511.129C69.048 512.115 69.2266 513.007 69.3465 513.937C69.4756 514.892 69.5593 515.88 69.599 516.882C69.6674 517.953 69.689 518.962 69.6632 519.967L70.0845 519.978L69.9233 532.827ZM78.7852 509.418C77.9288 509.221 77.0667 508.956 76.2228 508.636C75.2784 508.271 74.4805 507.911 73.7921 507.531C73.6938 507.474 73.5975 507.416 73.4985 507.361C74.0042 507.431 74.5377 507.484 75.102 507.513C76.5094 507.562 77.8883 507.48 79.0014 507.416C80.2924 507.338 81.5974 507.283 82.9944 507.251C84.4939 507.207 85.757 507.239 86.8506 507.353C87.8459 507.47 89.1383 507.656 90.2996 508.057C91.1539 508.352 91.9609 508.801 92.7623 509.41L81.566 510.201L81.5904 509.779C80.6084 509.72 79.6605 509.598 78.7852 509.418ZM216.672 545.755C215.265 546.162 213.709 546.374 212.043 546.383C212.007 546.383 211.97 546.383 211.933 546.383C208.767 546.383 205.576 545.416 203.152 544.573C202.724 544.418 202.292 544.249 201.852 544.081C200.445 543.545 198.917 542.96 197.374 542.536C198.58 542.399 199.729 542.315 200.925 542.307C202.935 542.207 204.994 542.315 207.223 542.629L207.282 542.21L220.628 543.778C219.403 544.632 218.076 545.303 216.672 545.755ZM198.375 529.066L197.96 528.993C197.626 530.898 197.045 532.715 196.187 534.516C195.673 535.482 195.102 536.409 194.481 537.289C194.973 535.26 195.088 533.134 195.175 531.448C195.257 529.076 195.417 525.996 195.955 523.159C196.216 521.808 196.584 520.659 197.081 519.626C197.525 518.63 198.088 517.815 198.776 517.128L198.375 529.066ZM42.1883 486.205C41.7893 484.887 41.6184 483.459 41.691 481.842C41.7586 480.288 42.0669 478.776 42.6088 477.342C43.0998 475.997 43.7708 474.62 44.6015 473.253C45.4454 471.876 46.4504 470.595 47.2302 469.635C47.4994 469.306 47.7819 468.967 48.065 468.626C48.6621 467.91 49.2772 467.171 49.8589 466.418C50.2655 465.906 50.6275 465.432 50.9476 464.976C50.91 465.134 50.8695 465.294 50.8256 465.452C50.5787 466.461 50.3464 467.371 50.0479 468.298C49.7431 469.249 49.3846 470.21 48.978 471.161C48.5686 472.188 48.1404 473.137 47.6703 474.068L48.0448 474.261L42.1883 486.205ZM41.7949 422.304C42.152 421.582 42.5691 420.885 43.035 420.227C44.0296 418.84 45.0848 417.743 46.2677 416.865C48.4724 415.175 51.1373 413.845 54.4196 412.802C54.8408 412.667 55.2705 412.527 55.7071 412.39C56.604 412.105 57.5274 411.813 58.4313 411.487C58.9565 411.308 59.557 411.095 60.1736 410.842C60.0446 410.964 59.9127 411.086 59.7837 411.205C59.1553 411.813 58.4027 412.527 57.5672 413.216C56.8872 413.784 56.1046 414.38 55.101 415.082C54.2543 415.698 53.3427 416.295 52.3949 416.853L52.609 417.22L41.1009 424.239C41.3046 423.535 41.5299 422.887 41.7949 422.304ZM131.41 342.004C132.881 342.347 134.349 342.914 135.772 343.691C138.631 345.262 140.979 347.672 142.699 349.583L143.522 350.553C144.521 351.737 145.607 353.026 146.789 354.173C145.734 353.74 144.638 353.244 143.564 352.659C141.678 351.719 139.926 350.626 138.2 349.323L137.947 349.662L127 341.824C128.51 341.667 129.999 341.72 131.41 342.004ZM139.454 365.494L139.781 365.759C141.033 364.203 142.412 362.898 143.986 361.783C144.903 361.18 145.847 360.641 146.806 360.176C145.445 361.67 144.342 363.438 143.399 364.951C142.093 367.158 140.516 369.703 138.742 371.839C137.843 372.928 136.971 373.759 136.07 374.388C135.181 375.055 134.298 375.501 133.39 375.762L139.454 365.494ZM94.8121 384.638C94.8686 383.636 94.9962 382.635 95.1852 381.669C95.3673 380.817 95.6232 379.956 95.9943 378.957C96.357 378 96.735 377.153 97.1458 376.379C97.219 376.245 97.2992 376.112 97.378 375.978C97.2957 376.542 97.2393 377.145 97.2107 377.776C97.1646 379.254 97.2483 380.714 97.3174 381.89L97.3676 382.874C97.4952 385.352 97.6298 387.912 97.4025 390.193C97.2553 391.427 97.0781 392.727 96.6778 393.848C96.4811 394.409 96.2391 394.935 95.9517 395.421C95.7306 395.83 95.4956 396.176 95.2543 396.495L94.3894 384.615L94.8121 384.638ZM150.136 380.596C190.039 380.598 222.505 413.243 222.505 453.372C222.505 493.5 190.039 526.147 150.136 526.147C110.233 526.147 77.7683 493.5 77.7683 453.371C77.7683 413.243 110.233 380.596 150.136 380.596ZM182.319 371.268L182.503 371.65C184.118 370.863 185.847 370.313 187.781 369.973C188.746 369.835 189.743 369.769 190.779 369.769C190.781 369.769 190.784 369.769 190.785 369.769C189.087 370.456 187.478 371.45 185.945 372.442C184.909 373.12 183.703 373.902 182.519 374.608C181.228 375.358 180.101 375.957 179.068 376.434C177.935 376.962 176.838 377.311 175.705 377.518C174.693 377.721 173.754 377.733 172.848 377.573L182.319 371.268ZM185.103 347.62C186.18 348.458 187.181 349.532 188.162 350.901C188.957 351.999 189.671 353.309 190.284 354.793C190.799 356.021 191.263 357.365 191.7 358.893C191.834 359.379 191.965 359.882 192.1 360.396C192.442 361.705 192.812 363.128 193.302 364.481C192.531 363.614 191.845 362.764 191.201 361.888C190.069 360.437 189.006 358.76 187.952 356.759L187.577 356.956L181.386 345.608C182.72 346.1 183.971 346.767 185.103 347.62ZM66.7966 419.159C66.5058 418.344 66.2743 417.474 66.0629 416.426C65.869 415.419 65.7463 414.5 65.6912 413.628C65.6849 413.473 65.6793 413.32 65.6765 413.165C65.9053 413.688 66.1731 414.227 66.4814 414.783C67.2088 416.057 68.0514 417.26 68.7251 418.223L69.2796 419.023C70.6898 421.062 72.1454 423.167 73.1498 425.23C73.6722 426.356 74.2029 427.552 74.4505 428.722C74.5796 429.302 74.65 429.877 74.6605 430.443C74.6849 430.91 74.6681 431.329 74.6284 431.729L67.6685 422.085L68.0367 421.884C67.5618 421.001 67.1426 420.081 66.7966 419.159ZM60.8432 468.32C60.1269 467.748 59.4392 467.111 58.7947 466.437C58.0729 465.672 57.487 464.976 57.0141 464.313C56.9346 464.199 56.8544 464.083 56.7749 463.961C57.2303 464.267 57.7255 464.569 58.264 464.864C59.5536 465.532 60.8787 466.08 61.9444 466.521C63.1845 467.028 64.426 467.56 65.7442 468.157C67.1642 468.788 68.3311 469.384 69.3033 469.979C70.18 470.538 71.3057 471.288 72.2131 472.187C72.8847 472.845 73.4413 473.639 73.9247 474.576L63.098 470.284L63.3024 469.914C62.4082 469.414 61.5755 468.876 60.8432 468.32ZM262.438 454.076C261.882 455.629 261.157 456.967 260.22 458.173C258.546 460.399 256.335 462.395 253.458 464.284C253.053 464.561 252.629 464.836 252.196 465.118C250.987 465.913 249.671 466.78 248.454 467.737C248.549 467.577 248.643 467.419 248.73 467.269C249.235 466.378 249.754 465.552 250.316 464.74C250.939 463.832 251.643 462.948 252.193 462.275C252.836 461.463 253.553 460.64 254.321 459.84L254.018 459.542L263.242 449.693C263.241 451.099 262.987 452.536 262.438 454.076ZM239.839 461.525C240.331 462.217 240.776 462.972 241.278 463.955C241.687 464.776 242.063 465.654 242.393 466.557C242.441 466.705 242.488 466.85 242.533 466.999C241.205 465.383 239.543 464.025 238.232 462.954L237.444 462.296C235.554 460.725 233.598 459.097 232.091 457.389C231.291 456.446 230.476 455.431 229.91 454.365C229.455 453.522 229.165 452.576 228.971 451.535L238.213 458.931L237.913 459.229C238.608 459.954 239.257 460.725 239.839 461.525ZM74.0167 371.971C77.3066 371.357 80.7332 370.32 83.9959 368.954C85.2779 369.113 86.6016 369.346 88.0021 369.703C88.4234 369.808 88.8544 369.919 89.2952 370.032C90.2068 370.265 91.1546 370.51 92.0983 370.713C92.6402 370.839 93.2617 370.972 93.9193 371.086C93.7443 371.121 93.5678 371.157 93.3928 371.189C92.5433 371.373 91.5278 371.58 90.4572 371.725C89.5798 371.849 88.6019 371.935 87.3814 372.003C86.3499 372.077 85.2646 372.102 84.1529 372.075L84.1424 372.497L71.5791 372.369C72.4133 372.247 73.2328 372.116 74.0167 371.971ZM189.461 367.614C187.302 367.748 185.049 368.296 182.697 369.305C178.674 371.097 175.006 373.883 171.775 376.342L170.503 377.305C170.468 377.331 170.453 377.365 170.422 377.395C163.948 375.643 157.152 374.696 150.136 374.696C146.031 374.696 142 375.02 138.065 375.633C138.181 375.546 138.291 375.465 138.409 375.369C140.193 373.818 141.826 371.849 143.139 369.672C143.407 369.214 143.672 368.758 143.938 368.3C144.974 366.511 146.049 364.661 147.343 362.952C148.51 361.4 149.843 360.315 151.341 359.2C151.826 359.605 152.464 359.831 153.14 359.774C153.719 359.728 154.224 359.476 154.617 359.114C166.775 359.688 178.566 362.605 189.461 367.614ZM143.797 359.246C142.096 360.312 140.474 361.728 138.938 363.495C137.374 365.381 135.943 367.487 134.566 369.937C133.297 372.268 132.16 374.43 131.093 376.551C130.999 376.735 130.973 376.916 130.976 377.093C118.929 380.15 107.998 386.038 98.8964 393.993C98.9689 393.758 99.0582 393.542 99.1203 393.293C99.702 391.218 99.9259 388.663 99.7675 385.904C99.7236 385.081 99.6559 384.246 99.5848 383.396C99.4418 381.606 99.2877 379.753 99.3937 377.975C99.4955 376.356 99.8324 374.865 100.257 373.45C100.544 373.535 100.846 373.576 101.164 373.549C102.35 373.453 103.27 372.534 103.428 371.398C115.497 364.514 129.198 360.217 143.797 359.246ZM94.1914 377.388C93.4911 379.149 93.0266 381.108 92.8278 383.264C92.3703 387.571 92.9722 392.133 93.5065 396.156C93.6083 396.941 93.7101 397.712 93.8029 398.465C93.8175 398.573 93.858 398.667 93.8984 398.76C86.1573 406.817 80.1111 416.519 76.3323 427.3C76.2988 427.185 76.273 427.074 76.2374 426.952C75.6418 424.879 74.4924 422.589 72.9099 420.329C72.4447 419.656 71.9467 418.975 71.4424 418.292C70.3809 416.848 69.2803 415.356 68.4378 413.79C67.6831 412.375 67.19 410.939 66.8106 409.528C67.5297 409.032 67.9795 408.185 67.9042 407.251C67.8937 407.123 67.8631 407.002 67.8345 406.88C74.4966 395.3 83.4952 385.246 94.1914 377.388ZM59.0486 481.813C57.5763 476.843 56.5043 471.708 55.8528 466.44C57.2359 468.201 59.02 469.766 61.2407 471.11C62.4103 471.821 63.5053 472.411 64.599 472.914C65.6507 473.39 66.8113 473.866 68.1351 474.363C69.6269 474.938 71.1662 475.437 72.6546 475.921C73.4804 476.188 74.288 476.447 75.065 476.714L75.0664 476.718C75.1912 476.757 75.3112 476.777 75.4298 476.777C75.4333 476.777 75.4333 476.777 75.4347 476.777C78.9777 488.192 85.0575 498.487 92.9875 507.023C92.0355 506.438 90.9719 505.981 89.789 505.68C87.9268 505.121 85.5708 504.905 82.7977 505.041C82.0179 505.075 81.2221 505.142 80.4159 505.206C78.7232 505.346 76.9718 505.492 75.2959 505.377C73.5187 505.262 71.8909 504.849 70.4255 504.365C70.0161 503.554 69.1861 503.014 68.2425 503.001C64.6534 496.884 61.7129 490.342 59.5396 483.456L59.6428 483.412C59.4385 482.891 59.2467 482.343 59.0486 481.813ZM196.878 537.75C198.198 535.747 199.182 533.36 199.787 530.57C200.701 526.066 200.57 521.267 200.452 517.033L200.409 515.319C200.395 514.773 200.03 514.403 199.625 514.255C208.131 507.251 215.135 498.477 220.103 488.506C219.516 489.984 219.259 491.63 219.345 493.409C219.348 495.438 219.851 497.886 220.836 500.679C221.112 501.448 221.415 502.221 221.723 503.001C222.388 504.683 223.071 506.426 223.476 508.167C223.905 509.938 224.007 511.646 223.953 513.59C222.769 513.867 221.927 514.975 222.03 516.23C222.046 516.439 222.096 516.637 222.162 516.829C215.014 525.181 206.464 532.275 196.878 537.75ZM249.669 508.559C248.465 509.572 247.128 510.375 245.685 510.955C244.343 511.504 242.859 511.946 241.275 512.26C239.956 512.5 238.525 512.658 236.769 512.759L232.554 512.979C231.885 513.025 231.265 513.081 230.698 513.156C231.648 512.63 232.681 512.101 233.834 511.539C234.752 511.113 235.71 510.727 236.689 510.38C237.633 510.037 238.656 509.676 239.766 509.371L239.653 508.964L252.58 505.19C251.856 506.415 250.909 507.523 249.669 508.559ZM226.446 503.395C226.511 504.326 226.513 505.28 226.452 506.243C226.404 507.27 226.253 508.315 225.98 509.483C225.895 508.921 225.773 508.333 225.622 507.718C225.308 506.459 224.853 505.211 224.451 504.109L224.34 503.801C223.752 502.209 223.324 500.982 222.951 499.818C222.446 498.311 222.089 497.022 221.867 495.881C221.589 494.344 221.481 493.197 221.516 492.171C221.556 491.181 221.765 490.212 222.124 489.223L226.359 500.348L225.946 500.442C226.212 501.552 226.375 502.518 226.446 503.395ZM220.815 487.065C220.831 487.031 220.849 486.996 220.864 486.961C220.864 486.974 220.856 486.979 220.856 486.994C220.839 487.016 220.831 487.043 220.815 487.065ZM228.424 508.685C228.823 506.374 228.781 503.874 228.243 501.184C227.975 499.824 227.66 498.588 227.283 497.415C226.916 496.297 226.477 495.099 225.939 493.751C225.359 492.26 224.686 490.784 224.038 489.363C223.657 488.527 223.284 487.703 222.943 486.909L222.94 486.907C222.687 486.327 222.062 486.135 221.592 486.242C221.344 486.301 221.152 486.438 221.02 486.612C225.388 477.232 227.96 466.853 228.305 455.914C228.43 456.124 228.53 456.342 228.665 456.551C229.759 458.377 231.479 460.277 233.635 462.051C234.268 462.578 234.926 463.096 235.592 463.617C237.001 464.719 238.457 465.86 239.707 467.141C241.021 468.529 242.02 470.059 242.842 471.526C242.66 471.911 242.566 472.341 242.604 472.795C242.647 473.322 242.849 473.796 243.157 474.174C240.54 486.76 235.444 498.438 228.424 508.685ZM249.057 437.969C250.173 439.312 251.172 440.625 251.926 441.802C253.906 444.507 255.922 446.526 257.958 447.831C259.063 448.54 260.128 449.003 261.2 449.248C260.147 450.529 259.026 451.793 257.791 453.063C257.02 453.874 256.249 454.677 255.482 455.473C254.298 456.703 253.122 457.925 251.977 459.162C250.327 461.013 248.885 462.806 247.674 464.654C248.011 461.344 248.182 457.981 248.182 454.583C248.182 447.901 247.491 441.207 246.14 434.648C246.78 435.341 247.41 436.048 248.022 436.752C248.383 437.14 248.724 437.547 249.057 437.969ZM238.117 426.562C238.151 426.594 240.036 428.348 242.46 430.799C244.256 438.264 245.174 446.976 245.174 454.583C245.174 458.383 244.927 462.118 244.496 465.803C243.705 463.33 242.294 460.955 240.263 458.696C238.447 456.581 236.235 454.788 234.52 453.465C233.251 452.463 231.906 451.526 230.61 450.615C229.877 450.103 229.158 449.603 228.477 449.103H228.473C228.401 449.05 228.319 449.026 228.243 448.995C226.49 416.973 205.609 389.991 176.917 379.446C177.048 379.417 177.191 379.405 177.32 379.373C178.305 379.132 179.382 378.739 180.608 378.172C181.663 377.703 182.731 377.118 183.78 376.433C184.255 376.119 184.729 375.796 185.204 375.474C186.794 374.393 188.439 373.274 190.198 372.392C191.81 371.564 193.381 371.173 195.093 370.844C195.344 372.063 196.461 372.935 197.729 372.829C198.089 372.796 198.43 372.686 198.731 372.516C203.398 375.328 207.846 378.557 212.03 382.184C213.004 384.847 213.936 387.536 214.818 390.267C222.472 409.784 230.38 418.763 238.117 426.562ZM179.475 340.172C179.794 340.172 180.068 340.123 180.327 340.054C184.157 342.683 186.846 344.071 188.684 344.806C191.593 345.236 194.078 346.834 195.58 349.084C197.507 351.418 200.091 355.281 203.246 361.637L203.26 361.669L203.272 361.692L203.286 361.721L203.304 361.759C203.593 362.342 203.887 362.945 204.187 363.576C206.245 367.842 208.122 372.128 209.852 376.467C206.678 374.008 203.362 371.767 199.936 369.731C199.648 368.554 198.554 367.724 197.315 367.831C197.262 367.835 197.213 367.849 197.157 367.858C196.312 366.024 195.517 364.255 194.9 362.274C194.594 361.247 194.326 360.167 194.071 359.125C193.684 357.551 193.285 355.927 192.719 354.377C192.262 353.085 191.643 351.819 190.883 350.602C190.127 349.435 189.18 348.306 188.073 347.25C187.498 346.706 186.918 346.217 186.337 345.789C185.712 345.359 185.061 344.966 184.398 344.618C183.271 344.054 181.77 343.376 180.105 343.12C179.559 342.814 178.91 342.982 178.57 343.341C178.227 343.7 178.207 344.207 178.522 344.627C180.693 347.564 182.443 350.901 184.134 354.13C184.934 355.659 185.765 357.245 186.609 358.718C187.728 360.741 189.051 362.891 190.772 364.911C179.599 359.774 167.512 356.768 155.158 356.124C154.707 355.252 153.77 354.687 152.736 354.774C152.262 354.812 151.831 354.99 151.474 355.253C149.989 354.025 148.566 352.79 147.203 351.329C146.434 350.497 145.679 349.581 144.952 348.693C143.894 347.408 142.806 346.084 141.598 344.914C139.445 342.786 136.758 341.163 134.039 340.35C131.043 339.359 127.819 339.272 124.706 340.093C124.054 340.041 123.526 340.499 123.369 340.99C123.215 341.475 123.42 341.951 123.9 342.199C126.189 343.367 128.399 344.925 130.539 346.431L131.047 346.79C131.904 347.407 132.745 348.037 133.586 348.667C134.984 349.715 136.428 350.794 137.838 351.742C140.162 353.389 142.679 354.967 145.567 356.097C129.77 356.829 114.948 361.35 101.955 368.759C101.589 368.598 101.184 368.512 100.76 368.548C100.118 368.6 99.5618 368.899 99.1552 369.333C98.7339 369.296 98.3043 369.254 97.8907 369.221C96.1373 369.084 94.4801 368.953 92.6723 368.518C91.6247 368.271 90.5918 367.992 89.5568 367.713C88.9409 367.55 88.3097 367.385 87.6806 367.221C88.8991 366.58 90.0812 365.895 91.186 365.154C95.112 362.532 98.5491 359.394 102.35 355.923C105.562 352.98 109.152 349.712 113.555 346.372C113.489 346.462 113.42 346.558 113.355 346.651C115.256 344.838 117.486 343.169 119.994 341.744C120.361 341.535 120.732 341.356 121.101 341.168C130.889 335.032 139.712 332.019 147.938 332.019C150.71 332.019 153.23 332.36 155.567 332.887C157.003 333.062 158.361 333.459 159.614 334.035L159.633 334.003C161.631 334.65 163.5 335.386 165.283 336.088C167.207 336.849 169.027 337.568 170.813 338.1C175.982 339.651 178.166 340.172 179.475 340.172ZM50.7161 367.563C47.6208 363.316 51.2782 353.381 52.4248 349.544C54.7809 341.668 57.6223 336.294 60.8432 332.478C60.7818 332.892 60.8564 333.319 61.0601 333.696C61.5594 334.635 62.8079 335.015 63.746 334.516C70.2044 331.028 77.6519 330.234 84.8587 329.459C93.526 328.525 102.486 327.562 109.786 321.934C122.237 312.344 138.554 310.845 142.143 310.625C143.441 311.579 144.912 312.602 146.607 313.77L147.118 314.12C150.171 316.226 154.332 319.106 159.275 323.036C161.32 324.766 162.636 326.056 163.802 327.2C165.865 329.227 167.5 330.832 171.666 333.475C172.141 333.866 172.607 334.241 173.061 334.607C172.697 334.501 172.326 334.392 171.942 334.279C170.298 333.783 168.544 333.095 166.685 332.36C161.766 330.414 155.635 327.995 147.9 327.995C137.584 327.991 126.521 332.262 114.079 341.043C108.147 345.233 103.649 349.339 99.6713 352.973C93.4423 358.666 88.2239 363.403 79.8063 366.284C78.3995 366.398 76.9893 366.655 75.602 367.08C74.8439 367.333 74.1074 367.632 73.3925 367.972C70.648 368.506 67.6036 368.89 64.1637 369.103C61.0468 369.293 56.7498 369.625 53.7577 369.137C52.2888 368.897 51.3152 368.382 50.7161 367.563ZM34.791 451.981C34.791 421.621 46.3158 393.923 65.1897 373.061C65.7114 373.017 66.2254 372.972 66.7116 372.934L66.7206 372.931C66.7353 372.928 66.7485 372.928 66.7604 372.928C66.9452 372.913 67.1217 372.892 67.3023 372.876C67.1795 373.164 67.1489 373.472 67.2263 373.734C67.3553 374.179 67.7264 374.45 68.1957 374.45C68.2446 374.45 68.2955 374.445 68.3492 374.442C72.3205 373.963 76.3902 374.072 80.328 374.179C81.9845 374.223 83.6263 374.269 85.2458 374.269C88.7777 374.228 91.9449 373.969 94.9286 373.148C82.9163 381.413 72.8317 392.294 65.4603 404.964C65.378 404.964 65.2971 404.951 65.2141 404.957C64.087 405.054 63.2103 405.882 62.9871 406.939C62.8518 407.012 62.7082 407.078 62.5721 407.151C61.0084 407.963 59.534 408.732 57.7681 409.317C56.7498 409.666 55.7252 409.977 54.7013 410.289C53.0616 410.786 51.371 411.298 49.6866 411.96C47.0063 413.039 44.5275 414.826 42.5112 417.145C41.4971 418.367 40.6413 419.695 39.9641 421.095C39.3273 422.421 38.8886 423.919 38.6257 425.659C38.3202 426.23 38.505 426.901 38.8802 427.24C39.0692 427.411 39.2952 427.496 39.5261 427.496C39.7555 427.496 39.9906 427.411 40.2026 427.243C43.3265 424.735 46.841 422.674 50.239 420.679C51.6758 419.838 53.0951 419.002 54.4733 418.143C57.0846 416.473 59.3694 414.803 61.316 412.889C55.4086 425.561 52.0887 439.686 52.0887 454.583C52.0887 455.151 52.1215 455.709 52.1319 456.274C51.3263 456.745 50.8123 457.644 50.8953 458.642C50.9358 459.134 51.1192 459.579 51.3975 459.946C51.2573 460.183 51.1053 460.429 50.9665 460.667C50.117 462.151 49.31 463.554 48.1683 464.96C47.5141 465.768 46.8438 466.557 46.1721 467.344C45.0639 468.643 43.9173 469.984 42.8571 471.447C41.2411 473.672 40.1224 476.478 39.6153 479.575C39.2018 482.926 39.6412 486.083 40.8833 488.708C40.9349 489.347 41.4455 489.803 41.9372 489.88C41.9951 489.892 42.0523 489.898 42.1081 489.898C42.5307 489.898 42.8871 489.626 43.0406 489.179C43.9159 486.632 45.0018 484.109 46.3584 481.465L48.7081 476.806C49.1845 475.88 49.6587 474.954 50.0884 474.038C51.2747 471.48 52.2344 469.073 52.8524 466.653C54.5347 480.449 59.0507 493.373 65.8132 504.808C65.7323 505.093 65.6926 505.393 65.7191 505.699C65.7874 506.54 66.261 507.241 66.9271 507.645C66.8141 509.022 66.6725 510.367 66.3266 511.81C66.0922 512.79 65.8328 513.756 65.5726 514.723C65.1444 516.323 64.7001 517.977 64.3793 519.696C63.8931 522.315 64.0766 525.233 64.9219 528.153C65.9485 531.248 67.6399 533.818 69.8124 535.591C70.0593 536.013 70.5127 536.219 70.9186 536.219C71.0281 536.219 71.1348 536.204 71.2332 536.173C71.7074 536.035 71.9746 535.604 71.9125 535.084C71.6217 532.497 71.5254 529.842 71.6119 526.969L71.7318 521.933C71.7639 520.921 71.7946 519.911 71.7883 518.927C71.7709 516.96 71.6788 515.115 71.4564 513.346C78.8152 523.284 87.9944 531.769 98.4828 538.337C98.4828 538.412 98.4724 538.485 98.4786 538.557C98.5839 539.861 99.6685 540.84 100.943 540.848C101.681 542.484 102.376 544.029 102.873 545.864C103.196 546.957 103.458 548.053 103.735 549.218C104.091 550.707 104.461 552.252 104.969 553.762C105.416 555.047 106.022 556.309 106.766 557.505C107.544 558.785 108.472 559.929 109.524 560.91C109.948 561.307 110.36 561.657 110.768 561.984C66.4382 545.321 34.791 502.3 34.791 451.981ZM119.054 564.751C119.267 564.413 119.259 564.001 118.998 563.644C117.462 561.493 116.149 559.109 114.829 556.652C113.74 554.488 112.448 551.938 111.117 549.467C109.78 547.05 108.429 544.906 106.856 543.027C118.851 548.991 132.222 552.54 146.352 553.088C146.846 553.768 147.666 554.188 148.567 554.111C149.245 554.057 149.837 553.728 150.25 553.251C151.586 554.307 152.865 555.358 154.099 556.624C154.838 557.398 155.562 558.228 156.263 559.032C157.354 560.287 158.482 561.582 159.73 562.738C160.745 563.695 161.889 564.553 163.14 565.293C164.402 566.005 165.774 566.582 167.221 567.003C168.042 567.239 168.773 567.402 169.462 567.508C170.138 567.594 170.828 567.638 171.519 567.649C165.022 568.781 158.343 569.378 151.53 569.378C140.264 569.378 129.367 567.757 119.054 564.751ZM177.404 566.465C177.49 566.352 177.558 566.223 177.595 566.096C177.738 565.615 177.521 565.153 177.049 564.917C173.727 563.273 170.603 561.074 167.585 558.949C166.154 557.941 164.674 556.899 163.233 555.964C161.604 554.874 159.793 553.777 157.795 552.852C168.977 551.981 179.634 549.221 189.454 544.878C189.876 545.117 190.37 545.24 190.89 545.196C191.762 545.126 192.49 544.608 192.877 543.884C194.726 544.234 196.521 544.622 198.369 545.228C199.436 545.585 200.531 546.022 201.585 546.441C203.13 547.055 204.729 547.692 206.355 548.137C207.726 548.522 209.168 548.76 210.642 548.841C210.908 548.856 211.178 548.861 211.453 548.861C212.608 548.861 213.832 548.737 215.169 548.475C216.787 548.167 218.281 547.645 219.612 546.93C221.304 546.024 222.5 545.172 223.467 544.176C224.046 543.902 224.3 543.252 224.202 542.75C224.109 542.26 223.716 541.945 223.192 541.945C223.183 541.945 223.173 541.945 223.164 541.945C219.387 542.018 215.54 541.5 211.816 540.995C209.934 540.742 208.157 540.498 206.381 540.33C203.961 540.058 201.442 539.887 198.841 540.1C208.643 534.434 217.379 527.121 224.679 518.523C224.693 518.523 224.706 518.525 224.721 518.525C225.965 518.42 226.914 517.412 226.996 516.195C227.092 516.175 227.191 516.154 227.288 516.134C229.066 515.743 230.746 515.378 232.635 515.246C233.661 515.184 234.684 515.155 235.702 515.124C237.459 515.065 239.276 515.01 241.118 514.8C243.869 514.497 246.727 513.418 249.396 511.672C252.165 509.701 254.214 507.211 255.333 504.455C255.771 503.984 255.761 503.291 255.484 502.867C255.209 502.439 254.712 502.301 254.215 502.519C251.672 503.614 249.046 504.527 246.186 505.304L241.148 506.714C240.115 506.993 239.084 507.276 238.091 507.587C235.432 508.422 233.027 509.332 230.828 510.499C238.096 499.928 243.367 487.874 246.082 474.881C247.035 474.46 247.662 473.481 247.576 472.384C247.555 472.136 247.49 471.906 247.402 471.686C248.588 470.571 249.736 469.514 251.184 468.539C252.118 467.891 253.072 467.283 254.032 466.67C255.425 465.779 256.861 464.863 258.247 463.809C260.512 462.071 262.419 459.682 263.775 456.892C264.93 454.303 265.465 451.666 265.372 449.174C265.899 449.056 266.437 448.906 266.997 448.709C267.394 448.573 267.795 448.397 268.198 448.202C268.237 449.46 268.265 450.713 268.265 451.981C268.264 507.774 229.365 554.595 177.404 566.465ZM275.06 440.163C276.435 437.332 278.713 432.637 280.853 428.185C281.01 427.784 281.216 427.359 281.464 426.906C281.959 425.872 282.438 424.872 282.892 423.919L282.93 424.027C283.003 424.001 284.232 423.538 286.286 422.567C296.619 417.68 327.844 399.889 338.285 359.644C338.497 359.87 338.703 360.1 338.918 360.325C341.035 362.503 343.356 364.484 345.88 366.323C344.684 372.204 343.124 377.773 341.203 383.034C334.236 402.101 322.525 417.034 306.214 427.592C292.443 436.506 279.423 439.395 275.06 440.163Z" fill="black"/>
<path fill-rule="evenodd" clip-rule="evenodd" d="M76.9848 300.5C72.1779 305.775 66.9072 312.039 72.8872 310.669L72.89 310.666C78.1335 309.247 83.6155 308.776 88.9329 307.639C91.162 307.162 90.8572 306.537 91.8295 304.339C96.9711 292.737 105.577 282.54 115.942 273.476C119.747 270.148 123.945 266.804 128.325 263.591C137.756 256.681 145.105 251.905 155.283 246.45C182.323 231.958 152.944 243.726 145.274 247.784C130.317 255.701 116.139 265.073 103.042 275.794C93.8389 283.329 85.1185 291.567 76.9848 300.5Z" fill="black"/>
<path fill-rule="evenodd" clip-rule="evenodd" d="M348.945 139.949C343.337 137.971 327.419 140.884 321.886 144.592C315.199 149.075 320.836 148.65 326.579 148.566C330.291 148.512 343.44 148.001 347.259 149.317L348.013 149.575C348.347 149.691 348.654 149.809 348.945 149.925V139.949Z" fill="black"/>
<path fill-rule="evenodd" clip-rule="evenodd" d="M348.946 155.628C347.642 155.239 344.43 155.614 343.071 155.75C331.415 156.896 327.993 163.674 348.9 163.674H348.946V155.628H348.946Z" fill="black"/>
<path fill-rule="evenodd" clip-rule="evenodd" d="M348.948 119.592C341.384 119.532 335.958 120.152 330.875 122.159C326.427 123.916 316.031 128.85 310.898 133.211C303.811 139.853 309.666 138.449 318.916 135.239C328.034 132.071 338.843 127.423 348.948 129.607V119.592Z" fill="black"/>
<path fill-rule="evenodd" clip-rule="evenodd" d="M348.948 100.369C330.807 104.331 312.997 112.319 300.089 121.562C291.944 127.393 295.231 128.338 302.033 124.716C314.626 118.005 335.681 111.012 348.948 110.882V100.369Z" fill="black"/>
<path fill-rule="evenodd" clip-rule="evenodd" d="M348.946 175.614V168.809C338.494 169.191 333.047 175.153 348.946 175.614Z" fill="black"/>
<path fill-rule="evenodd" clip-rule="evenodd" d="M210.023 115.275C204.226 113.384 198.856 112.355 194.063 112.216C193.815 112.209 193.572 112.206 193.326 112.206C188.303 112.206 184.499 113.745 182.306 116.68C180.249 119.43 179.802 123.303 181.078 127.305C185.552 141.344 209.38 148.607 214.11 149.92C217.741 150.93 223.513 152.037 228.818 152.739C232.145 153.179 236.803 153.668 241.12 153.668C245.161 153.668 248.896 153.24 250.96 151.947C252.629 150.9 253.452 149.51 253.416 147.811C253.242 139.494 232.397 125.943 226.825 122.77C221.422 119.692 215.614 117.101 210.023 115.275ZM230.133 130.021C245.537 139.327 247.865 144.066 247.109 146.402C246.247 149.045 240.767 150.17 232.448 149.414C229.237 149.122 226.366 148.715 223.677 148.169C215.268 146.463 200.209 140.2 195.59 130.657C194.299 127.992 194.37 125.579 195.802 123.484C197.208 121.423 199.851 120.712 202.833 120.712C205.443 120.712 208.315 121.257 210.835 121.922C218.477 123.928 226.564 127.864 230.133 130.021Z" fill="black"/>
<path fill-rule="evenodd" clip-rule="evenodd" d="M302.133 197.237C301.159 197.82 300.501 199.123 301.11 200.225C301.465 200.868 302.021 201.105 302.429 201.19C303.146 201.343 303.936 201.152 304.548 200.684C307.319 198.786 309.392 196.549 310.719 194.023C313.914 187.961 312.911 180.411 307.747 171.58C298.951 156.54 278.203 138.131 252.248 122.334C244.582 117.671 229.412 109.039 213.931 103.626C197.333 97.8245 175.792 95.3431 165.11 105.779C160.554 110.233 158.249 115.337 158.258 120.948C158.268 128.399 162.377 136.494 169.83 143.74L170.197 144.097C172.683 146.514 175.25 149.006 177.639 152.015C180.262 155.319 180.712 157.24 180.953 158.273C180.998 158.469 181.067 158.766 181.116 158.816L181.244 158.825C182.093 158.825 183.559 157.799 184.532 156.08C185.171 154.962 186.411 152.021 184.228 148.853C182.343 146.122 179.94 143.563 177.39 140.854C171.431 134.517 165.276 127.972 165.836 118.869C166.127 114.113 168.134 110.423 171.804 107.898C175.634 105.262 181.298 103.925 188.636 103.925C195.915 103.925 204.535 105.3 211.696 107.602C228.185 112.903 244.458 122.239 255.204 129.136C278.118 143.844 296.407 160.508 304.128 173.712C308.503 181.194 309.469 187.365 306.998 192.055C305.98 193.991 304.342 195.734 302.133 197.237Z" fill="black"/>
<path fill-rule="evenodd" clip-rule="evenodd" d="M16.9645 56.1476L16.1742 56.1595C16.0773 56.1609 15.9838 56.1609 15.8869 56.1595L15.845 56.1581C15.4301 56.1504 15.0569 56.1525 14.6838 56.2584C14.5143 56.3061 14.3462 56.3713 14.1837 56.4548C13.3502 56.8742 12.832 57.6745 12.832 58.5442C12.832 59.5275 13.4772 60.3986 14.4738 60.7612C15.0165 60.959 15.3868 60.952 15.8939 60.9422L16.147 60.9387C18.5477 60.9169 20.9567 60.905 23.305 60.905C59.9425 60.905 94.8174 63.6656 126.955 69.1063C161.88 75.0196 193.801 84.1656 221.824 96.2889C249.504 108.262 273.865 123.368 294.229 141.186C314.247 158.699 330.845 179.23 343.563 202.206C343.665 202.382 343.758 202.579 343.86 202.78C344.186 203.427 344.549 204.161 345.062 204.529C345.48 204.827 345.973 204.985 346.488 204.985C347.129 204.985 347.737 204.74 348.191 204.297C348.648 203.85 348.897 203.259 348.897 202.628C348.897 201.984 348.651 201.541 348.363 201.029L348.234 200.8C335.235 177.07 318.228 155.886 297.681 137.844C289.271 130.461 280.067 123.44 270.318 116.974C270.868 114.225 271.741 110.918 272.908 107.145C278.833 87.993 285.568 73.7297 294.751 60.8952C300.906 52.29 307.656 44.842 315.987 37.4523C317.538 36.0748 319.164 34.7274 320.953 33.3324L322.304 32.2831C330.517 25.8907 337.006 20.8436 342.48 11.443C343.511 9.67554 344.377 7.54335 345.062 5.10816L345.116 4.91528H321.901L321.855 4.98963C321.208 6.08869 320.556 7.25859 319.931 8.37308C318.931 10.1644 317.896 12.0182 316.773 13.8011L316.697 13.9091C313.733 17.9189 310.646 21.8452 307.661 25.6432L307.54 25.7947C299.203 36.4297 291.327 46.4762 285.831 57.9599C279.585 71.0098 272.163 92.9111 267.711 113.609C267.576 114.243 267.45 114.84 267.326 115.433C264.417 113.551 261.893 111.576 258.821 109.75C261.868 93.7359 269.076 69.358 277.713 53.6759C283.806 42.5885 291.937 31.6764 299.796 21.1228C303.689 15.894 307.716 10.4877 311.42 5.15305L311.588 4.91388H274.422L274.394 5.0289C273.915 6.98014 273.486 8.97907 273.116 10.9738C272.173 16.0518 271.981 21.2357 271.792 26.2491C271.576 32.0292 271.352 38.005 269.979 43.8355C268.555 49.9039 266.762 55.9133 265.024 61.7228C262.263 70.9607 258.273 88.8529 255.92 100.996C255.79 101.669 255.491 103.346 255.115 105.466L254.773 107.388C252.389 106.023 250.249 104.83 248.231 103.741V103.74C249.665 84.5338 255.83 53.7769 260.952 33.3275C263.395 23.5923 265.058 14.6175 266.185 5.08291L266.203 4.91317H253.406L253.411 5.07169C253.753 14.0648 254.011 23.7186 253.618 33.3646C252.98 48.9283 249.937 64.4736 246.99 79.5084C246.698 81.0024 245.993 85.0921 245.49 88.0365C245.106 90.2732 244.837 92.7413 244.573 95.1653C244.328 97.388 244.098 99.4872 243.785 101.394C241.302 100.107 238.656 98.7879 235.7 97.3648C236.794 93.2393 238.551 87.2502 239.646 83.7069C242.152 75.5947 243.74 68.6945 244.792 61.3483C245.712 57.1884 245.26 54.244 244.405 53.1709C244.21 52.9317 243.96 52.837 243.683 52.8967C242.621 53.1148 241.244 55.5086 240.335 58.7202C238.536 65.0474 233.406 85.4877 231.679 95.4627C229.977 94.6715 228.238 93.8846 226.52 93.1208C227.254 83.7419 228.251 72.8748 230.817 62.6045C232.448 56.0936 234.912 50.761 237.3 45.5967C239.355 41.1507 241.299 36.9522 242.756 32.0489C244.567 25.9651 245.652 19.0376 245.888 12.0167C245.971 9.57174 245.931 7.22843 245.766 5.05415L245.756 4.91317H226.255L226.25 5.06117C226.1 10.9296 226.651 16.218 227.183 21.3367C228.045 29.634 228.931 38.2147 226.774 48.9493C224.647 59.5436 222.714 78.8309 222.553 91.0608L222.533 91.3807C220.614 90.5594 218.594 89.7184 216.532 88.8824L216.744 84.0491C217.114 75.6361 218.096 56.137 218.79 47.0142C218.972 44.6176 219.597 41.8008 220.253 38.8165C221.184 34.6061 222.234 29.8346 221.857 26.496C221.785 25.855 221.663 25.2805 221.494 24.7924C221.266 24.1457 220.959 23.7817 220.574 23.7073C219.722 23.5376 218.647 24.8057 217.908 25.6663C217.794 25.8024 217.686 25.9286 217.587 26.0401C216.262 27.52 215.411 29.129 214.908 31.1055C212.234 41.6136 212.315 55.9414 212.744 68.5725C212.815 70.6752 212.778 75.5589 212.744 79.8675V79.9131C212.723 82.6415 212.702 85.2169 212.717 86.5271L212.727 87.3569C209.76 86.194 206.639 85.0227 203.185 83.777C205.639 74.6093 207.029 58.8942 207.51 52.5635C207.762 49.2754 207.898 46.0119 208.041 42.5576L208.048 42.3697C208.183 39.1622 208.322 35.8447 208.565 32.443C208.986 26.4182 209.566 25.0112 211.116 21.242C211.555 20.1822 212.048 18.9815 212.642 17.4335C214.396 12.8654 215.159 9.04991 215.118 5.06117L215.115 4.91107H192.345L192.396 5.10114C192.764 6.53056 193.226 8.09744 193.765 9.76251C194.689 12.6319 195.678 15.3013 196.476 17.451C196.826 18.3944 197.137 19.2382 197.392 19.9599C201.085 27.4653 201.511 37.4193 201.436 46.1648C201.42 47.9884 201.421 50.0785 201.427 52.1027C201.438 60.9148 201.452 71.8823 200.278 80.005L199.818 82.5749C197.13 81.6371 194.336 80.7008 191.274 79.7111L191.287 79.1711C191.484 70.3421 190.68 58.1879 190.032 48.4226L190.019 48.2136C189.851 45.6788 189.69 43.2758 189.562 41.0917L189.552 40.9515C189.158 34.416 188.754 27.6589 188.554 20.9159C188.363 14.6469 187.934 9.54298 186.451 5.01417L186.414 4.91107H161.707L161.778 5.11237C163.237 9.24139 165.513 12.4621 168.666 16.9229L169.082 17.5114C170.373 19.3406 171.707 21.2315 173.123 23.0565L173.223 23.1855C173.733 23.8434 174.226 24.4782 174.694 25.0989C179.653 31.6778 180.792 38.848 182.002 46.4363L182.012 46.4896C182.244 47.9498 182.486 49.4606 182.756 50.9777C184.572 61.1996 185.623 69.3195 186.261 78.1281C182.606 77.001 178.924 75.9195 175.315 74.9137C175.031 73.1146 174.577 69.983 174.212 67.465L174.19 67.3135C173.887 65.2339 173.6 63.268 173.424 62.1289C171.428 49.2172 169.365 35.8637 164.488 23.7824C161.298 15.8799 158.002 10.9535 151.89 4.95386L151.848 4.91037H123.501L123.588 5.12078C124.891 8.25244 127.021 11.0439 130.101 13.6566C134.748 17.5927 138.183 18.879 141.214 20.0146C145.395 21.5801 149.004 22.9337 154.325 30.5879C163.553 43.1166 168.073 60.5291 171.377 73.2437L171.543 73.8777C169.133 73.2318 166.944 72.6608 164.85 72.1334C164.073 69.7992 163.352 67.371 162.693 65.0944C158.874 51.9295 153.657 37.9306 143.889 33.9342C142.608 33.4095 141.221 33.1451 139.768 33.1451C137.227 33.1451 133.664 33.6284 131.127 35.9373C130.641 36.3806 130.387 36.9298 130.357 37.6171C130.224 40.6274 134.573 45.3645 137.452 48.5018C138.163 49.2733 138.832 50.0021 139.297 50.566C143.399 55.5142 149.132 63.7295 152.441 68.9463L152.626 69.2367C148.354 68.2856 143.892 67.3605 139.365 66.4859C137.35 63.2953 135.266 59.9967 133.374 57.4136C128.751 51.0969 124.151 44.3995 121.852 38.2189C119.681 32.3862 119.582 26.5851 119.482 20.9727C119.448 18.8755 119.41 16.7069 119.263 14.5424C119.065 11.6647 118.859 8.6901 118.521 5.6398C118.5 5.43851 118.475 5.23932 118.45 5.04293L118.433 4.90967H94.1862L94.2602 5.11237C95.6586 9.00362 98.3605 12.9952 100.985 16.8752C102.4 18.9674 103.863 21.1291 105.123 23.2886C108.699 28.812 112.505 34.3704 116.185 39.7451C117.206 41.2341 118.303 42.8249 119.456 44.4997C124.109 51.2442 129.383 58.8886 133.238 65.1862L133.342 65.3595C131.256 64.9821 129.526 64.6777 127.895 64.4014C127.248 64.2927 126.604 64.1882 125.957 64.0844L124.837 63.9034C120.398 58.4256 113.354 50.6312 108.693 45.4747L108.663 45.4403C98.6834 34.3999 94.491 29.4313 90.9549 17.1894C89.6207 12.5659 88.2795 8.58069 86.8497 5.00506L86.8106 4.90967H62.3278L62.454 5.13551C68.1076 15.2199 74.693 20.636 83.0269 27.492L83.5674 27.9381C93.0229 35.7311 103.165 46.2343 112.978 56.393C115.106 58.5996 117.308 60.8798 119.422 63.0421C115.51 62.4445 111.588 61.8877 107.762 61.3862C106.139 59.5906 103.912 57.1632 102.516 55.7927C96.1077 49.4859 88.7984 43.4834 81.7282 37.6802L81.6731 37.6346C79.2279 35.6287 76.9207 33.7336 74.6679 31.8398L74.3129 31.5425C67.355 25.6972 63.8273 22.4905 59.6712 13.5829C58.383 10.8223 56.9866 7.8723 55.5052 4.99103L55.4641 4.90967H29.5675L29.7056 5.13902C32.3992 9.61452 37.801 14.3923 45.3307 18.9541C48.9498 21.141 52.7043 23.0004 56.3436 24.8008C61.6854 27.445 67.2093 30.179 72.3342 33.9734C78.891 38.8235 92.2661 49.9403 102.25 60.6967C96.7591 60.0311 91.319 59.4454 86.0825 58.9545H86.0811C78.8422 47.9078 69.9545 41.9032 57.9617 35.7963C57.2914 35.4562 56.6156 35.1146 55.9244 34.766C48.9373 31.2409 41.0156 27.236 35.5489 21.6235C33.9929 20.0244 32.4062 18.231 31.0071 16.648C29.0584 14.4463 27.4417 12.688 25.9233 11.1113C23.9035 9.01064 20.85 5.8404 18.2241 6.30401C16.9868 6.52986 15.9664 7.55106 15.1922 9.34098C14.2569 11.5033 13.8433 14.5284 14.0623 17.6376C14.4418 23.0572 16.3242 24.9705 20.6812 27.4576C23.4766 29.054 27.2945 30.8516 31.4276 32.5167C36.1627 34.4237 40.7659 35.5607 45.6655 36.7712C48.1485 37.3843 50.7158 38.019 53.279 38.7618C55.9997 39.5508 58.489 40.4177 61.1093 41.4887C69.7487 45.0195 77.7402 52.6189 81.8266 58.5849C77.5219 58.2124 73.169 57.8814 68.8888 57.598L68.8901 57.523L68.8427 57.4781C65.5814 54.3724 59.4284 50.0561 54.2087 47.212C45.2303 42.3213 32.1621 37.0939 22.4018 37.0939C19.7634 37.0939 17.784 37.6452 16.3528 38.7793C13.3586 41.1472 12.8704 45.8401 12.989 49.3603C13.0336 50.7778 13.1773 51.4048 13.5141 51.6735C13.8657 51.9526 14.4299 51.8397 15.3645 51.6552C15.7593 51.5767 16.251 51.4778 16.8271 51.3943C20.9309 50.7988 24.5368 50.0764 28.1705 49.1239C31.9814 48.1238 35.3404 47.7163 39.7699 47.7163C49.3704 47.7163 55.833 50.6908 60.1099 57.079C45.9717 56.3355 31.4555 56.022 16.9645 56.1476Z" fill="black"/>
<path fill-rule="evenodd" clip-rule="evenodd" d="M82.8511 590.327C82.4787 590.104 81.9354 589.874 81.5392 589.663C81.1772 589.478 80.8152 589.289 80.4568 589.098C77.1334 587.332 73.8623 585.435 70.6603 583.411C56.8067 574.639 44.5203 563.644 35.1255 551.613C26.6263 540.727 19.9719 528.015 15.347 513.839C14.9844 512.731 13.7959 512.125 12.6918 512.488C11.5864 512.853 10.9851 514.051 11.3478 515.16C16.1275 529.806 23.0135 542.95 31.8161 554.223C37.1579 561.07 43.403 567.583 50.3203 573.566C55.9481 578.432 62.0237 582.941 68.4159 586.989C71.6263 589.02 74.9064 590.93 78.2381 592.705C78.9844 593.102 79.9183 593.664 80.6834 593.982C81.1249 594.166 81.5748 594.264 81.9988 594.285C83.0408 594.337 83.9392 593.927 84.2544 593.152C84.539 592.458 84.276 591.632 83.6469 590.962C83.4251 590.728 83.1566 590.511 82.8511 590.327Z" fill="black"/>
</g>
<defs>
<clipPath id="clip0">
<rect width="359" height="594" fill="white"/>
</clipPath>
</defs>
</svg>
