<svg width="22" height="22" viewBox="0 0 22 22" fill="none" xmlns="http://www.w3.org/2000/svg">
    <path
            d="M6.66066 9.03769C6.35664 8.70605 5.83154 8.67838 5.49985 8.9824C5.16821 9.28643 5.14054 9.81152 5.44457 10.1432L9.61794 14.6759C9.78378 14.8417 9.97724 14.9522 10.1983 14.9522C10.1983 14.9522 10.1983 14.9522 10.2259 14.9522C10.4471 14.9522 10.6681 14.8693 10.8063 14.7035L21.3642 4.17337C21.6958 3.84174 21.6958 3.31659 21.3642 3.01256C21.0325 2.68093 20.5074 2.68093 20.2033 3.01256L10.2537 12.9346L6.66066 9.03769Z"
            fill="url(#paint0_linear)"/>
    <path
            d="M21.1708 10.1708C20.701 10.1708 20.3417 10.5301 20.3417 10.9999C20.3417 16.1406 16.1407 20.3417 11 20.3417C5.85928 20.3417 1.65829 16.1407 1.65829 11C1.65829 5.85933 5.85928 1.65829 11 1.65829C11.4699 1.65829 11.8291 1.29899 11.8291 0.829173C11.8291 0.359358 11.4698 0 11 0C4.94721 0 0 4.94721 0 11C0 17.0528 4.94721 22 11 22C17.0528 22 22 17.0528 22 11C21.9999 10.5301 21.6407 10.1708 21.1708 10.1708Z"
            fill="url(#paint1_linear)"/>
    <defs>
        <linearGradient id="paint0_linear" x1="0.415094" y1="11.8705" x2="21.4472" y2="11.8537"
                        gradientUnits="userSpaceOnUse">
            <stop stop-color="#8F6D55"/>
            <stop offset="1" stop-color="#4D4444"/>
        </linearGradient>
        <linearGradient id="paint1_linear" x1="0.415094" y1="11.8705" x2="21.4472" y2="11.8537"
                        gradientUnits="userSpaceOnUse">
            <stop stop-color="#8F6D55"/>
            <stop offset="1" stop-color="#4D4444"/>
        </linearGradient>
    </defs>
</svg>