<svg xmlns="http://www.w3.org/2000/svg" width="157" height="28" fill="#fff" xmlns:v="https://vecta.io/nano"><path d="M6.78 13.454c-2.238 0-2.946-.477-2.946-2.024V7.415c2.666.016 3.357.675 3.357 2.09h.625V4.65h-.625c0 1.432-.806 2.04-3.357 2.04v-5.1c0-.181.099-.296.296-.296h2.255c2.419 0 3.324.477 3.604 2.37h.625L10.45.537H.181v.675c1.531.066 1.777.378 1.777 2.024v8.277c0 1.662-.28 1.975-1.958 2.024v.675h11.026l.263-3.505h-.675c-.444 2.123-1.333 2.748-3.835 2.748zm23.879-2.583V3.91c0-2.156.23-2.633 1.761-2.682V.553h-3.983l-4.625 10.498h-.066L19.271.553h-4.246v.675c1.53.066 1.777.543 1.777 2.551v7.207c0 2.205-.28 2.501-1.958 2.551v.675h4.954v-.675c-1.662-.049-1.942-.346-1.942-2.682V2.742h.066l5.102 11.65h.395l5.184-11.65h.181v8.244c0 2.205-.28 2.501-1.958 2.551v.675h5.76v-.675c-1.662-.033-1.926-.329-1.926-2.666zM41.916.553h-5.579v.675c1.531.066 1.777.378 1.777 2.024v8.277c0 1.662-.28 1.975-1.958 2.024v.675h6.27v-.675c-2.156 0-2.452-.362-2.452-2.106v-3.44h1.596c3.966 0 5.464-1.547 5.464-4.031.017-2.139-1.876-3.423-5.118-3.423zm-.675 6.566h-1.267v-5.43c0-.181.099-.296.296-.296h1.63c1.942 0 2.831.823 2.831 2.814.016 2.057-1.152 2.913-3.489 2.913zm12.147 3.752V3.91c0-2.156.23-2.633 1.761-2.682V.553h-5.398v.675c1.53.066 1.777.543 1.777 2.551v7.207c0 2.205-.28 2.501-1.958 2.551v.675h5.76v-.675c-1.679-.033-1.942-.329-1.942-2.666zm16.455 1.448L65.91 7.596c2.485-.428 3.571-1.744 3.571-3.62 0-2.156-1.876-3.423-5.135-3.423h-5.579v.675c1.53.066 1.777.378 1.777 2.024v8.277c0 1.662-.28 1.975-1.958 2.024v.675h6.27v-.675c-2.156 0-2.452-.362-2.452-2.106V7.761c1.103 0 1.448.082 2.074.905l4.345 5.578h3.423v-.675c-1.004-.181-1.761-.461-2.403-1.251zm-6.155-5.463H62.42V1.689c0-.181.099-.296.296-.296h1.629c1.942 0 2.831.79 2.831 2.682.016 1.958-1.152 2.781-3.489 2.781zm17.627 6.598c-2.238 0-2.946-.477-2.946-2.024V7.415c2.666.016 3.357.675 3.357 2.09h.625V4.65h-.625c0 1.432-.806 2.04-3.357 2.04v-5.1c0-.181.099-.296.296-.296h2.255c2.419 0 3.324.477 3.604 2.37h.625L84.985.537H74.716v.675c1.531.066 1.777.378 1.777 2.024v8.277c0 1.662-.28 1.975-1.958 2.024v.675h11.026l.263-3.505h-.675c-.444 2.123-1.317 2.748-3.835 2.748zm28.504-2.057v-8.03c0-1.794.23-2.09 1.761-2.156V.537h-5.398v.675c1.53.066 1.777.378 1.777 2.024v3.538h-7.192V3.367c0-1.794.231-2.09 1.761-2.156V.537H97.13v.675c1.53.066 1.777.378 1.777 2.024v8.277c0 1.662-.28 1.975-1.958 2.024v.675h5.76v-.675c-1.662-.049-1.942-.345-1.942-2.155V7.678h7.192v3.851c0 1.662-.28 1.974-1.958 2.024v.675h5.76v-.675c-1.679-.049-1.942-.346-1.942-2.156zm15.845-.839L121.632.537h-.757l-4.624 11.568c-.412 1.02-.856 1.316-1.942 1.431v.675h4.311v-.675c-.971 0-1.382-.214-1.382-.872 0-.477.28-1.448 1.103-3.406h4.739l.724 1.925c.313.823.412 1.119.412 1.58 0 .543-.395.757-1.646.757v.691h5.793v-.691c-1.234.016-1.613-.296-2.699-2.962zm-6.961-2.172l2.073-5.233 1.975 5.233h-4.048zm19.208 5.035c-2.452 0-3.159-.411-3.159-2.402V3.367c0-1.794.23-2.09 1.761-2.156V.537h-5.398v.675c1.53.066 1.777.378 1.777 2.024v8.277c0 1.662-.28 1.975-1.958 2.024v.675h11.47l.263-3.505h-.674c-.51 2.221-1.366 2.715-4.082 2.715zm18.414-2.699c-.51 2.205-1.366 2.699-4.082 2.699-2.452 0-3.159-.411-3.159-2.402V3.367c0-1.794.23-2.09 1.761-2.156V.537h-5.398v.675c1.53.066 1.777.378 1.777 2.024v8.277c0 1.662-.28 1.975-1.958 2.024v.675h11.47l.263-3.505h-.674v.017zM36.88 22.8v.197h.033c.197.049.296.082.329.115.115.082.165.214.165.395s-.066.444-.214.806l-.922 2.419-.905-2.32-.214-.609a1.57 1.57 0 0 1-.049-.362c0-.165.049-.28.165-.346.033-.033.132-.066.346-.115h.033v-.197H33.31v.197h.033c.132.016.214.049.28.066.066.033.115.066.165.132.099.115.263.444.477 1.004l1.465 3.62.016.017h.362l1.366-3.472c.214-.559.411-.922.576-1.086a1.03 1.03 0 0 1 .51-.28h.033v-.197H36.88v.016zm4.081-1.119a.6.6 0 0 0 .412-.148c.099-.099.164-.23.164-.395 0-.148-.049-.28-.164-.395-.115-.099-.247-.165-.395-.165-.165 0-.296.049-.395.165-.115.099-.165.23-.165.395s.049.296.165.395c.082.082.214.148.378.148zm1.3 5.99c-.28-.049-.477-.132-.593-.23a.54.54 0 0 1-.165-.296c-.033-.115-.049-.313-.049-.576v-.444-3.406l-1.761.214v.181h.033c.165.016.296.033.395.082a.61.61 0 0 1 .23.23c.066.099.099.23.132.378.017.165.033.444.033.839v1.432l-.033.773c-.016.181-.049.313-.082.395-.066.132-.132.214-.23.28-.099.049-.263.099-.494.132h-.033v.181h2.65v-.181l-.033.016zm4.526-4.871v.197h.033c.197.049.296.082.329.115.115.082.165.214.165.395s-.066.444-.214.806l-.922 2.419-.905-2.32-.214-.609a1.57 1.57 0 0 1-.049-.362c0-.165.049-.28.165-.346.033-.033.132-.066.346-.115h.033v-.197h-2.353v.197h.033c.132.016.214.049.28.066.066.033.115.066.165.132.099.115.263.444.477 1.004l1.465 3.62.017.017H46l1.366-3.472c.214-.559.411-.922.576-1.086a1.03 1.03 0 0 1 .51-.28h.033v-.197H46.79v.016zm6.897 3.653l-.016.033c-.099.296-.214.51-.346.642a1.28 1.28 0 0 1-.461.28 1.72 1.72 0 0 1-.592.099c-.28 0-.543-.066-.806-.181-.247-.115-.461-.296-.642-.51a2.53 2.53 0 0 1-.395-.79 3.33 3.33 0 0 1-.148-.987l.016-.378h3.44v-.033c0-.494-.148-.921-.444-1.251a1.77 1.77 0 0 0-.691-.494 2.17 2.17 0 0 0-.872-.165 2.41 2.41 0 0 0-1.58.559c-.642.51-.954 1.201-.954 2.09 0 .642.165 1.201.51 1.645.247.313.543.559.889.708s.773.23 1.251.23c.559 0 1.02-.115 1.349-.362.346-.23.559-.592.675-1.053v-.033l-.181-.049zm-3.324-2.09a1.96 1.96 0 0 1 .428-1.037c.247-.28.527-.428.856-.428a.92.92 0 0 1 .543.165 1.33 1.33 0 0 1 .411.444c.115.198.181.477.214.856H50.36zm8.54-1.464c-.132-.115-.346-.181-.609-.181-.411 0-.79.115-1.119.346a1.94 1.94 0 0 0-.428.461c-.016-.23-.049-.494-.099-.79v-.033l-1.547.214h-.033v.181h.033c.165.017.296.033.395.082a.61.61 0 0 1 .23.23c.066.099.099.23.132.379.017.165.033.444.033.839v1.431l-.033.773c-.016.181-.049.313-.082.395-.066.132-.132.214-.23.28a1.7 1.7 0 0 1-.494.132h-.033v.181h2.65v-.181h-.033c-.28-.049-.477-.132-.593-.23-.082-.082-.148-.181-.164-.296-.033-.115-.049-.313-.049-.576v-.444-1.086c0-.609.066-1.086.214-1.415s.329-.494.593-.494c.181 0 .346.066.477.214l.181.197a.49.49 0 0 0 .379.181c.115 0 .23-.033.296-.115.082-.082.115-.181.115-.296.017-.132-.049-.28-.181-.378z"/><path d="M64.446 26.453l-.016.033c-.099.296-.214.51-.346.642a1.28 1.28 0 0 1-.461.28 1.72 1.72 0 0 1-.592.099c-.28 0-.543-.066-.806-.181-.247-.115-.461-.296-.642-.51a2.53 2.53 0 0 1-.395-.79 3.34 3.34 0 0 1-.148-.987l.016-.378h3.44v-.033c0-.494-.148-.921-.444-1.25a1.77 1.77 0 0 0-.691-.494c-.263-.115-.559-.165-.872-.165a2.41 2.41 0 0 0-1.58.559c-.642.51-.955 1.201-.955 2.09 0 .642.165 1.201.51 1.645.247.313.543.559.889.708s.774.23 1.251.23c.559 0 1.02-.115 1.349-.362.346-.23.56-.592.675-1.053v-.033l-.181-.049zm-3.324-2.09a1.96 1.96 0 0 1 .428-1.037c.247-.28.527-.428.856-.428a.92.92 0 0 1 .543.165 1.33 1.33 0 0 1 .411.444c.115.197.181.477.214.856h-2.452zm9.577-2.682a.6.6 0 0 0 .412-.148c.099-.099.165-.23.165-.395a.53.53 0 0 0-.165-.395c-.115-.099-.247-.165-.395-.165-.165 0-.296.049-.395.165-.115.099-.165.23-.165.395s.049.296.165.395c.082.082.214.148.378.148zM72 27.671c-.28-.049-.477-.132-.593-.23-.082-.082-.148-.181-.164-.296-.033-.115-.049-.313-.049-.576v-.444-3.406l-1.761.214v.181h.033c.165.016.296.033.395.082a.61.61 0 0 1 .23.23c.066.099.099.23.132.378.017.165.033.444.033.839v1.432l-.033.773c-.016.181-.049.313-.082.395a.66.66 0 0 1-.23.28c-.099.049-.263.099-.494.132h-.033v.181h2.65v-.181l-.033.016zm6.877 0c-.28-.049-.477-.132-.593-.23a.54.54 0 0 1-.165-.296c-.033-.115-.049-.313-.049-.576v-2.485c0-.428-.148-.773-.461-1.004s-.724-.362-1.234-.362c-.642 0-1.218.23-1.695.691v-.016a3.12 3.12 0 0 0-.082-.642v-.033l-1.629.214h-.033v.181h.033c.165.016.296.033.395.082.082.049.164.115.23.23.066.099.099.23.132.378.017.165.033.444.033.839v1.432l-.033.773c-.016.181-.049.313-.082.395a.66.66 0 0 1-.23.28c-.099.049-.263.099-.494.132h-.033v.181h2.65v-.181h-.033c-.28-.049-.477-.132-.593-.23a.54.54 0 0 1-.165-.296c-.033-.115-.049-.313-.049-.576v-.428-1.152c0-.444.016-.773.049-.971s.115-.362.23-.51c.099-.148.247-.263.428-.345a1.42 1.42 0 0 1 .592-.132c.197 0 .379.033.543.115.165.066.28.181.379.313.082.115.132.263.165.461s.049.51.049.938v1.234l-.033.773c-.016.181-.049.313-.082.395a.66.66 0 0 1-.23.28c-.099.049-.263.099-.494.132h-.033v.181h2.65v-.181l-.033.016zm10.435-.115c-.313 0-.543-.082-.675-.263s-.197-.494-.197-.921V19.56l-1.86.23v.197h.033c.313 0 .543.082.675.263s.197.477.197.889v2.09a2.82 2.82 0 0 0-.691-.428c-.214-.082-.477-.132-.773-.132a2.48 2.48 0 0 0-1.613.576 2.48 2.48 0 0 0-.658.922c-.164.362-.23.773-.23 1.201 0 .411.066.79.214 1.135a2.42 2.42 0 0 0 .625.872c.428.362.938.543 1.547.543a2.8 2.8 0 0 0 .839-.132c.247-.082.494-.198.774-.379a2.05 2.05 0 0 0 .066.559V28l1.744-.263h.033v-.214h-.049v.033zm-4.559-3.242a2.6 2.6 0 0 1 .428-.823c.296-.378.642-.576 1.053-.576a1.18 1.18 0 0 1 .527.132c.165.083.313.197.412.346.115.165.198.378.247.658.049.263.066.675.066 1.218 0 .51-.016.922-.066 1.185a1.94 1.94 0 0 1-.247.675 1.14 1.14 0 0 1-.987.559c-.411 0-.757-.198-1.037-.576a2.73 2.73 0 0 1-.395-.823c-.099-.313-.148-.642-.148-.971a3.45 3.45 0 0 1 .148-1.004zm10.123 2.139l-.017.033c-.099.296-.214.51-.346.642a1.28 1.28 0 0 1-.461.28 1.72 1.72 0 0 1-.592.099c-.28 0-.543-.066-.806-.181-.247-.115-.461-.296-.642-.51a2.53 2.53 0 0 1-.395-.79 3.33 3.33 0 0 1-.148-.987l.016-.378h3.439v-.033c0-.494-.148-.921-.444-1.251a1.77 1.77 0 0 0-.691-.494 2.17 2.17 0 0 0-.872-.165 2.41 2.41 0 0 0-1.58.559c-.642.51-.954 1.201-.954 2.09 0 .642.165 1.201.51 1.645.247.313.543.559.889.708s.773.23 1.251.23c.559 0 1.02-.115 1.35-.362.346-.23.559-.592.675-1.053v-.033l-.181-.049zm-3.324-2.09a1.96 1.96 0 0 1 .428-1.037c.247-.28.527-.428.856-.428a.92.92 0 0 1 .543.165 1.33 1.33 0 0 1 .411.444c.115.198.181.477.214.856h-2.452zm7.272 3.308c-.28-.049-.477-.132-.592-.23a.54.54 0 0 1-.165-.296c-.033-.115-.049-.313-.049-.576v-.444-6.565l-1.761.214v.197h.033c.165.016.296.033.395.082a.7.7 0 0 1 .23.214c.066.099.099.23.132.378a9 9 0 0 1 .033.839v4.591l-.033.79c-.016.181-.049.313-.082.395-.066.132-.132.214-.23.28-.099.049-.263.099-.494.132h-.033v.181h2.65v-.181h-.033zm2.731-5.99a.6.6 0 0 0 .411-.148c.099-.099.165-.23.165-.395 0-.148-.05-.28-.165-.395-.115-.099-.247-.165-.395-.165-.164 0-.296.049-.395.165-.115.099-.164.23-.164.395s.049.296.164.395c.083.082.214.148.379.148zm1.3 5.99c-.28-.049-.477-.132-.593-.23-.082-.082-.148-.181-.164-.296-.033-.115-.049-.313-.049-.576v-.444-3.406l-1.761.214v.181h.033c.164.016.296.033.395.082.082.049.164.115.23.23.066.099.099.23.132.378a9 9 0 0 1 .033.839v1.432l-.033.773a1.47 1.47 0 0 1-.083.395.66.66 0 0 1-.23.28 1.7 1.7 0 0 1-.494.132h-.033v.181h2.65v-.181l-.033.016zm5.316-.971c-.115.28-.23.477-.345.592-.231.23-.543.346-.905.346-.445 0-.823-.181-1.152-.51-.214-.214-.379-.494-.494-.823a3.01 3.01 0 0 1-.181-1.004c0-.379.066-.757.197-1.152a2.49 2.49 0 0 1 .313-.625 1.43 1.43 0 0 1 .428-.411c.181-.132.395-.181.625-.181.165 0 .313.049.428.132a1.04 1.04 0 0 1 .132.148 2.27 2.27 0 0 1 .132.346c.131.378.329.576.592.576.132 0 .23-.049.329-.132a.46.46 0 0 0 .132-.329c0-.197-.099-.378-.313-.543-.329-.263-.773-.395-1.349-.395-.412 0-.807.082-1.152.214a2.46 2.46 0 0 0-.889.642 2.82 2.82 0 0 0-.51.872 3.28 3.28 0 0 0-.181 1.037c0 .707.23 1.3.658 1.761.461.477 1.086.707 1.876.707.494 0 .889-.099 1.185-.28.28-.181.51-.494.642-.922l.016-.033-.181-.066-.033.033zm2.849-5.019a.6.6 0 0 0 .411-.148c.099-.099.165-.23.165-.395 0-.148-.05-.28-.165-.395-.115-.099-.247-.165-.395-.165-.164 0-.296.049-.395.165-.115.099-.164.23-.164.395s.049.296.164.395c.082.082.231.148.379.148zm1.315 5.99c-.279-.049-.477-.132-.592-.23a.54.54 0 0 1-.165-.296c-.033-.115-.049-.313-.049-.576v-.444-3.406l-1.761.214v.181h.033c.165.016.296.033.395.082a.61.61 0 0 1 .23.23c.066.099.099.23.132.378.017.165.033.444.033.839v1.432l-.033.773a1.44 1.44 0 0 1-.082.395.66.66 0 0 1-.231.28c-.098.049-.263.099-.493.132h-.033v.181h2.649v-.181l-.033.016zm2.521-5.99a.6.6 0 0 0 .411-.148c.099-.099.165-.23.165-.395 0-.148-.05-.28-.165-.395-.115-.099-.247-.165-.395-.165-.165 0-.296.049-.395.165-.115.099-.165.23-.165.395s.05.296.165.395c.082.082.214.148.379.148zm1.315 5.99c-.279-.049-.477-.132-.592-.23a.54.54 0 0 1-.165-.296c-.033-.115-.049-.313-.049-.576v-.444-3.406l-1.761.214v.181h.033c.165.017.296.033.395.082a.61.61 0 0 1 .23.23c.066.099.099.23.132.378a9 9 0 0 1 .033.839v1.432l-.033.773a1.44 1.44 0 0 1-.082.395.66.66 0 0 1-.231.28c-.098.049-.263.099-.493.132h-.033v.181h2.649v-.181l-.033.017zm4.293-2.139c-.197-.247-.477-.461-.872-.642l-.642-.28c-.296-.132-.51-.263-.642-.411s-.197-.313-.197-.494a.78.78 0 0 1 .23-.559c.148-.148.329-.23.543-.23a1.07 1.07 0 0 1 .478.115 1.41 1.41 0 0 1 .427.346 1.71 1.71 0 0 1 .214.313c.05.115.099.263.148.444v.033h.198l-.066-1.366v-.033h-.181l-.016.017c-.066.099-.132.165-.181.165s-.099-.016-.148-.033l-.214-.082c-.181-.066-.379-.115-.593-.115-.461 0-.856.148-1.135.444a1.33 1.33 0 0 0-.379.938c0 .329.132.642.379.889.164.181.51.395 1.02.658l.609.346c.115.082.214.165.296.263a1.02 1.02 0 0 1 .214.625c0 .296-.099.51-.296.675-.181.148-.395.214-.642.214-.395 0-.757-.214-1.053-.642-.165-.23-.313-.559-.412-.954v-.033h-.164v1.728h.148l.016-.017c.066-.115.165-.165.297-.165.049 0 .098 0 .131.016s.181.066.313.115a2.48 2.48 0 0 0 .823.148c.493 0 .921-.164 1.234-.477.28-.28.428-.625.428-1.037a1.59 1.59 0 0 0-.313-.921z"/></svg>