<svg width="82" height="110" viewBox="0 0 82 110" fill="none" xmlns="http://www.w3.org/2000/svg">
<path d="M7.77076 14.6616C8.04768 14.6616 8.2323 14.477 8.2323 14.2001V7.46165H14.9708C15.2477 7.46165 15.4323 7.27703 15.4323 7.00011C15.4323 6.72319 15.2477 6.53857 14.9708 6.53857H7.77076C7.49384 6.53857 7.30922 6.72319 7.30922 7.00011V14.2001C7.30922 14.3847 7.49384 14.6616 7.77076 14.6616Z" fill="url(#paint0_linear)"/>
<path d="M80.2323 0.538574H1.77073C1.21689 0.538574 0.847656 0.907805 0.847656 1.46165V108.539C0.847656 109.092 1.21689 109.462 1.77073 109.462H80.2323C80.7861 109.462 81.1553 109.092 81.1553 108.539V1.46165C81.1553 0.907805 80.7861 0.538574 80.2323 0.538574ZM79.3092 107.616H2.69381V2.38473H79.3092V107.616Z" fill="url(#paint1_linear)"/>
<path d="M18.294 7.46165H20.4171C20.694 7.46165 20.8786 7.27703 20.8786 7.00011C20.8786 6.72319 20.694 6.53857 20.4171 6.53857H18.294C18.0171 6.53857 17.8324 6.72319 17.8324 7.00011C17.8324 7.27703 18.0171 7.46165 18.294 7.46165Z" fill="url(#paint2_linear)"/>
<path d="M7.77076 20.2001C8.04768 20.2001 8.2323 20.0155 8.2323 19.7386V17.6155C8.2323 17.3386 8.04768 17.154 7.77076 17.154C7.49384 17.154 7.30922 17.3386 7.30922 17.6155V19.7386C7.30922 19.9232 7.49384 20.2001 7.77076 20.2001Z" fill="url(#paint3_linear)"/>
<path d="M74.2324 95.4309C73.9554 95.4309 73.7708 95.6155 73.7708 95.8924V102.631H67.0324C66.7554 102.631 66.5708 102.816 66.5708 103.092C66.5708 103.369 66.7554 103.554 67.0324 103.554H74.2324C74.5093 103.554 74.6939 103.369 74.6939 103.092V95.8924C74.6939 95.6155 74.5093 95.4309 74.2324 95.4309Z" fill="url(#paint4_linear)"/>
<path d="M63.7091 102.539H61.5861C61.3091 102.539 61.1245 102.723 61.1245 103C61.1245 103.277 61.3091 103.462 61.5861 103.462H63.7091C63.9861 103.462 64.1707 103.277 64.1707 103C64.1707 102.723 63.9861 102.539 63.7091 102.539Z" fill="url(#paint5_linear)"/>
<path d="M74.2323 89.8924C73.9554 89.8924 73.7707 90.0771 73.7707 90.354V92.4771C73.7707 92.754 73.9554 92.9386 74.2323 92.9386C74.5092 92.9386 74.6938 92.754 74.6938 92.4771V90.354C74.6938 90.0771 74.5092 89.8924 74.2323 89.8924Z" fill="url(#paint6_linear)"/>
<path d="M9.98624 89.9847C10.1709 90.1693 10.3555 90.2616 10.6324 90.2616C10.9093 90.2616 11.0939 90.1693 11.2785 89.9847L24.6632 76.6001C24.8478 77.2463 25.0324 77.8924 25.1247 78.6309C25.4939 80.754 26.0478 82.7847 26.6939 84.6309C21.3401 89.6155 19.4939 92.2924 18.4785 94.0463C17.5555 95.7078 17.5555 97.4616 18.5709 98.3847C19.0324 98.8463 19.7709 99.1232 20.5093 99.1232C21.2478 99.1232 22.0785 98.9386 22.9093 98.477C24.4785 97.554 26.6939 96.077 30.4785 92.1078C32.9708 95.5232 36.1093 97.7386 39.617 98.3847C40.5401 98.5693 41.4632 98.6617 42.3862 98.6617C46.2632 98.6617 50.5093 97.277 54.4785 94.5078H54.5708C54.6632 94.5078 54.6632 94.4155 54.6632 94.4155C59.4632 91.0001 63.9862 85.6463 67.0324 78.4463C67.0324 78.4463 67.0324 78.354 67.1247 78.354C67.8632 76.6001 68.5093 74.754 69.0632 72.8155C71.0016 66.354 71.3708 59.6155 70.3555 52.6001C70.7247 52.3232 71.0016 52.0463 71.3708 51.677C75.3401 47.7078 75.4324 41.8001 75.4324 41.6155C75.4324 41.2463 75.2478 40.9693 74.9709 40.7847C74.6939 40.6001 74.3247 40.6924 73.9555 40.877C71.7401 42.5386 70.1709 43.1847 68.7862 43.7386C68.6016 43.8309 68.5093 43.8309 68.3247 43.9232C67.217 40.4155 65.8324 36.9078 63.9862 33.3078L64.817 31.6463C65.0016 31.277 64.9093 30.8155 64.6324 30.5386C64.3555 30.2616 63.8939 30.1693 63.5247 30.354L62.6016 30.8155C60.9401 27.677 59.0016 24.5386 56.7862 21.4001C51.4324 13.7386 42.4785 12.7232 35.8324 14.3847C29.3709 15.954 24.6632 20.1078 24.1093 24.5386C23.8324 26.5693 23.5555 28.3232 23.2785 29.8924L20.6939 27.0309C20.6016 26.9386 20.417 26.8463 20.3247 26.8463L13.3093 27.4924C13.1247 27.4924 13.0324 27.5847 12.9401 27.7693C12.8478 27.954 12.8478 28.0463 12.9401 28.2309L20.0478 39.7693C19.4016 41.0616 18.7555 42.077 18.1093 43.0924C16.3555 45.7693 15.0632 47.8924 15.2478 53.0616C15.617 60.9078 18.017 64.6001 20.417 68.2924C20.5093 68.3847 20.5093 68.477 20.6016 68.5693L5.18624 83.8924C4.81701 84.2617 4.81701 84.8155 5.18624 85.1847L9.98624 89.9847ZM11.9247 79.8309L15.3401 83.2463L10.6324 87.9539L7.217 84.5386L11.9247 79.8309ZM14.2324 77.5232L17.6478 80.9386L16.6324 81.9539L13.217 78.5386L14.2324 77.5232ZM69.9862 50.3847C69.7093 50.6616 69.4324 50.8463 69.1555 51.1232C68.1401 51.954 67.217 52.3232 66.3862 52.5078C67.1247 51.954 67.9555 51.2155 68.9709 50.2001C69.2478 49.9232 69.5247 49.6463 69.7093 49.3693C70.6324 48.2616 71.7401 46.9693 72.7555 45.4001C72.3862 46.9693 71.4632 48.8155 69.9862 50.3847C69.9862 50.2924 69.9862 50.2924 69.9862 50.3847ZM21.8939 96.8155C20.9708 97.3693 20.0478 97.3693 19.7709 97.0924C19.4939 96.8155 19.4939 95.8924 20.0478 94.9693C20.9708 93.4001 22.6324 91.0001 27.4324 86.477C27.617 86.2924 27.8939 86.0155 28.1708 85.8309C29.1862 84.9078 30.2016 83.8924 31.4939 82.877C36.2939 78.7232 38.6939 76.6001 41.4632 74.0155C41.6478 73.8309 41.9247 73.554 42.1093 73.3693C44.2324 71.4309 46.6324 69.1232 50.6016 65.4309L51.9862 64.1386L52.9093 65.0616L51.617 66.4463C47.7401 70.6001 45.3401 73.0924 43.3093 75.3078C43.1247 75.5847 42.8478 75.7693 42.6632 76.0463C40.2632 78.7232 38.1401 81.0309 34.1708 85.6463C32.6939 87.4001 31.3093 88.7847 30.2016 89.9847C30.017 90.2617 29.7401 90.4463 29.5555 90.6309C25.4939 94.5078 23.3708 95.9847 21.8939 96.8155ZM53.2785 62.6616L62.9709 53.5232L63.3401 53.8924L54.1093 63.5847L53.6478 63.1232L53.2785 62.6616ZM64.6324 52.6001L64.2632 52.2309C64.9093 51.2155 66.1093 49.7386 68.1401 48.2616C68.2324 48.1693 68.417 48.077 68.5093 47.9847C68.7862 47.8001 69.0631 47.6155 69.3401 47.4309C70.3555 46.6001 71.1862 45.954 71.8324 45.3078C71.0016 46.4155 70.2632 47.4309 69.5247 48.2616C69.2478 48.5386 68.9709 48.8155 68.7862 49.0924C66.9401 51.0309 65.5555 52.0463 64.6324 52.6001ZM69.5247 45.3078C69.9862 45.1232 70.5401 44.8463 71.1862 44.5693C70.6324 45.1232 69.8939 45.677 69.0632 46.3232C68.7862 46.5078 68.5093 46.6924 68.2324 46.9693C68.0478 47.154 67.7709 47.2463 67.5862 47.4309C66.017 48.6309 64.9093 49.8309 64.0785 50.754C64.2632 49.8309 64.6324 48.6309 65.8324 47.5232C66.5708 46.7847 67.217 46.3232 67.9555 45.954C68.2324 45.8616 68.5093 45.677 68.7862 45.5847C69.0632 45.4924 69.2478 45.4001 69.5247 45.3078ZM51.2478 62.0155L49.217 63.9539C45.5247 67.4616 43.0324 69.7693 41.0016 71.7078L36.6632 64.6001L45.617 55.6463L51.3401 62.0155H51.2478ZM18.9401 79.6463L18.2939 79.0001L56.8785 40.4155L57.5247 41.0616L35.0016 63.5847L24.7555 73.9232L24.017 74.6617L18.9401 79.6463ZM59.2785 34.6001L59.3709 34.6924L57.4324 38.3847L55.5862 36.5386L59.2785 34.6001ZM56.2324 39.7693L17.7401 78.2616L16.9093 77.4309L55.3093 39.0309L56.2324 39.7693ZM32.0478 57.1232L21.2478 39.677C22.1708 37.7386 23.0939 35.3386 23.9247 31.8309L39.8016 49.3693L32.0478 57.1232ZM22.3555 69.3078L54.017 37.6463L54.6632 38.2924L42.3862 50.6616L41.6478 51.3078L32.7862 60.1693L22.9093 70.1386L16.2632 76.7847L15.5247 76.2309L21.7093 70.0463L22.3555 69.3078ZM26.0478 78.4463C25.8632 77.5232 25.6785 76.6001 25.4016 75.8616L36.017 65.2463L40.3555 72.354C37.4016 75.0309 35.0939 77.154 30.2016 81.4924C29.1862 82.4155 28.2632 83.2463 27.4324 83.9847C26.7862 82.2309 26.3247 80.3847 26.0478 78.4463ZM39.7093 97.4616C36.3862 96.8155 33.4324 94.6924 31.0324 91.4616C32.3247 90.1693 33.7093 88.6001 35.3708 86.754C39.1555 82.4155 41.2785 80.1078 43.4939 77.6155L53.5555 93.954C48.6632 97.1847 43.4939 98.2001 39.7093 97.4616ZM54.3862 93.3078L44.2324 76.7847C46.3555 74.477 48.7555 71.9847 52.9093 67.554L54.7555 65.6155L66.1093 78.077C63.0632 85.277 58.817 90.1693 54.3862 93.3078ZM68.1401 72.4463C67.6785 74.1078 67.1247 75.7693 66.4785 77.2463L55.3093 64.9693L65.1862 54.4463C66.6632 54.354 68.0478 53.9847 69.4324 53.0616C70.3555 59.7078 69.9862 66.1693 68.1401 72.4463ZM67.4939 44.2001C66.5708 44.6616 65.5555 45.2155 64.5401 46.2309C62.5093 48.2616 62.2324 50.477 62.1401 51.677L51.9862 61.277L46.2632 55.0001L59.4632 41.7078C59.4632 41.7078 59.5555 41.6155 59.5555 41.5232C59.5555 41.5232 59.6478 41.5232 59.6478 41.4309L63.5247 34.1386C65.1862 37.554 66.4785 40.877 67.4939 44.2001ZM25.1247 24.6309C25.5862 20.477 30.017 16.6924 36.2016 15.2155C42.5709 13.6463 51.1555 14.5693 56.2324 21.8616C58.4478 25.0001 60.2939 28.1386 62.0478 31.1847L53.7401 35.5232L40.6324 48.6309L24.1093 30.6309C24.4785 28.877 24.8478 26.9386 25.1247 24.6309ZM14.2324 28.3232L20.2324 27.7693L23.0939 30.9078C22.3555 34.3232 21.5247 36.7232 20.6016 38.6616L14.2324 28.3232ZM21.3401 67.6463C18.9401 63.954 16.6324 60.4463 16.3555 52.877C16.1709 47.9847 17.3709 46.0463 19.0324 43.4616C19.5862 42.6309 20.1401 41.7078 20.7862 40.6001L31.3093 57.7693L21.3401 67.7386V67.6463Z" fill="url(#paint7_linear)"/>
<defs>
<linearGradient id="paint0_linear" x1="2.3629" y1="59.31" x2="79.1373" y2="59.2647" gradientUnits="userSpaceOnUse">
<stop stop-color="#8F6D55"/>
<stop offset="1" stop-color="#4D4444"/>
</linearGradient>
<linearGradient id="paint1_linear" x1="2.3629" y1="59.31" x2="79.1373" y2="59.2647" gradientUnits="userSpaceOnUse">
<stop stop-color="#8F6D55"/>
<stop offset="1" stop-color="#4D4444"/>
</linearGradient>
<linearGradient id="paint2_linear" x1="2.3629" y1="59.31" x2="79.1373" y2="59.2647" gradientUnits="userSpaceOnUse">
<stop stop-color="#8F6D55"/>
<stop offset="1" stop-color="#4D4444"/>
</linearGradient>
<linearGradient id="paint3_linear" x1="2.3629" y1="59.31" x2="79.1373" y2="59.2647" gradientUnits="userSpaceOnUse">
<stop stop-color="#8F6D55"/>
<stop offset="1" stop-color="#4D4444"/>
</linearGradient>
<linearGradient id="paint4_linear" x1="2.3629" y1="59.31" x2="79.1373" y2="59.2647" gradientUnits="userSpaceOnUse">
<stop stop-color="#8F6D55"/>
<stop offset="1" stop-color="#4D4444"/>
</linearGradient>
<linearGradient id="paint5_linear" x1="2.3629" y1="59.31" x2="79.1373" y2="59.2647" gradientUnits="userSpaceOnUse">
<stop stop-color="#8F6D55"/>
<stop offset="1" stop-color="#4D4444"/>
</linearGradient>
<linearGradient id="paint6_linear" x1="2.3629" y1="59.31" x2="79.1373" y2="59.2647" gradientUnits="userSpaceOnUse">
<stop stop-color="#8F6D55"/>
<stop offset="1" stop-color="#4D4444"/>
</linearGradient>
<linearGradient id="paint7_linear" x1="2.3629" y1="59.31" x2="79.1373" y2="59.2647" gradientUnits="userSpaceOnUse">
<stop stop-color="#8F6D55"/>
<stop offset="1" stop-color="#4D4444"/>
</linearGradient>
</defs>
</svg>
