<svg width="82" height="110" viewBox="0 0 82 110" fill="none" xmlns="http://www.w3.org/2000/svg">
<path d="M7.77075 14.0155C8.04768 14.0155 8.23229 13.8309 8.23229 13.554V6.81552H14.9708C15.2477 6.81552 15.4323 6.63091 15.4323 6.35398C15.4323 6.07706 15.2477 5.89245 14.9708 5.89245H7.77075C7.49383 5.89245 7.30921 6.07706 7.30921 6.35398V13.554C7.30921 13.8309 7.49383 14.0155 7.77075 14.0155Z" fill="url(#paint0_linear)"/>
<path d="M18.2939 6.81552H20.417C20.6939 6.81552 20.8785 6.63091 20.8785 6.35398C20.8785 6.07706 20.6939 5.89245 20.417 5.89245H18.2939C18.017 5.89245 17.8324 6.07706 17.8324 6.35398C17.8324 6.63091 18.017 6.81552 18.2939 6.81552Z" fill="url(#paint1_linear)"/>
<path d="M7.77075 19.554C8.04768 19.554 8.23229 19.3694 8.23229 19.0924V16.9694C8.23229 16.6924 8.04768 16.5078 7.77075 16.5078C7.49383 16.5078 7.30921 16.6924 7.30921 16.9694V19.0924C7.30921 19.3694 7.49383 19.554 7.77075 19.554Z" fill="url(#paint2_linear)"/>
<path d="M80.2323 0.538574H1.77073C1.21689 0.538574 0.847656 0.907805 0.847656 1.46165V108.539C0.847656 109.092 1.21689 109.462 1.77073 109.462H80.2323C80.7861 109.462 81.1553 109.092 81.1553 108.539V1.46165C81.1553 0.907805 80.7861 0.538574 80.2323 0.538574ZM2.69381 72.8155H14.4169L2.69381 78.5386V72.8155ZM2.69381 107.616V90.9078L32.2323 107.616H2.69381ZM79.3092 107.616H49.7707L79.3092 90.9078V107.616ZM79.3092 89.8001L47.9246 107.616H34.0784L2.69381 89.8001V79.6463L15.8938 73.1847C16.6323 73.9232 17.6477 74.477 18.8477 74.754C18.8477 74.754 18.94 74.8463 19.1246 74.9386C19.4938 75.2155 20.0477 75.7693 20.0477 76.877V88.0463C19.3092 88.6001 16.6323 90.4463 13.5861 90.5386C13.3092 90.5386 13.1246 90.7232 13.1246 91.0001C13.1246 91.277 13.3092 91.4617 13.5861 91.4617H28.8169C29.0938 91.4617 29.2784 91.277 29.2784 91.0001C29.2784 90.7232 29.0938 90.5386 28.8169 90.5386C25.7707 90.354 23.0938 88.5078 22.3553 88.0463V76.877C22.3553 75.7693 22.9092 75.1232 23.2784 74.9386C23.3707 74.8463 23.463 74.754 23.5553 74.754C24.8477 74.477 25.9553 73.8309 26.6938 72.9078C26.6938 72.9078 26.6938 72.9078 26.6938 72.8155H32.2323V84.1693C31.6784 84.7232 29.463 86.754 26.14 86.8463C25.863 86.8463 25.6784 87.0309 25.6784 87.3078C25.6784 87.5847 25.863 87.7693 26.14 87.7693H38.6938L39.8938 96.1693C39.8938 96.354 40.0784 96.5386 40.3554 96.5386H44.2323L44.8784 101.246C44.8784 101.431 45.063 101.616 45.34 101.616H51.7092C51.9861 101.616 52.1707 101.431 52.1707 101.246L53.9246 88.6924C53.9246 88.6001 53.9246 88.4155 53.8323 88.3232C53.74 88.2309 53.6477 88.1386 53.463 88.1386H48.3861L49.0323 83.5232C49.0323 83.4309 49.0323 83.2463 48.94 83.154C48.8477 83.0617 48.7553 82.9693 48.5707 82.9693H38.6938C38.6015 82.9693 38.4169 83.0617 38.3246 83.154C38.2323 83.3386 38.2323 83.5232 38.2323 83.6155L38.6938 86.6617C36.2938 86.1078 34.6323 84.6309 34.1707 84.1693V72.8155H41.9246C42.3861 79.8309 44.0477 82.1386 44.14 82.3232C44.2323 82.4155 44.3246 82.5078 44.5092 82.5078H48.1092C48.2938 82.5078 48.3861 82.4155 48.4784 82.3232C48.5707 82.2309 49.1246 81.4001 49.6784 79.3693L50.4169 86.3847C50.4169 86.6617 50.6015 86.754 50.8784 86.754H58.7246C59.0938 90.6309 60.4784 93.1232 60.5707 93.2155C60.663 93.4001 60.8477 93.4001 60.94 93.4001H66.2015C66.3861 93.4001 66.4784 93.3078 66.5707 93.2155C66.663 93.0309 68.9707 88.9693 68.4169 82.6924C68.3246 81.677 68.14 80.5693 67.863 79.3693C67.7707 79.1847 67.5861 79.0001 67.4015 79.0001H61.5861L62.2323 72.7232H65.3707L79.2169 79.554V89.8001H79.3092ZM26.6015 63.5847L26.6938 64.7847L27.063 68.2001C27.063 68.2001 27.2477 69.5847 26.6938 71.0617C26.5092 71.5232 26.2323 71.9847 25.9553 72.354C25.7707 72.5386 25.5861 72.7232 25.4015 72.9078C24.3861 73.7386 23.0015 74.1078 21.1553 74.1078C19.3092 74.1078 17.9246 73.7386 16.9092 72.9078C16.8169 72.9078 16.8169 72.8155 16.7246 72.8155C16.6323 72.7232 16.4477 72.6309 16.3553 72.4463L16.263 72.354C16.1707 72.2617 16.0784 72.1693 16.0784 72.077C15.8015 71.7078 15.7092 71.4309 15.5246 71.0617C14.9707 69.677 15.1553 68.2001 15.1553 68.2001L15.6169 63.5847H26.6015ZM15.7092 62.6617L16.263 56.6617H25.863L26.0477 58.2309L26.2323 59.9847L26.5092 62.5693H15.7092V62.6617ZM37.7707 49.0001L39.6169 60.354C39.6169 60.354 39.9861 63.0309 38.4169 64.877C37.3092 66.1693 35.5553 66.8155 33.1553 66.8155C30.7553 66.8155 29.0015 66.1693 27.8938 64.877C27.8015 64.7847 27.7092 64.6001 27.6169 64.5078L26.9707 58.3232L28.54 49.0001H37.7707ZM28.7246 48.077L29.8323 41.5232H36.663L37.7707 48.077H28.7246ZM27.9861 68.0155L27.8015 65.9847C28.54 66.6309 29.463 67.0924 30.663 67.3693C30.663 67.3693 30.7553 67.4616 30.94 67.554C31.4015 67.9232 32.3246 68.6617 32.3246 70.0463V70.9693H27.8015C28.1707 69.4924 27.9861 68.1078 27.9861 68.0155ZM32.8784 84.8155C32.9707 84.7232 32.9707 84.7232 33.063 84.6309C33.1553 84.5386 33.1553 84.5386 33.1553 84.5386H33.2477C33.2477 84.6309 33.2477 84.6309 33.34 84.6309C33.34 84.6309 33.4323 84.7232 33.5246 84.8155C33.8938 85.1847 34.9092 86.1078 36.4784 86.9386H29.9246C31.4938 86.1078 32.5092 85.1847 32.8784 84.8155ZM33.2477 69.5847H33.063C32.9707 68.754 32.6015 68.2001 32.2323 67.7386C32.5092 67.7386 32.7861 67.7386 33.1553 67.7386C33.5246 67.7386 33.8015 67.7386 34.0784 67.7386C33.7092 68.1078 33.34 68.754 33.2477 69.5847ZM21.4323 88.4155C21.4323 88.5078 21.5246 88.5078 21.5246 88.6001C21.6169 88.6924 22.9092 89.7078 24.8477 90.5386H17.2784C19.2169 89.7078 20.5092 88.6924 20.6015 88.6001C20.6938 88.6001 20.6938 88.5078 20.6938 88.4155C20.6938 88.3232 20.6938 88.3232 20.6938 88.2309V76.877C20.6938 76.0463 20.5092 75.4001 20.14 74.9386C20.4169 74.9386 20.6938 74.9386 20.9707 74.9386C21.2477 74.9386 21.5246 74.9386 21.8015 74.9386C21.5246 75.4001 21.2477 76.0463 21.2477 76.877V88.2309C21.4323 88.3232 21.4323 88.4155 21.4323 88.4155ZM45.4323 98.1078L45.2477 96.5386L45.063 95.6155L44.7861 93.8616L44.6015 92.9386L44.4169 91.9232H52.4477L51.6169 98.0155H45.4323V98.1078ZM51.6169 99.0309L51.34 100.785H45.7092L45.4323 99.0309H51.6169ZM44.4169 91.0924L44.14 89.154H53.0015L52.7246 91.0924H44.4169ZM43.5861 88.2309C43.4938 88.2309 43.3092 88.3232 43.2169 88.4155C43.1246 88.5078 43.1246 88.6924 43.1246 88.7847L43.6784 93.0309H40.3554L39.6169 87.8616L39.4323 86.9386H47.6477L47.463 88.2309H43.5861ZM44.14 95.6155H40.8169L40.54 93.8616H43.863L44.14 95.6155ZM47.74 85.9232H39.4323L39.1553 83.9847H48.0169L47.74 85.9232ZM59.6477 82.3232C59.74 81.5847 59.8323 80.8463 60.0169 80.0155H67.0323C67.2169 80.754 67.3092 81.5847 67.4015 82.3232H59.6477ZM67.5861 83.2463C67.9554 88.1386 66.3861 91.6463 65.9246 92.5693H61.2169C60.8477 91.9232 59.9246 89.8001 59.6477 86.754C59.6477 86.5693 59.6477 86.477 59.6477 86.2924C59.6477 86.1078 59.6477 86.0155 59.6477 85.8309C59.5553 85.0001 59.5553 84.1693 59.6477 83.2463H67.5861ZM61.4015 72.8155L60.7554 79.0924H59.74C59.5554 79.0924 59.3707 79.277 59.2784 79.4617C59.0015 80.5693 58.8169 81.677 58.7246 82.6924V82.7847C58.6323 83.8924 58.6323 84.9078 58.6323 85.8309H51.2477L50.2323 76.4155L50.0477 74.477L49.7707 71.9847L49.6784 70.9693L49.4015 68.6617H61.863L61.5861 70.9693L61.4015 72.8155ZM49.3092 67.7386L48.5707 61.0001H62.6938L61.9553 67.7386H49.3092ZM46.1707 53.0617H47.8323C47.74 58.7847 47.1861 63.8616 46.6323 67.6463C46.54 68.477 46.3553 69.3078 46.263 69.954C46.263 70.0463 46.263 70.2309 46.1707 70.3232C46.263 65.4309 46.263 58.6924 46.1707 53.0617ZM46.263 74.754C46.3553 74.2924 46.54 73.6463 46.7246 72.8155C46.8169 72.2617 46.9092 71.6155 47.0938 70.9693C47.3707 69.2155 47.74 67.0001 48.0169 64.5078L48.7554 70.9693L48.94 72.8155L49.3092 76.3232C48.8477 79.4616 48.1092 81.0309 47.8323 81.5847H45.4323C45.5246 80.6617 45.8015 78.5386 46.0784 75.4001C46.1707 75.4001 46.1707 75.2155 46.263 74.754ZM48.4784 60.077C48.663 57.8617 48.7553 55.554 48.8477 53.0617C49.0323 55.1847 49.3092 57.4924 49.4938 60.077H48.4784ZM47.6477 32.9386H45.4323C45.7092 30.7232 46.54 29.154 48.4784 28.877C48.5707 28.877 48.663 28.877 48.7554 28.877C49.2169 28.877 49.5861 29.0617 49.9553 29.3386C50.6938 30.077 50.9707 31.6463 50.9707 33.1232C50.6015 32.3847 49.9553 31.9232 48.8477 32.0155C48.2015 32.1078 47.8323 32.3847 47.6477 32.9386ZM47.3707 33.8616C47.1861 35.154 47.2784 37.277 47.463 40.4155C47.5553 42.6309 47.74 45.4001 47.8323 48.6309C47.8323 49.8309 47.8323 51.0309 47.8323 52.1386H46.0784C45.9861 48.6309 45.8938 45.677 45.7092 43.8309C45.6169 43.1847 45.6169 42.4463 45.5246 41.8001C45.2477 39.1232 44.9707 36.2617 45.1553 33.8616H47.3707ZM45.2477 52.1386H43.863C43.863 51.8617 43.9553 51.5847 43.9553 51.3078C44.3246 47.8001 44.6015 44.8463 44.6938 41.9847C44.7861 42.6309 44.7861 43.277 44.8784 43.8309C45.063 45.677 45.1553 48.7232 45.2477 52.1386ZM45.2477 53.0617C45.34 58.9693 45.34 66.077 45.34 70.9693C45.34 71.6155 45.34 72.2617 45.34 72.8155C45.34 73.6463 45.34 74.477 45.34 75.1232C45.063 78.077 44.7861 80.2001 44.6938 81.2155C44.2323 80.2001 43.3092 77.7078 42.94 72.8155C42.94 72.2617 42.8477 71.6155 42.8477 70.9693C42.7553 68.754 42.7553 66.1693 43.0323 63.0309C43.3092 59.0616 43.5861 55.8309 43.863 53.0617H45.2477ZM79.3092 78.6309L67.5861 72.8155H79.3092V78.6309ZM79.3092 70.9693H62.5092L62.7861 68.3847C62.7861 68.2924 62.7861 68.2924 62.7861 68.2001C62.7861 68.2001 62.7861 68.2001 62.7861 68.1078L63.6169 60.5386C63.6169 60.4463 63.6169 60.2617 63.5246 60.1693C63.4323 60.077 63.34 59.9847 63.1553 59.9847H50.3246C50.14 57.2155 49.863 54.8155 49.6784 52.6924C49.6784 52.5078 49.6784 52.4155 49.6784 52.2309C49.6784 51.8617 49.5861 51.4924 49.5861 51.1232C48.94 44.3847 48.4784 39.954 49.2169 33.4001C49.2169 33.3078 49.2169 33.1232 49.1246 33.0309C49.0323 32.9386 49.0323 32.9386 48.94 32.9386C50.0477 32.8463 50.4169 33.7693 50.7861 36.1693C50.7861 36.354 50.9707 36.5386 51.2477 36.5386C51.5246 36.5386 51.7092 36.354 51.7092 36.1693C51.7092 35.9847 52.54 30.6309 50.6015 28.6924C50.0477 28.0463 49.2169 27.8617 48.3861 27.954C46.54 28.2309 45.5246 29.154 44.9707 30.6309C44.6015 28.5078 44.3246 26.3847 43.863 24.354C44.14 24.2617 44.5092 24.077 44.9707 23.7078C46.263 22.877 46.9092 21.677 47.0015 20.3847C47.1861 16.6001 42.3861 12.4463 42.2015 12.2617C42.1092 12.1693 42.0169 12.1693 41.8323 12.1693C41.74 12.1693 41.5553 12.2617 41.5553 12.354C41.5553 12.354 41.2784 12.8155 40.9092 13.4617C40.263 12.8155 39.5246 12.4463 39.5246 12.4463C39.34 12.354 39.063 12.4463 38.8784 12.6309C38.5092 13.277 38.4169 13.9232 38.3246 14.3847C37.7707 14.1078 37.3092 13.9232 37.3092 13.9232C37.2169 13.8309 37.0323 13.9232 36.94 13.9232C36.8477 13.9232 36.7554 14.1078 36.7554 14.2001C36.7554 14.477 35.6477 20.754 38.2323 23.5232C39.063 24.354 40.0784 24.8155 41.3707 24.8155C41.5554 24.8155 41.74 24.8155 41.9246 24.8155C42.4784 24.8155 42.7554 24.7232 43.1246 24.6309C43.6784 27.4001 44.14 30.1693 44.5092 32.9386H43.9553C43.863 32.9386 43.6784 33.0309 43.5861 33.1232C43.4938 33.2155 43.4938 33.4001 43.4938 33.4924C44.3246 40.0463 43.863 44.477 43.1246 51.2155C42.7554 54.5386 42.3861 58.2309 42.1092 63.0309C41.9246 66.1693 41.8323 68.754 41.9246 71.0617H34.263V70.1386C34.263 68.754 35.1861 68.0155 35.6477 67.6463C35.74 67.554 35.8323 67.4617 35.9246 67.4617C37.3092 67.0924 38.5092 66.4463 39.34 65.5232C41.1861 63.3078 40.8169 60.354 40.8169 60.2617L38.9707 48.8155L37.6784 41.0617C37.6784 40.877 37.4938 40.6924 37.2169 40.6924H29.6477C29.463 40.6924 29.1861 40.877 29.1861 41.0617L27.8938 48.8155L26.7861 55.8309C26.7861 55.8309 26.6938 55.8309 26.6015 55.8309H15.8938C15.6169 55.8309 15.4323 56.0155 15.4323 56.2924L14.2323 68.0155C14.2323 68.1078 14.0477 69.4924 14.5092 70.9693H2.69381V2.38473H79.3092V70.9693ZM43.7707 20.477C44.3246 21.4001 44.6938 22.1386 44.8784 22.5078C44.6938 22.6924 44.5092 22.7847 44.3246 22.877C43.7707 23.2463 43.4938 23.3386 43.0323 23.5232C42.663 23.7078 42.2938 23.8001 41.6477 23.8001C40.3553 23.8924 39.4323 23.6155 38.6938 22.7847C36.8477 20.754 37.1246 16.4155 37.3092 14.8463C38.6938 15.4924 41.9246 17.154 43.7707 20.477ZM39.1553 14.754C39.1553 14.477 39.1553 13.9232 39.4323 13.4617C39.7092 13.6463 40.0784 13.9232 40.3554 14.2924C40.263 14.5693 40.0784 14.9386 39.9861 15.2155C39.7092 15.1232 39.4323 14.9386 39.1553 14.754ZM40.7246 15.7693C41.0938 14.6617 41.6477 13.7386 41.9246 13.277C43.0323 14.3847 46.1707 17.5232 45.9861 20.2924C45.9861 20.8463 45.8015 21.3078 45.5246 21.7693C45.34 21.3078 44.9707 20.754 44.5092 20.0155C43.4938 18.1693 42.0169 16.7847 40.7246 15.7693Z" fill="url(#paint3_linear)"/>
<defs>
<linearGradient id="paint0_linear" x1="2.3629" y1="59.31" x2="79.1373" y2="59.2647" gradientUnits="userSpaceOnUse">
<stop stop-color="#8F6D55"/>
<stop offset="1" stop-color="#4D4444"/>
</linearGradient>
<linearGradient id="paint1_linear" x1="2.3629" y1="59.31" x2="79.1373" y2="59.2647" gradientUnits="userSpaceOnUse">
<stop stop-color="#8F6D55"/>
<stop offset="1" stop-color="#4D4444"/>
</linearGradient>
<linearGradient id="paint2_linear" x1="2.3629" y1="59.31" x2="79.1373" y2="59.2647" gradientUnits="userSpaceOnUse">
<stop stop-color="#8F6D55"/>
<stop offset="1" stop-color="#4D4444"/>
</linearGradient>
<linearGradient id="paint3_linear" x1="2.3629" y1="59.31" x2="79.1373" y2="59.2647" gradientUnits="userSpaceOnUse">
<stop stop-color="#8F6D55"/>
<stop offset="1" stop-color="#4D4444"/>
</linearGradient>
</defs>
</svg>
