<svg width="82" height="110" viewBox="0 0 82 110" fill="none" xmlns="http://www.w3.org/2000/svg">
<path d="M7.77072 13.997C7.89312 13.997 8.01052 13.9484 8.09707 13.8619C8.18363 13.7753 8.23225 13.6579 8.23225 13.5355V6.84319H14.9246C15.047 6.84319 15.1644 6.79456 15.2509 6.708C15.3375 6.62145 15.3861 6.50405 15.3861 6.38165C15.3861 6.25924 15.3375 6.14184 15.2509 6.05529C15.1644 5.96873 15.047 5.92011 14.9246 5.92011H7.77072C7.64831 5.92011 7.53091 5.96873 7.44436 6.05529C7.3578 6.14184 7.30918 6.25924 7.30918 6.38165V13.5355C7.30918 13.6579 7.3578 13.7753 7.44436 13.8619C7.53091 13.9484 7.64831 13.997 7.77072 13.997Z" fill="url(#paint0_linear)"/>
<path d="M18.3121 6.84318H20.4629C20.5853 6.84318 20.7027 6.79456 20.7892 6.708C20.8758 6.62145 20.9244 6.50405 20.9244 6.38165C20.9244 6.25924 20.8758 6.14184 20.7892 6.05529C20.7027 5.96873 20.5853 5.92011 20.4629 5.92011H18.3121C18.1897 5.92011 18.0723 5.96873 17.9858 6.05529C17.8992 6.14184 17.8506 6.25924 17.8506 6.38165C17.8506 6.50405 17.8992 6.62145 17.9858 6.708C18.0723 6.79456 18.1897 6.84318 18.3121 6.84318Z" fill="url(#paint1_linear)"/>
<path d="M7.77072 19.5355C7.89312 19.5355 8.01052 19.4869 8.09707 19.4003C8.18363 19.3138 8.23225 19.1964 8.23225 19.074V16.9232C8.23225 16.8008 8.18363 16.6834 8.09707 16.5968C8.01052 16.5103 7.89312 16.4617 7.77072 16.4617C7.64831 16.4617 7.53091 16.5103 7.44436 16.5968C7.3578 16.6834 7.30918 16.8008 7.30918 16.9232V19.074C7.30918 19.1964 7.3578 19.3138 7.44436 19.4003C7.53091 19.4869 7.64831 19.5355 7.77072 19.5355Z" fill="url(#paint2_linear)"/>
<path d="M74.2322 94.7663C74.1098 94.7663 73.9924 94.8149 73.9059 94.9014C73.8193 94.988 73.7707 95.1054 73.7707 95.2278V101.92H67.0784C66.956 101.92 66.8386 101.969 66.752 102.055C66.6655 102.142 66.6169 102.259 66.6169 102.382C66.6169 102.504 66.6655 102.621 66.752 102.708C66.8386 102.795 66.956 102.843 67.0784 102.843H74.2322C74.3546 102.843 74.472 102.795 74.5586 102.708C74.6451 102.621 74.6938 102.504 74.6938 102.382V95.2278C74.6938 95.1054 74.6451 94.988 74.5586 94.9014C74.472 94.8149 74.3546 94.7663 74.2322 94.7663Z" fill="url(#paint3_linear)"/>
<path d="M63.6907 101.92H61.54C61.4176 101.92 61.3002 101.969 61.2136 102.055C61.127 102.142 61.0784 102.259 61.0784 102.382C61.0784 102.504 61.127 102.621 61.2136 102.708C61.3002 102.795 61.4176 102.843 61.54 102.843H63.6907C63.8131 102.843 63.9305 102.795 64.0171 102.708C64.1036 102.621 64.1523 102.504 64.1523 102.382C64.1523 102.259 64.1036 102.142 64.0171 102.055C63.9305 101.969 63.8131 101.92 63.6907 101.92Z" fill="url(#paint4_linear)"/>
<path d="M74.2322 89.2278C74.1098 89.2278 73.9924 89.2764 73.9059 89.363C73.8193 89.4495 73.7707 89.5669 73.7707 89.6893V91.8493C73.7707 91.9717 73.8193 92.0891 73.9059 92.1757C73.9924 92.2622 74.1098 92.3109 74.2322 92.3109C74.3546 92.3109 74.472 92.2622 74.5586 92.1757C74.6451 92.0891 74.6938 91.9717 74.6938 91.8493V89.6893C74.6938 89.5669 74.6451 89.4495 74.5586 89.363C74.472 89.2764 74.3546 89.2278 74.2322 89.2278Z" fill="url(#paint5_linear)"/>
<path d="M80.2323 0.538574H1.77073C1.52592 0.538574 1.29113 0.635827 1.11802 0.808937C0.944908 0.982048 0.847656 1.21684 0.847656 1.46165V108.539C0.847656 108.783 0.944908 109.018 1.11802 109.191C1.29113 109.364 1.52592 109.462 1.77073 109.462H80.2323C80.4771 109.462 80.7119 109.364 80.885 109.191C81.0581 109.018 81.1553 108.783 81.1553 108.539V1.46165C81.1553 1.21684 81.0581 0.982048 80.885 0.808937C80.7119 0.635827 80.4771 0.538574 80.2323 0.538574ZM79.3092 107.616H2.69381V2.38473H79.3092V107.616Z" fill="url(#paint6_linear)"/>
<path d="M43.3276 99.8893C43.3646 99.9361 43.4107 99.9749 43.463 100.003C43.5153 100.032 43.5729 100.05 43.6323 100.055H43.6784C43.7854 100.056 43.8894 100.02 43.9738 99.954L74.6846 74.6709C74.7323 74.6324 74.7719 74.5848 74.801 74.5309C74.8302 74.477 74.8483 74.4178 74.8543 74.3567C74.8603 74.2957 74.8541 74.2341 74.8361 74.1755C74.818 74.1169 74.7885 74.0625 74.7492 74.0155L69.543 67.6924C69.7276 67.6186 69.8938 67.5355 70.0599 67.4524C71.343 66.7878 72.0538 65.9847 72.0538 65.154C72.0587 65.1141 72.0587 65.0738 72.0538 65.034L66.5153 12.3447C66.423 11.4216 65.5923 10.7478 64.0692 10.3509C62.4678 9.96845 60.8111 9.87467 59.1769 10.074C55.8261 10.434 52.383 11.8093 52.4661 13.7201C52.4661 13.7201 52.4661 13.7663 52.4661 13.7847V13.877L52.7892 16.9324L17.7123 25.0463C17.653 25.0583 17.597 25.0826 17.5477 25.1176C17.4985 25.1526 17.457 25.1974 17.4261 25.2493C17.3631 25.3513 17.3432 25.4742 17.3707 25.5909L21.5246 43.7293L7.31841 55.4247C7.27096 55.4624 7.23154 55.5091 7.2025 55.5623C7.17347 55.6154 7.1554 55.6739 7.14937 55.7341C7.14335 55.7944 7.14948 55.8553 7.16742 55.9131C7.18536 55.9709 7.21473 56.0246 7.25379 56.0709L43.3276 99.8893ZM71.1123 65.034C71.1123 65.034 71.1123 65.034 71.1123 65.0893C71.1262 65.2595 71.0732 65.4284 70.9646 65.5601C70.6184 66.0304 70.1533 66.4 69.6169 66.6309C69.3858 66.7483 69.1485 66.853 68.9061 66.9447C68.7609 67.0167 68.6095 67.0754 68.4538 67.1201C68.3061 67.1755 68.1492 67.2309 67.983 67.277C67.0776 67.5389 66.151 67.7212 65.2138 67.8216C63.6941 68.0108 62.1529 67.9264 60.663 67.5724C60.093 67.4559 59.5622 67.1953 59.1215 66.8155C58.9979 66.701 58.9166 66.5481 58.8907 66.3817C58.8772 66.2087 58.93 66.0371 59.0384 65.9016C59.3857 65.4347 59.8508 65.0684 60.3861 64.8401C61.7716 64.1853 63.2625 63.7821 64.7892 63.6493H66.4784C67.4426 63.6357 68.4045 63.7474 69.3399 63.9817C69.9058 64.1023 70.4326 64.3625 70.8722 64.7386C70.9719 64.8193 71.0536 64.9199 71.1123 65.034ZM64.2353 70.3509C64.2102 70.6078 64.1221 70.8545 63.9788 71.0692C63.8355 71.2839 63.6414 71.4599 63.4138 71.5817C63.1862 71.7035 62.9321 71.7672 62.674 71.7673C62.4159 71.7673 62.1617 71.7038 61.9341 71.5821C61.7064 71.4605 61.5123 71.2846 61.3688 71.0699C61.2254 70.8553 61.1372 70.6086 61.1119 70.3518C61.0866 70.0949 61.1251 69.8357 61.2239 69.5973C61.3227 69.3588 61.4788 69.1484 61.6784 68.9847C61.7975 68.8871 61.9315 68.8092 62.0753 68.754C62.5291 68.8026 62.9851 68.8272 63.4415 68.8278C63.6146 68.9167 63.7659 69.0428 63.8846 69.197C64.018 69.3556 64.1179 69.5397 64.1782 69.738C64.2385 69.9363 64.2579 70.1448 64.2353 70.3509ZM58.6969 67.7847C59.0744 68.2649 59.2488 68.8739 59.1826 69.4812C59.1164 70.0884 58.815 70.6456 58.3428 71.0332C57.8707 71.4208 57.2655 71.608 56.657 71.5546C56.0485 71.5013 55.4851 71.2116 55.0876 70.7478C54.6997 70.2675 54.5142 69.6549 54.5707 69.0401C54.5992 68.7345 54.6881 68.4376 54.8323 68.1666C54.9765 67.8956 55.1731 67.656 55.4107 67.4616C55.8276 67.12 56.3487 66.9311 56.8876 66.9263H57.1184C57.4307 66.9513 57.7346 67.0405 58.0109 67.1882C58.2873 67.3359 58.5302 67.5389 58.7246 67.7847H58.6969ZM57.9399 57.3724L57.8846 56.9109V56.4493L57.7092 54.7416L57.6169 53.9109L57.5338 53.0801L54.8476 27.557L59.7122 55.7293V56.0155L59.7953 56.4678V56.9293L59.9061 57.5663L60.5061 61.0555C60.5144 61.1184 60.5371 61.1786 60.5723 61.2314C60.6075 61.2842 60.6543 61.3282 60.7092 61.3601C60.7611 61.3959 60.8201 61.4202 60.8822 61.4313C60.9443 61.4424 61.008 61.4402 61.0692 61.4247C61.6567 61.2912 62.2516 61.1925 62.8507 61.1293L63.4046 61.074H63.9676C65.7215 60.9724 67.8907 61.074 69.3676 62.154C69.8327 62.4747 70.218 62.8978 70.4938 63.3909C70.1674 63.2369 69.8275 63.1133 69.4784 63.0217C68.1144 62.688 66.7052 62.5789 65.3061 62.6986C65.1215 62.6986 64.9369 62.6986 64.743 62.7447H64.5861L64.1984 62.7909C62.6929 62.956 61.2261 63.3742 59.8599 64.0278C59.419 64.2499 59.0093 64.5293 58.6415 64.8586L57.9399 57.3724ZM53.3246 13.6555C53.2692 12.6678 55.7615 11.3293 59.2138 10.9601C59.7778 10.8981 60.3448 10.8673 60.9123 10.8678C61.8764 10.8547 62.8383 10.9664 63.7738 11.2001C64.8353 11.4863 65.4999 11.9386 65.5461 12.4001L70.7615 62.0801C70.6198 61.9292 70.4687 61.7874 70.3092 61.6555C70.1984 61.5632 70.0969 61.4801 69.9769 61.397C68.0753 60.0586 65.2876 60.0032 63.3122 60.1786L62.7676 60.2432L62.2323 60.317L61.4107 60.4555L61.1615 59.0247L60.8476 57.1786L60.7646 56.717L60.6907 56.2555L60.6076 55.8124L54.0815 17.754V17.5878L54.0076 17.1263L53.9246 16.674L53.8415 16.1663L53.4076 13.6832L53.3246 13.6555ZM18.3399 25.8309L52.8815 17.8555L56.4446 51.7878L45.5153 38.5232C45.821 37.0602 45.5987 35.5363 44.8876 34.2216L40.7799 26.1355C40.7361 26.043 40.6615 25.9685 40.569 25.9248C40.4764 25.881 40.3716 25.8707 40.2723 25.8955L34.3553 27.3078C34.2558 27.3302 34.1665 27.3849 34.1014 27.4634C34.0363 27.5419 33.999 27.6397 33.9953 27.7417L33.903 33.5847L22.3184 43.074L18.3399 25.8309ZM34.8815 30.3447V28.074L40.0876 26.874L41.1215 28.8955L34.8815 30.3447ZM37.2999 30.7417L34.8353 32.7724V31.2955L37.2999 30.7417ZM41.583 29.754L44.0753 34.6463C44.5417 35.553 44.7734 36.5623 44.7492 37.5816L38.823 30.3909L41.583 29.754ZM21.7553 44.7355L22.1523 44.4032L22.5492 44.0801L33.8846 34.757L34.3461 34.3693L34.8169 33.9816L38.2323 31.1478L44.4261 38.6709L44.7492 39.0586L45.0538 39.437L56.5923 53.4493L56.9246 56.6617L56.9799 57.114V57.5847L57.903 66.474C57.9082 66.5535 57.927 66.6315 57.9584 66.7047C57.6894 66.5848 57.4025 66.51 57.1092 66.4832C56.743 66.4464 56.3732 66.483 56.0214 66.5908C55.6695 66.6985 55.3427 66.8754 55.06 67.1109C54.4949 67.5701 54.1334 68.2333 54.0538 68.957C54.017 69.3232 54.0536 69.693 54.1614 70.0448C54.2691 70.3967 54.4459 70.7235 54.6815 71.0063C55.1407 71.5713 55.8039 71.9328 56.5276 72.0124H56.8046C57.2769 72.0346 57.7469 71.9355 58.1701 71.7245C58.5932 71.5136 58.9553 71.1978 59.2218 70.8073C59.4883 70.4167 59.6504 69.9645 59.6926 69.4935C59.7349 69.0226 59.6558 68.5487 59.463 68.117C59.7597 68.2612 60.0686 68.3786 60.3861 68.4678C60.6901 68.5465 60.9983 68.6082 61.3092 68.6524C60.9944 68.9224 60.7698 69.2823 60.6656 69.6837C60.5613 70.0851 60.5825 70.5088 60.7263 70.8978C60.87 71.2868 61.1294 71.6225 61.4696 71.8597C61.8098 72.0969 62.2145 72.2243 62.6292 72.2247C63.1008 72.2278 63.5585 72.0644 63.9215 71.7632C64.1296 71.5971 64.3016 71.3902 64.427 71.1553C64.5524 70.9204 64.6285 70.6624 64.6507 70.397C64.6773 70.1303 64.651 69.8609 64.5734 69.6043C64.4958 69.3477 64.3683 69.109 64.1984 68.9016L64.1615 68.8463C64.5399 68.8463 64.9369 68.8463 65.3338 68.7632C66.4547 68.6563 67.56 68.4241 68.6292 68.0709L73.743 74.274L43.7707 98.9478L8.25995 55.8401L21.7553 44.7355Z" fill="url(#paint7_linear)"/>
<path d="M43.3275 63.1324C42.7202 62.4138 42.0075 61.7914 41.2137 61.2863C41.0198 61.1663 40.826 61.0463 40.6321 60.9447C40.4234 60.8242 40.2076 60.7163 39.986 60.6217C38.4127 59.9097 36.6712 59.6535 34.9595 59.8819C33.2478 60.1103 31.6344 60.8144 30.3029 61.914C29.8533 62.2774 29.442 62.6856 29.0752 63.1324C28.9183 63.317 28.7798 63.5017 28.6321 63.7047C28.4974 63.8845 28.3741 64.0726 28.2629 64.2678C27.0672 66.1394 26.5865 68.3794 26.9088 70.5768C27.2311 72.7743 28.3349 74.7818 30.0176 76.2313C31.7004 77.6807 33.8494 78.4748 36.0703 78.468C38.2912 78.4611 40.4352 77.6537 42.109 76.194C43.0518 75.4199 43.8318 74.4666 44.4039 73.3893C44.976 72.3119 45.3289 71.1319 45.4422 69.9173C45.5555 68.7027 45.427 67.4778 45.064 66.3132C44.701 65.1486 44.1108 64.0675 43.3275 63.1324ZM29.3983 74.597C28.1914 73.1332 27.4906 71.3181 27.4008 69.423C27.311 67.5279 27.8368 65.6546 28.8998 64.0832C29.0309 63.8796 29.1759 63.6853 29.3337 63.5017C29.4966 63.294 29.6723 63.0967 29.8598 62.9109C30.6715 62.0556 31.6494 61.3753 32.7336 60.9118C33.8178 60.4483 34.9853 60.2113 36.1644 60.2155C36.4598 60.2155 36.746 60.2155 37.0321 60.2155C37.7765 60.2831 38.5088 60.4475 39.2106 60.7047C39.4621 60.7927 39.7086 60.8944 39.949 61.0094C40.1614 61.1109 40.3644 61.2217 40.5675 61.3417C41.4873 61.8666 42.3037 62.5547 42.9767 63.3724C44.4652 65.173 45.1774 67.4912 44.9567 69.8169C44.736 72.1427 43.6004 74.2855 41.7998 75.774C39.9992 77.2624 37.681 77.9747 35.3553 77.7539C33.0296 77.5332 30.8868 76.3977 29.3983 74.597Z" fill="url(#paint8_linear)"/>
<path d="M42.6446 66.9263L43.3092 66.3817C43.3523 66.3391 43.3813 66.2843 43.3923 66.2247C43.3937 66.1646 43.3741 66.1058 43.3369 66.0586L40.503 62.6063C40.4823 62.5842 40.4573 62.5666 40.4295 62.5546C40.4017 62.5425 40.3718 62.5363 40.3415 62.5363C40.3112 62.5363 40.2813 62.5425 40.2535 62.5546C40.2257 62.5666 40.2007 62.5842 40.18 62.6063L39.5153 63.1509C38.706 62.695 37.8095 62.415 36.8846 62.3294C35.413 62.179 33.933 62.5198 32.6753 63.2986C32.4069 63.4611 32.1509 63.6431 31.9092 63.8432C30.8502 64.7153 30.0791 65.8869 29.697 67.2045C29.3149 68.5221 29.3395 69.9244 29.7677 71.2278L29.1123 71.7724C29.0863 71.7895 29.0651 71.8128 29.0506 71.8402C29.0361 71.8677 29.0287 71.8983 29.0292 71.9293C29.0254 71.9587 29.0275 71.9886 29.0354 72.0171C29.0434 72.0456 29.0569 72.0723 29.0753 72.0955L31.9553 75.594C31.9768 75.6197 32.0036 75.6405 32.0339 75.6548C32.0642 75.6692 32.0972 75.6768 32.1307 75.677C32.1852 75.6782 32.2381 75.6584 32.2784 75.6217L32.9338 75.077C33.747 75.5317 34.6462 75.8115 35.5738 75.8986C35.7951 75.9124 36.0171 75.9124 36.2384 75.8986C37.8128 75.9033 39.3387 75.3544 40.5492 74.3478C41.6085 73.4681 42.3759 72.2877 42.75 70.9626C43.1242 69.6375 43.0874 68.23 42.6446 66.9263ZM29.9246 68.4032C30.0739 66.837 30.8016 65.3828 31.9658 64.3245C33.1299 63.2662 34.6467 62.6799 36.22 62.6801C36.423 62.6801 36.6353 62.6801 36.8384 62.6801C37.6417 62.7502 38.423 62.9792 39.1369 63.354L30.1553 70.7386C29.9319 69.9816 29.8536 69.1892 29.9246 68.4032ZM30.063 72.437L29.583 71.8555L29.943 71.5601L30.1277 71.4124L30.3123 71.2555L39.543 63.6309L39.7276 63.474L39.9215 63.317L40.2723 63.0309L40.7523 63.6124L40.5492 63.7878L40.3646 63.9355L40.1892 64.0832L30.5892 71.9663L30.4046 72.1232L30.22 72.2709L30.063 72.437ZM32.8507 74.3847L32.6661 74.5417L32.4723 74.6894L32.1215 74.9847L30.2753 72.7878L30.4323 72.6678L30.6077 72.5109L30.7923 72.3632L40.4753 64.3878L40.66 64.2309L40.8353 64.0924L40.9923 63.9632L42.8384 66.1601L42.4784 66.4555L42.2938 66.6124L42.1 66.7601L32.8507 74.3847ZM40.2353 73.8955C39.279 74.6841 38.1117 75.1738 36.8789 75.3035C35.6462 75.4331 34.4025 75.1971 33.303 74.6247L42.2846 67.2401C42.4574 67.8087 42.5445 68.3998 42.543 68.994C42.5429 69.9346 42.3333 70.8633 41.9293 71.7128C41.5253 72.5622 40.9372 73.311 40.2076 73.9047L40.2353 73.8955Z" fill="url(#paint9_linear)"/>
<path d="M42.7368 52.9786C42.8853 53.0326 43.0205 53.1176 43.1337 53.2278L43.1984 53.2832L43.503 53.6709L43.8168 54.077L44.0845 54.4924L47.463 58.8401L47.6014 59.1816L47.6937 59.3109C47.7951 59.4361 47.8619 59.5857 47.8876 59.7447C47.8921 59.7691 47.8921 59.7942 47.8876 59.8186L50.1122 62.5232C50.8691 62.2093 51.4137 62.5786 51.8476 63.1324L52.1337 63.5201L53.6291 65.5509C53.6714 65.594 53.6951 65.652 53.6951 65.7124C53.6951 65.7728 53.6714 65.8308 53.6291 65.874C53.584 65.8876 53.5358 65.8876 53.4907 65.874C53.4548 65.874 53.4195 65.8656 53.3875 65.8496C53.3554 65.8336 53.3276 65.8103 53.3061 65.7816L51.9584 63.9355L51.6445 64.1847L53.0845 66.0309C53.1066 66.0516 53.1242 66.0766 53.1362 66.1044C53.1482 66.1322 53.1544 66.1621 53.1544 66.1924C53.1544 66.2227 53.1482 66.2526 53.1362 66.2804C53.1242 66.3082 53.1066 66.3332 53.0845 66.354C53.0433 66.3892 52.991 66.4088 52.9368 66.4093C52.9027 66.4073 52.8694 66.3981 52.8392 66.3821C52.8089 66.3662 52.7824 66.344 52.7614 66.317L51.3214 64.4709L51.0076 64.7386L52.5122 66.4924C52.5343 66.5131 52.5519 66.5382 52.5639 66.5659C52.5759 66.5937 52.5821 66.6237 52.5821 66.654C52.5821 66.6842 52.5759 66.7142 52.5639 66.742C52.5519 66.7698 52.5343 66.7948 52.5122 66.8155C52.4941 66.8367 52.4714 66.8536 52.4458 66.8648C52.4202 66.876 52.3924 66.8812 52.3645 66.8801C52.331 66.8798 52.298 66.8722 52.2677 66.8579C52.2374 66.8436 52.2106 66.8228 52.1891 66.797L50.6753 65.034L50.3707 65.2832L51.9122 66.9632C51.9551 67.0079 51.979 67.0674 51.979 67.1293C51.979 67.1913 51.9551 67.2508 51.9122 67.2955C51.8678 67.3314 51.8124 67.3509 51.7553 67.3509C51.7224 67.3524 51.6896 67.3465 51.6593 67.3337C51.6289 67.321 51.6018 67.3016 51.5799 67.277L49.8907 65.4309L49.5768 65.0893C49.1153 64.517 48.8107 63.917 49.3091 63.2432L47.0014 60.5293C46.7682 60.4565 46.5644 60.3109 46.4199 60.114L46.3461 60.0309L46.0045 59.6339L45.663 59.2463L41.9707 54.9724L41.6291 54.5847C41.5067 54.4447 41.4295 54.2709 41.4076 54.0863C41.3938 54.0038 41.3938 53.9195 41.4076 53.837C41.4235 53.7057 41.461 53.5778 41.5183 53.4586C41.5831 53.338 41.6709 53.2314 41.7768 53.1447C41.8724 53.0685 41.9823 53.012 42.0999 52.9786C42.233 52.9316 42.3751 52.9158 42.5153 52.9324L42.7368 52.9786Z" fill="url(#paint10_linear)"/>
<path d="M48.3862 84.0401L51.0539 81.7694C51.2897 81.9149 51.5614 81.9916 51.8385 81.9909C52.3822 81.9547 52.8969 81.7331 53.297 81.3632C54.137 80.6617 54.977 79.0832 54.3216 78.2801C54.1165 78.0879 53.8632 77.9547 53.5886 77.8946C53.314 77.8345 53.0283 77.8497 52.7616 77.9386C52.1559 78.0567 51.5867 78.316 51.1001 78.6955C50.1031 79.517 50.0662 80.274 50.2693 80.8186L47.5554 83.0801C47.3152 83.1111 47.0899 83.2141 46.9093 83.3755L41.0939 87.8801C40.9908 87.9656 40.9057 88.0705 40.8432 88.1889C40.7807 88.3073 40.7421 88.4368 40.7297 88.5701C40.7173 88.7034 40.7312 88.8378 40.7707 88.9657C40.8102 89.0936 40.8746 89.2125 40.96 89.3155C41.0455 89.4185 41.1504 89.5037 41.2688 89.5662C41.3872 89.6287 41.5167 89.6673 41.65 89.6797C41.7833 89.6921 41.9177 89.6782 42.0456 89.6387C42.1735 89.5991 42.2924 89.5348 42.3954 89.4494L47.9339 84.6217C48.1428 84.481 48.3013 84.2772 48.3862 84.0401ZM47.6662 84.2709L42.1277 89.0986C42.0133 89.1914 41.867 89.2356 41.7204 89.2218C41.5737 89.208 41.4382 89.1373 41.3431 89.0247C41.2526 88.9094 41.2097 88.7637 41.2235 88.6177C41.2372 88.4717 41.3065 88.3365 41.417 88.2401L47.2231 83.7447C47.3387 83.6325 47.4878 83.5612 47.6477 83.5417C47.6986 83.5592 47.7538 83.5592 47.8047 83.5417L50.7031 81.1417C50.7433 81.1093 50.7714 81.0645 50.7831 81.0143C50.7949 80.9641 50.7894 80.9115 50.7677 80.8647C50.4816 80.2924 50.7031 79.7109 51.4047 79.1386C51.8278 78.8046 52.3247 78.5767 52.8539 78.474C53.38 78.3724 53.777 78.474 53.9708 78.6586C54.0627 78.7804 54.1085 78.9308 54.1001 79.0832C53.9927 79.8503 53.6006 80.549 53.0016 81.0401C52.3 81.6217 51.6816 81.7232 51.1554 81.3355C51.1147 81.3033 51.0643 81.2858 51.0124 81.2858C50.9604 81.2858 50.91 81.3033 50.8693 81.3355L47.9616 83.7355C47.9175 83.7696 47.8878 83.819 47.8785 83.874C47.8417 84.0326 47.7502 84.1731 47.62 84.2709H47.6662Z" fill="url(#paint11_linear)"/>
<path d="M44.1214 78.917L52.5491 71.9847C52.5921 71.9502 52.6213 71.9015 52.6314 71.8473C52.6416 71.7931 52.632 71.7371 52.6045 71.6894C52.5446 71.595 52.4664 71.5136 52.3744 71.4502C52.2824 71.3867 52.1786 71.3425 52.0691 71.3201C51.3651 71.2244 50.6513 71.4028 50.0752 71.8186C48.3492 72.8598 46.7017 74.026 45.146 75.3078C44.9212 75.4554 44.7351 75.6549 44.6033 75.8894C44.4716 76.124 44.3981 76.3867 44.3891 76.6555C44.3922 76.7909 44.3618 76.9249 44.3006 77.0457C44.2394 77.1665 44.1493 77.2703 44.0383 77.3478L43.3368 77.9201C43.0965 77.9511 42.8712 78.0541 42.6906 78.2155L36.8845 82.7201C36.7814 82.805 36.6961 82.9093 36.6334 83.0271C36.5707 83.1449 36.5318 83.274 36.5189 83.4068C36.5061 83.5397 36.5195 83.6738 36.5585 83.8014C36.5974 83.9291 36.6611 84.0478 36.746 84.1509C36.8309 84.2539 36.9352 84.3392 37.053 84.402C37.1708 84.4647 37.2998 84.5036 37.4327 84.5164C37.5656 84.5293 37.6997 84.5158 37.8273 84.4769C37.955 84.4379 38.0737 84.3742 38.1768 84.2893L43.7152 79.4617C43.901 79.3238 44.0422 79.1344 44.1214 78.917ZM43.4106 79.1386L37.8722 83.9663C37.8158 84.0129 37.7508 84.048 37.6808 84.0696C37.6109 84.0911 37.5374 84.0987 37.4646 84.0918C37.3917 84.085 37.3209 84.0638 37.2562 84.0296C37.1915 83.9954 37.1342 83.9488 37.0875 83.8924C37.0409 83.8361 37.0058 83.771 36.9842 83.7011C36.9627 83.6312 36.9551 83.5577 36.962 83.4848C36.9688 83.412 36.99 83.3412 37.0242 83.2765C37.0584 83.2118 37.105 83.1545 37.1614 83.1078L42.9675 78.6032C43.0836 78.4932 43.233 78.425 43.3921 78.4093C43.4497 78.412 43.506 78.3921 43.5491 78.354L44.306 77.7355C44.4645 77.6175 44.5937 77.4645 44.6834 77.2883C44.773 77.1122 44.8208 76.9177 44.8229 76.7201C44.8254 76.513 44.881 76.3101 44.9845 76.1307C45.0879 75.9512 45.2357 75.8014 45.4137 75.6955C46.9472 74.4143 48.5731 73.2481 50.2783 72.2063C51.2752 71.634 51.7922 71.6893 52.0137 71.8001L43.706 78.6032C43.683 78.6189 43.6637 78.6395 43.6494 78.6634C43.635 78.6873 43.626 78.714 43.6229 78.7417C43.6005 78.8946 43.5254 79.035 43.4106 79.1386Z" fill="url(#paint12_linear)"/>
<path d="M46.1708 81.4001L47.5369 80.274C47.6476 80.2014 47.7744 80.1571 47.9062 80.1447C48.3117 80.0812 48.6867 79.8905 48.9769 79.6001C49.9 78.834 50.9892 77.754 52.1892 76.5632C52.9585 75.7878 53.3185 75.2432 53.2692 74.9293C53.2547 74.8711 53.2262 74.8172 53.1861 74.7724C52.9369 74.5601 52.2631 74.7724 51.2846 75.4647C49.8723 76.3878 48.6169 77.3109 47.6846 78.0401C47.3478 78.2651 47.0871 78.587 46.9369 78.9632C46.8835 79.1289 46.7843 79.2761 46.6508 79.3878L45.3861 80.4309C45.1459 80.4619 44.9206 80.5648 44.74 80.7263L38.9246 85.2309C38.7184 85.4035 38.5883 85.6502 38.5624 85.9179C38.5365 86.1856 38.6168 86.4527 38.7861 86.6617C38.9604 86.8685 39.2087 86.9988 39.4779 87.0247C39.7471 87.0506 40.0157 86.9699 40.2262 86.8001L45.7646 81.9632C45.955 81.8221 46.0969 81.6253 46.1708 81.4001ZM45.46 81.6309L39.9215 86.4586C39.866 86.5071 39.8014 86.5441 39.7314 86.5674C39.6614 86.5907 39.5874 86.5997 39.5139 86.594C39.4404 86.5883 39.3687 86.5679 39.3031 86.5341C39.2376 86.5004 39.1794 86.4538 39.1321 86.3973C39.0847 86.3407 39.0492 86.2753 39.0275 86.2048C39.0058 86.1343 38.9983 86.0601 39.0057 85.9867C39.013 85.9134 39.0349 85.8422 39.0701 85.7774C39.1054 85.7125 39.1532 85.6554 39.2108 85.6093L45.0169 81.1047C45.133 80.9948 45.2824 80.9266 45.4415 80.9109C45.4737 80.9129 45.5059 80.9083 45.5361 80.8971C45.5663 80.886 45.5938 80.8687 45.6169 80.8463L46.9554 79.7478C47.1447 79.5845 47.2879 79.3745 47.3708 79.1386C47.4869 78.8272 47.7006 78.5617 47.98 78.3817C48.9031 77.6247 50.14 76.7847 51.5431 75.834C51.9084 75.5726 52.3054 75.3586 52.7246 75.197C52.4815 75.5752 52.1932 75.9224 51.8661 76.2309C50.6661 77.4309 49.6046 78.4832 48.6815 79.2493C48.4498 79.4795 48.1537 79.634 47.8323 79.6924C47.6307 79.7126 47.4373 79.7824 47.2692 79.8955L45.82 81.0955C45.7759 81.1295 45.7462 81.179 45.7369 81.234C45.6946 81.3949 45.5965 81.5356 45.46 81.6309Z" fill="url(#paint13_linear)"/>
<path d="M25.5492 59.1632L25.9461 58.8124L26.3431 58.4709C26.5402 58.3206 26.688 58.1149 26.7677 57.8801L29.4631 55.6555C29.7285 55.8472 30.0565 55.9318 30.3815 55.8925C30.7066 55.8531 31.0049 55.6927 31.2169 55.4432C31.3672 55.3272 31.5091 55.2007 31.6415 55.0647L33.9954 52.9509C34.0376 52.9077 34.0613 52.8498 34.0613 52.7893C34.0613 52.7289 34.0376 52.6709 33.9954 52.6278C33.9507 52.5849 33.8911 52.561 33.8292 52.561C33.7673 52.561 33.7077 52.5849 33.6631 52.6278L31.4938 54.594L31.2354 54.2801L33.4969 52.3509C33.5371 52.3067 33.5594 52.2491 33.5594 52.1894C33.5594 52.1296 33.5371 52.072 33.4969 52.0278C33.4754 52.0055 33.4496 51.9877 33.421 51.9756C33.3925 51.9634 33.3618 51.9572 33.3307 51.9572C33.2997 51.9572 33.269 51.9634 33.2405 51.9756C33.2119 51.9877 33.1861 52.0055 33.1646 52.0278L30.9123 53.9478L30.6446 53.6247L32.9615 51.7786C32.9836 51.7579 33.0012 51.7328 33.0132 51.7051C33.0252 51.6773 33.0315 51.6473 33.0315 51.617C33.0315 51.5868 33.0252 51.5568 33.0132 51.529C33.0012 51.5012 32.9836 51.4762 32.9615 51.4555C32.9184 51.4132 32.8604 51.3895 32.8 51.3895C32.7396 51.3895 32.6816 51.4132 32.6384 51.4555L30.3123 53.3017L30.0538 52.9786L32.3984 51.2247C32.4205 51.204 32.4381 51.179 32.4501 51.1512C32.4622 51.1234 32.4684 51.0935 32.4684 51.0632C32.4684 51.0329 32.4622 51.003 32.4501 50.9752C32.4381 50.9474 32.4205 50.9224 32.3984 50.9017C32.3553 50.8594 32.2973 50.8357 32.2369 50.8357C32.1765 50.8357 32.1185 50.8594 32.0754 50.9017L29.3061 52.9509L29.1031 53.1078C28.5584 53.5509 28.18 54.0863 28.5215 54.8247L25.8169 57.0493C25.6632 57.0661 25.5151 57.1165 25.3831 57.197C25.3051 57.2398 25.231 57.2892 25.1615 57.3447L24.9769 57.4924L24.58 57.797L19.3554 61.8493C19.2028 61.9785 19.0913 62.1494 19.0347 62.3411C18.978 62.5328 18.9787 62.7369 19.0366 62.9282C19.0945 63.1195 19.207 63.2897 19.3604 63.4179C19.5139 63.546 19.7014 63.6265 19.9 63.6493H20.0015C20.2403 63.6519 20.4724 63.5702 20.6569 63.4186L24.9954 59.6247L25.5492 59.1632ZM20.5184 62.9478C20.4625 62.9944 20.3976 63.029 20.3277 63.0497C20.2579 63.0703 20.1846 63.0765 20.1123 63.0678C19.967 63.0493 19.8344 62.9758 19.7417 62.8625C19.649 62.7492 19.6032 62.6046 19.6138 62.4586C19.6288 62.3152 19.6982 62.1831 19.8077 62.0893L24.8569 58.1755L25.2538 57.8617L25.6138 57.5847C25.6138 57.5847 25.6138 57.5847 25.66 57.5847C25.7684 57.4898 25.9042 57.4317 26.0477 57.4186C26.105 57.4203 26.161 57.4005 26.2046 57.3632L29.1123 54.9724C29.156 54.9364 29.1855 54.886 29.1957 54.8302C29.2058 54.7745 29.1959 54.7169 29.1677 54.6678C28.8723 54.197 28.9554 53.8555 29.5554 53.3663L29.7677 53.2093L30.0354 53.5324L30.3307 53.8924L30.6077 54.2247L30.8938 54.5847L31.1615 54.9078L30.9677 55.0832C30.3769 55.5817 30.0446 55.6001 29.62 55.2124C29.577 55.1772 29.5232 55.1579 29.4677 55.1579C29.4121 55.1579 29.3583 55.1772 29.3154 55.2124L26.3984 57.6032C26.3569 57.6433 26.328 57.6946 26.3154 57.7509C26.2723 57.9115 26.1743 58.052 26.0384 58.1478L25.8261 58.3324L25.4292 58.6832L25.0415 59.0247L20.5184 62.9478Z" fill="url(#paint14_linear)"/>
<path d="M24.1738 55.2217C24.2446 55.1308 24.2979 55.0275 24.3307 54.9171L24.9399 54.4186L26.2322 53.3847C26.4014 53.5158 26.6091 53.5872 26.823 53.5878C27.176 53.5635 27.5063 53.405 27.7461 53.1447L27.8107 53.0986L27.9861 52.9417L28.1245 52.8124L30.2661 50.8924C30.2895 50.8725 30.3082 50.8477 30.3211 50.8198C30.334 50.792 30.3406 50.7616 30.3406 50.7309C30.3406 50.7002 30.334 50.6698 30.3211 50.6419C30.3082 50.614 30.2895 50.5893 30.2661 50.5694C30.2454 50.5473 30.2203 50.5297 30.1926 50.5177C30.1648 50.5056 30.1348 50.4994 30.1045 50.4994C30.0743 50.4994 30.0443 50.5056 30.0165 50.5177C29.9888 50.5297 29.9637 50.5473 29.943 50.5694L27.9769 52.3324L27.7922 52.1109L29.8045 50.3847C29.8474 50.34 29.8714 50.2805 29.8714 50.2186C29.8714 50.1567 29.8474 50.0971 29.8045 50.0524C29.7589 50.0116 29.6997 49.989 29.6384 49.989C29.5771 49.989 29.5179 50.0116 29.4722 50.0524L27.4415 51.7878L27.2384 51.5478L29.3338 49.8863C29.3758 49.8466 29.4014 49.7926 29.4056 49.7349C29.4097 49.6772 29.392 49.6201 29.356 49.5749C29.3201 49.5296 29.2684 49.4995 29.2113 49.4905C29.1542 49.4815 29.0958 49.4943 29.0476 49.5263L26.9522 51.197L26.7676 50.9663L28.8815 49.3786C28.9205 49.3695 28.9565 49.3505 28.9859 49.3233C29.0153 49.2961 29.0372 49.2617 29.0493 49.2235C29.0614 49.1853 29.0633 49.1447 29.055 49.1055C29.0466 49.0663 29.0281 49.03 29.0015 49.0001C28.9558 48.9593 28.8966 48.9367 28.8353 48.9367C28.774 48.9367 28.7149 48.9593 28.6692 49.0001L26.3799 50.7355L26.2599 50.8186C26.1818 50.868 26.1077 50.9235 26.0384 50.9847C25.5676 51.3355 25.1153 51.797 25.4476 52.4801L24.6722 53.117L24.2661 53.4494L23.8784 53.7724L23.583 54.0124C23.3432 54.0451 23.1184 54.1478 22.9369 54.3078L17.1307 58.8124C17.0275 58.8972 16.9421 59.0015 16.8793 59.1193C16.8165 59.2372 16.7776 59.3662 16.7647 59.4991C16.7519 59.632 16.7653 59.7661 16.8044 59.8938C16.8434 60.0215 16.9073 60.1402 16.9922 60.2432C17.0859 60.3609 17.2053 60.4555 17.3414 60.5195C17.4775 60.5835 17.6265 60.6153 17.7769 60.6124C18.0154 60.6134 18.2469 60.5319 18.4322 60.3817L23.9707 55.554C24.0549 55.4542 24.1234 55.3421 24.1738 55.2217ZM23.6107 55.157L18.0722 59.9847C18.0159 60.0314 17.9509 60.0665 17.8809 60.0881C17.811 60.1096 17.7375 60.1172 17.6646 60.1103C17.5918 60.1035 17.521 60.0823 17.4563 60.0481C17.3916 60.0139 17.3343 59.9673 17.2876 59.9109C17.241 59.8545 17.2058 59.7895 17.1843 59.7196C17.1628 59.6497 17.1552 59.5762 17.1621 59.5033C17.1689 59.4304 17.19 59.3597 17.2243 59.295C17.2585 59.2303 17.3051 59.173 17.3615 59.1263L23.1676 54.6217C23.2862 54.5044 23.4441 54.4354 23.6107 54.4278C23.6676 54.4265 23.7225 54.4071 23.7676 54.3724L23.9338 54.234L24.3307 53.9109L24.7369 53.5786L25.8169 52.6555C25.8478 52.6265 25.8708 52.5901 25.8837 52.5497C25.8966 52.5093 25.899 52.4663 25.8907 52.4247C25.897 52.4068 25.897 52.3873 25.8907 52.3694C25.6784 51.9909 25.7522 51.7417 26.2784 51.3355L26.4353 51.2155L26.6292 51.4463L26.9153 51.8063L27.1276 52.0555L27.423 52.4155L27.6169 52.6555L27.4692 52.7847C26.9522 53.237 26.703 53.2555 26.3615 52.9417C26.3314 52.9324 26.2992 52.9324 26.2692 52.9417H26.1307L24.9307 53.9201L24.5338 54.2524L24.1369 54.5755H24.0815C24.0367 54.613 24.0072 54.6655 23.9984 54.7232C23.968 54.8188 23.9178 54.9068 23.851 54.9816C23.7842 55.0564 23.7023 55.1162 23.6107 55.157Z" fill="url(#paint15_linear)"/>
<path d="M28.2539 61.1847L30.6723 59.1909C30.8424 59.3201 31.0495 59.3913 31.2631 59.394C31.6409 59.3565 31.9921 59.1826 32.2508 58.9047L32.4262 58.7478L32.5646 58.6186L34.7062 56.6986C34.7485 56.6554 34.7722 56.5974 34.7722 56.537C34.7722 56.4766 34.7485 56.4186 34.7062 56.3755C34.6847 56.3532 34.6589 56.3354 34.6303 56.3233C34.6018 56.3111 34.5711 56.3049 34.54 56.3049C34.509 56.3049 34.4783 56.3111 34.4498 56.3233C34.4212 56.3354 34.3954 56.3532 34.3739 56.3755L32.4077 58.1386L32.2231 57.917L34.2631 56.1817C34.2854 56.1601 34.3032 56.1343 34.3153 56.1058C34.3275 56.0772 34.3337 56.0465 34.3337 56.0155C34.3337 55.9845 34.3275 55.9538 34.3153 55.9252C34.3032 55.8967 34.2854 55.8709 34.2631 55.8493C34.2189 55.8091 34.1613 55.7868 34.1016 55.7868C34.0418 55.7868 33.9842 55.8091 33.94 55.8493L31.9093 57.5847L31.7708 57.2986L33.857 55.637C33.8836 55.6194 33.9062 55.5963 33.9235 55.5694C33.9407 55.5425 33.9522 55.5123 33.9572 55.4808C33.9621 55.4492 33.9605 55.4169 33.9524 55.386C33.9442 55.3551 33.9297 55.3263 33.9099 55.3013C33.89 55.2762 33.8651 55.2556 33.8368 55.2407C33.8086 55.2258 33.7775 55.217 33.7457 55.2147C33.7138 55.2124 33.6818 55.2168 33.6517 55.2275C33.6216 55.2382 33.594 55.2551 33.5708 55.277L31.4846 56.9386L31.2908 56.717L33.4046 55.1293C33.4536 55.0926 33.486 55.038 33.4946 54.9774C33.5033 54.9168 33.4875 54.8552 33.4508 54.8063C33.4141 54.7573 33.3594 54.7249 33.2988 54.7163C33.2382 54.7076 33.1767 54.7234 33.1277 54.7601L30.8477 56.4955L30.5062 56.7447C30.0446 57.0955 29.5831 57.557 29.9246 58.2401L27.5062 60.2247C27.2659 60.2557 27.0407 60.3587 26.86 60.5201L26.0477 61.1478L21.7739 64.4247C21.5688 64.6002 21.4398 64.8484 21.4139 65.117C21.4012 65.2505 21.4151 65.3851 21.4547 65.5132C21.4943 65.6413 21.5588 65.7602 21.6447 65.8632C21.7305 65.9662 21.8358 66.0511 21.9547 66.1132C22.0735 66.1752 22.2034 66.2132 22.337 66.2247H22.4385C22.6745 66.2275 22.9038 66.1456 23.0846 65.994L26.0477 63.3078L26.4354 62.9663L26.8323 62.6155L27.8385 61.6924C28.0221 61.5658 28.1661 61.3898 28.2539 61.1847ZM27.5339 61.4155L26.7123 62.1355L26.3154 62.4863L25.9277 62.8278L22.7431 65.597C22.6869 65.6432 22.6219 65.6775 22.5522 65.6981C22.4824 65.7188 22.4092 65.7252 22.337 65.717C22.263 65.7123 22.1909 65.6917 22.1256 65.6567C22.0603 65.6216 22.0033 65.573 21.9585 65.514C21.8656 65.3998 21.8194 65.2547 21.8293 65.1078C21.8475 64.9634 21.9201 64.8314 22.0323 64.7386L25.7246 61.8955L26.1216 61.5909L26.5277 61.277L27.1093 60.834C27.2269 60.7208 27.3803 60.6523 27.5431 60.6401C27.6002 60.6402 27.6556 60.6206 27.7 60.5847L30.3031 58.4432C30.3289 58.4218 30.3496 58.395 30.364 58.3647C30.3783 58.3344 30.3859 58.3013 30.3862 58.2678C30.3946 58.2439 30.3946 58.2179 30.3862 58.194C30.3946 58.1701 30.3946 58.144 30.3862 58.1201C30.1739 57.7417 30.2477 57.4924 30.7739 57.0863L30.9308 56.9663L31.1246 57.2063L31.42 57.557L31.6231 57.8155L31.9185 58.1663L32.1123 58.4063L31.9646 58.5447C31.457 58.9878 31.1985 59.0063 30.857 58.6924C30.857 58.6924 30.857 58.6924 30.8108 58.6924C30.7807 58.6832 30.7486 58.6832 30.7185 58.6924C30.6948 58.6832 30.6684 58.6832 30.6446 58.6924C30.6267 58.6861 30.6072 58.6861 30.5893 58.6924L27.9862 60.834C27.9415 60.8715 27.9119 60.924 27.9031 60.9817C27.879 61.0832 27.8336 61.1785 27.77 61.2612C27.7063 61.344 27.6259 61.4123 27.5339 61.4617V61.4155Z" fill="url(#paint16_linear)"/>
<path d="M38.2322 50.9755C39.2136 50.9821 40.1758 50.7031 41.0014 50.1724L41.2414 50.477C41.3116 50.5636 41.4002 50.6334 41.5008 50.6813C41.6014 50.7292 41.7115 50.7541 41.8229 50.754C41.9812 50.7448 42.1328 50.6868 42.2568 50.5878C42.3334 50.5257 42.3966 50.4487 42.4427 50.3614C42.4887 50.2741 42.5165 50.1784 42.5245 50.0801C42.5371 49.9813 42.5289 49.8809 42.5002 49.7855C42.4716 49.6901 42.4233 49.6018 42.3583 49.5263L42.0722 49.2032C42.1631 49.1018 42.2464 48.9938 42.3214 48.8801C42.3983 48.783 42.4692 48.6813 42.5337 48.5755C42.6627 48.3668 42.7738 48.1475 42.866 47.9201C42.9861 47.6437 43.0789 47.3562 43.1429 47.0616C43.3053 46.3426 43.3067 45.5965 43.1471 44.8768C42.9875 44.1572 42.6709 43.4816 42.2198 42.8986L42.0906 42.7232C41.8475 42.4376 41.5787 42.1749 41.2875 41.9386C40.6913 41.475 39.9985 41.1514 39.2603 40.9916C38.5221 40.8318 37.7575 40.84 37.0229 41.0155C36.7837 41.0711 36.5492 41.1452 36.3214 41.237C36.1432 41.3036 35.9703 41.3838 35.8045 41.477L35.4998 41.6524L34.7706 40.7293C34.735 40.6879 34.6864 40.6598 34.6327 40.6497C34.579 40.6396 34.5234 40.6482 34.4752 40.674C34.3351 40.7696 34.2362 40.9147 34.1983 41.0801C34.1618 41.3206 34.1732 41.5659 34.2318 41.8019C34.2905 42.0379 34.3951 42.26 34.5398 42.4555C33.86 43.1738 33.4061 44.0758 33.2344 45.0498C33.0628 46.0237 33.1809 47.0267 33.5741 47.9341C33.9674 48.8415 34.6184 49.6135 35.4465 50.1541C36.2746 50.6948 37.2432 50.9804 38.2322 50.9755ZM36.386 41.7447C36.613 41.6358 36.8514 41.5522 37.0968 41.4955C37.4654 41.3862 37.8477 41.3302 38.2322 41.3293C38.9308 41.3409 39.6193 41.4981 40.2537 41.7909C40.645 41.983 41.0058 42.2319 41.3245 42.5293C41.4942 42.6699 41.6488 42.8276 41.786 43.0001C42.0764 43.361 42.307 43.7661 42.4691 44.2001C42.6375 44.6091 42.7403 45.0421 42.7737 45.4832C42.7829 45.603 42.7829 45.7234 42.7737 45.8432C42.7758 46.2235 42.7261 46.6024 42.626 46.9693C42.5626 47.2533 42.4666 47.529 42.3398 47.7909C42.2845 47.9216 42.2197 48.0481 42.146 48.1693C42.0409 48.3516 41.9205 48.5245 41.786 48.6863C41.7729 48.7145 41.7541 48.7397 41.7306 48.7601L41.186 48.1416L40.4383 47.274C40.6043 47.0104 40.723 46.7199 40.7891 46.4155C40.8773 46.0262 40.8758 45.6219 40.7846 45.2333C40.6934 44.8447 40.515 44.4819 40.2629 44.1724C39.884 43.7119 39.3617 43.3917 38.7794 43.2629C38.1971 43.134 37.5885 43.204 37.0506 43.4617L35.8137 41.9478C35.9783 41.8665 36.1479 41.7955 36.3214 41.7355L36.386 41.7447ZM40.4752 46.1478C40.4482 46.4468 40.3568 46.7365 40.2075 46.997L39.1552 45.8524C39.0527 45.7153 38.9111 45.6123 38.7491 45.557L37.3737 43.9232C37.7255 43.7781 38.1089 43.7265 38.4865 43.7734C38.8642 43.8203 39.2233 43.964 39.5289 44.1907C39.8346 44.4174 40.0764 44.7193 40.2309 45.0671C40.3854 45.4149 40.4473 45.7967 40.4106 46.1755L40.4752 46.1478ZM35.2137 41.9201L35.3614 42.1047L35.4998 42.2709L36.7275 43.7663L36.8752 43.9417L37.0137 44.1263L38.4906 45.917C38.5247 45.9612 38.5741 45.9908 38.6291 46.0001C38.7164 46.0252 38.7917 46.0809 38.8414 46.157L39.9122 47.3847L40.0598 47.5601L40.2168 47.7263L41.4722 49.1663L41.6198 49.3416L41.7768 49.517L42.026 49.8032C42.0694 49.8654 42.092 49.9397 42.0906 50.0155C42.0868 50.0551 42.075 50.0934 42.0559 50.1283C42.0369 50.1632 42.011 50.1939 41.9798 50.2186C41.9224 50.265 41.8507 50.2904 41.7768 50.2904C41.7029 50.2904 41.6312 50.265 41.5737 50.2186L41.3521 49.9324L41.2045 49.7478L41.066 49.5632L39.8937 48.0493L39.7552 47.8647L39.5798 47.6155L38.5552 46.2955C38.4937 46.2293 38.4549 46.1452 38.4445 46.0555C38.4445 45.9984 38.425 45.943 38.3891 45.8986L37.9737 45.4001C37.8927 45.2847 37.7848 45.1908 37.6594 45.1264C37.5339 45.0621 37.3947 45.0293 37.2537 45.0309C37.1266 45.0262 37.0028 44.9901 36.8932 44.9256C36.7836 44.8612 36.6918 44.7704 36.626 44.6617L36.4968 44.4955L36.2014 44.1263C35.8045 43.607 35.4436 43.0611 35.1214 42.4924L35.0014 42.2986V42.2247C34.9732 42.1806 34.9485 42.1343 34.9275 42.0863C34.7767 41.8417 34.6939 41.5613 34.6875 41.274L35.2137 41.9201ZM39.1552 47.9016C38.7087 48.124 38.2001 48.1884 37.7122 48.0845C37.2244 47.9805 36.7862 47.7143 36.4691 47.3293C36.101 46.8756 35.9254 46.2957 35.9798 45.714C36.0037 45.4508 36.0757 45.1942 36.1922 44.957C36.2932 45.1118 36.4296 45.2402 36.5901 45.3317C36.7506 45.4232 36.9306 45.4751 37.1152 45.4832C37.1943 45.4817 37.2726 45.4994 37.3433 45.5347C37.414 45.5701 37.4751 45.6221 37.5214 45.6863L37.8906 46.1386C37.9108 46.3037 37.9817 46.4586 38.0937 46.5816L39.1552 47.9016ZM34.7429 42.8801C35.0839 43.4616 35.4632 44.0198 35.8783 44.5509C35.6347 44.9611 35.5052 45.429 35.5032 45.9061C35.5011 46.3831 35.6266 46.8521 35.8667 47.2644C36.1067 47.6767 36.4526 48.0174 36.8685 48.2511C37.2844 48.4849 37.7552 48.6032 38.2322 48.594C38.6744 48.5966 39.11 48.4854 39.4968 48.2709L40.6783 49.8032C39.7425 50.3453 38.646 50.5415 37.5803 50.3576C36.5146 50.1738 35.5472 49.6215 34.8471 48.7972C34.147 47.9729 33.7586 46.929 33.7497 45.8475C33.7408 44.7661 34.1119 43.7158 34.7983 42.8801H34.7429Z" fill="url(#paint17_linear)"/>
<path d="M63.1 70.1939V70.1386H62.5461V70.3693H63.1C63.1 70.3693 63.1461 70.3693 63.1646 70.3693C63.1672 70.351 63.1672 70.3323 63.1646 70.3139C63.1646 70.3139 63.1646 70.314 63.2107 70.2678V70.0924L63.1 70.1939Z" fill="url(#paint18_linear)"/>
<path d="M59.9521 76.3047C60.3729 76.3018 60.7799 76.1552 61.106 75.8893C61.2924 75.7395 61.4466 75.5535 61.5592 75.3425C61.6719 75.1315 61.7406 74.8999 61.7614 74.6617C61.8024 74.2906 61.73 73.9158 61.5537 73.5867C61.3774 73.2577 61.1055 72.9898 60.7738 72.8184C60.4421 72.6471 60.0663 72.5803 59.6959 72.6269C59.3255 72.6735 58.9779 72.8313 58.6991 73.0795C58.4202 73.3277 58.2231 73.6546 58.1338 74.0171C58.0446 74.3796 58.0673 74.7607 58.199 75.11C58.3307 75.4593 58.5653 75.7605 58.8717 75.9738C59.178 76.1871 59.5419 76.3025 59.9152 76.3047H59.9521ZM59.0937 73.4616C59.3362 73.2642 59.6394 73.1566 59.9521 73.157C60.2303 73.159 60.5011 73.2463 60.728 73.4073C60.9548 73.5682 61.1267 73.795 61.2204 74.0569C61.3141 74.3188 61.325 74.6032 61.2517 74.8715C61.1784 75.1398 61.0244 75.3791 60.8106 75.557C60.5305 75.7598 60.1835 75.8479 59.8406 75.8034C59.4977 75.7589 59.1847 75.5852 58.9655 75.3178C58.7464 75.0503 58.6376 74.7092 58.6614 74.3643C58.6852 74.0193 58.8398 73.6965 59.0937 73.4616Z" fill="url(#paint19_linear)"/>
<defs>
<linearGradient id="paint0_linear" x1="2.3629" y1="59.31" x2="79.1373" y2="59.2647" gradientUnits="userSpaceOnUse">
<stop stop-color="#8F6D55"/>
<stop offset="1" stop-color="#4D4444"/>
</linearGradient>
<linearGradient id="paint1_linear" x1="2.3629" y1="59.31" x2="79.1373" y2="59.2647" gradientUnits="userSpaceOnUse">
<stop stop-color="#8F6D55"/>
<stop offset="1" stop-color="#4D4444"/>
</linearGradient>
<linearGradient id="paint2_linear" x1="2.3629" y1="59.31" x2="79.1373" y2="59.2647" gradientUnits="userSpaceOnUse">
<stop stop-color="#8F6D55"/>
<stop offset="1" stop-color="#4D4444"/>
</linearGradient>
<linearGradient id="paint3_linear" x1="2.3629" y1="59.31" x2="79.1373" y2="59.2647" gradientUnits="userSpaceOnUse">
<stop stop-color="#8F6D55"/>
<stop offset="1" stop-color="#4D4444"/>
</linearGradient>
<linearGradient id="paint4_linear" x1="2.3629" y1="59.31" x2="79.1373" y2="59.2647" gradientUnits="userSpaceOnUse">
<stop stop-color="#8F6D55"/>
<stop offset="1" stop-color="#4D4444"/>
</linearGradient>
<linearGradient id="paint5_linear" x1="2.3629" y1="59.31" x2="79.1373" y2="59.2647" gradientUnits="userSpaceOnUse">
<stop stop-color="#8F6D55"/>
<stop offset="1" stop-color="#4D4444"/>
</linearGradient>
<linearGradient id="paint6_linear" x1="2.3629" y1="59.31" x2="79.1373" y2="59.2647" gradientUnits="userSpaceOnUse">
<stop stop-color="#8F6D55"/>
<stop offset="1" stop-color="#4D4444"/>
</linearGradient>
<linearGradient id="paint7_linear" x1="2.3629" y1="59.31" x2="79.1373" y2="59.2647" gradientUnits="userSpaceOnUse">
<stop stop-color="#8F6D55"/>
<stop offset="1" stop-color="#4D4444"/>
</linearGradient>
<linearGradient id="paint8_linear" x1="2.3629" y1="59.31" x2="79.1373" y2="59.2647" gradientUnits="userSpaceOnUse">
<stop stop-color="#8F6D55"/>
<stop offset="1" stop-color="#4D4444"/>
</linearGradient>
<linearGradient id="paint9_linear" x1="2.3629" y1="59.31" x2="79.1373" y2="59.2647" gradientUnits="userSpaceOnUse">
<stop stop-color="#8F6D55"/>
<stop offset="1" stop-color="#4D4444"/>
</linearGradient>
<linearGradient id="paint10_linear" x1="2.3629" y1="59.31" x2="79.1373" y2="59.2647" gradientUnits="userSpaceOnUse">
<stop stop-color="#8F6D55"/>
<stop offset="1" stop-color="#4D4444"/>
</linearGradient>
<linearGradient id="paint11_linear" x1="2.3629" y1="59.31" x2="79.1373" y2="59.2647" gradientUnits="userSpaceOnUse">
<stop stop-color="#8F6D55"/>
<stop offset="1" stop-color="#4D4444"/>
</linearGradient>
<linearGradient id="paint12_linear" x1="2.3629" y1="59.31" x2="79.1373" y2="59.2647" gradientUnits="userSpaceOnUse">
<stop stop-color="#8F6D55"/>
<stop offset="1" stop-color="#4D4444"/>
</linearGradient>
<linearGradient id="paint13_linear" x1="2.3629" y1="59.31" x2="79.1373" y2="59.2647" gradientUnits="userSpaceOnUse">
<stop stop-color="#8F6D55"/>
<stop offset="1" stop-color="#4D4444"/>
</linearGradient>
<linearGradient id="paint14_linear" x1="2.3629" y1="59.31" x2="79.1373" y2="59.2647" gradientUnits="userSpaceOnUse">
<stop stop-color="#8F6D55"/>
<stop offset="1" stop-color="#4D4444"/>
</linearGradient>
<linearGradient id="paint15_linear" x1="2.3629" y1="59.31" x2="79.1373" y2="59.2647" gradientUnits="userSpaceOnUse">
<stop stop-color="#8F6D55"/>
<stop offset="1" stop-color="#4D4444"/>
</linearGradient>
<linearGradient id="paint16_linear" x1="2.3629" y1="59.31" x2="79.1373" y2="59.2647" gradientUnits="userSpaceOnUse">
<stop stop-color="#8F6D55"/>
<stop offset="1" stop-color="#4D4444"/>
</linearGradient>
<linearGradient id="paint17_linear" x1="2.3629" y1="59.31" x2="79.1373" y2="59.2647" gradientUnits="userSpaceOnUse">
<stop stop-color="#8F6D55"/>
<stop offset="1" stop-color="#4D4444"/>
</linearGradient>
<linearGradient id="paint18_linear" x1="2.3629" y1="59.31" x2="79.1373" y2="59.2647" gradientUnits="userSpaceOnUse">
<stop stop-color="#8F6D55"/>
<stop offset="1" stop-color="#4D4444"/>
</linearGradient>
<linearGradient id="paint19_linear" x1="2.3629" y1="59.31" x2="79.1373" y2="59.2647" gradientUnits="userSpaceOnUse">
<stop stop-color="#8F6D55"/>
<stop offset="1" stop-color="#4D4444"/>
</linearGradient>
</defs>
</svg>
