<svg width="575" height="51" viewBox="0 0 575 51" fill="none" xmlns="http://www.w3.org/2000/svg">
<path d="M24.7892 47.2258C16.6063 47.2258 14.0191 45.4812 14.0191 39.8262V25.147C23.7663 25.2072 26.2934 27.6136 26.2934 32.7874H28.5798V15.0401H26.2934C26.2934 20.274 23.3451 22.5 14.0191 22.5V3.85027C14.0191 3.18851 14.3801 2.76736 15.1021 2.76736H23.3451C32.1898 2.76736 35.4991 4.51202 36.5219 11.4305H38.8083L38.2066 0H0.661847V2.46656C6.25746 2.7072 7.15998 3.85027 7.15998 9.8663V40.127C7.15998 46.2032 6.13713 47.3462 0 47.5266V49.9932H40.3125L41.2752 37.1791H38.8083C37.1838 44.9398 33.9347 47.2258 24.7892 47.2258Z" fill="url(#paint0_linear)"/>
<path d="M112.092 37.7812V12.3334C112.092 4.45239 112.934 2.70779 118.53 2.52731V0.0606739H103.969L87.062 38.443H86.8213L70.4557 0.0606739H54.9323V2.52731C60.5279 2.76795 61.4305 4.5126 61.4305 11.8522V38.2023C61.4305 46.2638 60.4076 47.3467 54.2705 47.5272V49.9937H72.381V47.5272C66.3041 47.3467 65.2812 46.2638 65.2812 37.7211V8.06202H65.5219L84.1739 50.6555H85.618L104.571 8.06202H105.233V38.2023C105.233 46.2638 104.21 47.3467 98.0727 47.5272V49.9937H119.131V47.5272C113.055 47.4068 112.092 46.324 112.092 37.7812Z" fill="url(#paint1_linear)"/>
<path d="M153.249 0.0606739H132.852V2.52731C138.447 2.76795 139.35 3.91095 139.35 9.92698V40.1876C139.35 46.2638 138.327 47.4068 132.19 47.5873V50.0539H155.114V47.5873C147.232 47.5873 146.149 46.2638 146.149 39.8868V27.3133H151.985C166.486 27.3133 171.961 21.6583 171.961 12.574C172.021 4.75321 165.102 0.0606739 153.249 0.0606739ZM150.782 24.0646H146.149V4.21175C146.149 3.54999 146.51 3.12891 147.232 3.12891H153.189C160.288 3.12891 163.537 6.13691 163.537 13.4163C163.598 20.9363 159.326 24.0646 150.782 24.0646Z" fill="url(#paint2_linear)"/>
<path d="M195.19 37.7812V12.3334C195.19 4.45239 196.032 2.70779 201.628 2.5273V0.0606739H181.893V2.5273C187.488 2.76795 188.391 4.51259 188.391 11.8522V38.2023C188.391 46.2638 187.368 47.3467 181.231 47.5272V49.9937H202.29V47.5272C196.153 47.4068 195.19 46.324 195.19 37.7812Z" fill="url(#paint3_linear)"/>
<path d="M255.35 43.0753L240.97 25.8093C250.055 24.2451 254.026 19.4323 254.026 12.574C254.026 4.69305 247.167 0.0606739 235.254 0.0606739H214.857V2.52731C220.452 2.76795 221.355 3.91095 221.355 9.92698V40.1876C221.355 46.2638 220.332 47.4068 214.195 47.5873V50.0539H237.119V47.5873C229.237 47.5873 228.154 46.2638 228.154 39.8868V26.4109C232.185 26.4109 233.449 26.7117 235.735 29.7197L251.619 50.1141H264.134V47.6475C260.464 46.9858 257.696 45.963 255.35 43.0753ZM232.847 23.1021H228.214V4.21175C228.214 3.54999 228.575 3.12891 229.297 3.12891H235.254C242.353 3.12891 245.603 6.01656 245.603 12.935C245.663 20.0941 241.391 23.1021 232.847 23.1021Z" fill="url(#paint4_linear)"/>
<path d="M297.293 47.2258C289.11 47.2258 286.523 45.4812 286.523 39.8262V25.147C296.27 25.2072 298.797 27.6136 298.797 32.7874H301.084V15.0401H298.797C298.797 20.274 295.849 22.5 286.523 22.5V3.85027C286.523 3.18851 286.884 2.76736 287.606 2.76736H295.849C304.694 2.76736 308.003 4.51202 309.026 11.4305H311.312L310.711 0H273.166V2.46656C278.762 2.7072 279.664 3.85027 279.664 9.8663V40.127C279.664 46.2032 278.641 47.3462 272.504 47.5266V49.9932H312.817L313.779 37.1791H311.312C309.688 44.9398 306.499 47.2258 297.293 47.2258Z" fill="url(#paint5_linear)"/>
<path d="M401.502 39.7058V10.3476C401.502 3.79014 402.344 2.7072 407.94 2.46656V0H388.205V2.46656C393.801 2.7072 394.703 3.85027 394.703 9.8663V22.8008H368.41V10.3476C368.41 3.79014 369.252 2.7072 374.848 2.46656V0H355.113V2.46656C360.708 2.7072 361.611 3.85027 361.611 9.8663V40.127C361.611 46.2032 360.588 47.3462 354.451 47.5266V49.9932H375.509V47.5266C369.432 47.3462 368.41 46.2633 368.41 39.6457V26.1096H394.703V40.1871C394.703 46.2633 393.68 47.4063 387.543 47.5868V50.0534H408.602V47.5868C402.465 47.4063 401.502 46.3234 401.502 39.7058Z" fill="url(#paint6_linear)"/>
<path d="M459.435 36.6376L444.694 0H441.926L425.019 42.2927C423.515 46.0227 421.89 47.1055 417.919 47.5266V49.9932H433.683V47.5266C430.133 47.5266 428.629 46.7446 428.629 44.3382C428.629 42.5935 429.652 39.044 432.66 31.885H449.989L452.636 38.9238C453.779 41.9318 454.14 43.0146 454.14 44.6991C454.14 46.6844 452.696 47.4665 448.124 47.4665V49.9932H469.303V47.4665C464.79 47.5267 463.406 46.3836 459.435 36.6376ZM433.984 28.6965L441.565 9.5655L448.785 28.6965H433.984Z" fill="url(#paint7_linear)"/>
<path d="M504.214 47.1055C495.249 47.1055 492.662 45.6016 492.662 38.3222V10.3476C492.662 3.79014 493.504 2.7072 499.1 2.46656V0H479.365V2.46656C484.961 2.7072 485.863 3.85027 485.863 9.8663V40.127C485.863 46.2032 484.84 47.3462 478.703 47.5266V49.9932H520.64L521.603 37.1791H519.136C517.271 45.3007 514.142 47.1055 504.214 47.1055Z" fill="url(#paint8_linear)"/>
<path d="M571.535 37.2392C569.67 45.3007 566.541 47.1055 556.613 47.1055C547.648 47.1055 545.061 45.6016 545.061 38.3222V10.3476C545.061 3.79014 545.903 2.7072 551.499 2.46656V0H531.764V2.46656C537.359 2.7072 538.262 3.85027 538.262 9.8663V40.127C538.262 46.2032 537.239 47.3462 531.102 47.5266V49.9932H573.039L574.002 37.1791H571.535V37.2392Z" fill="url(#paint9_linear)"/>
<defs>
<linearGradient id="paint0_linear" x1="10.8302" y1="27.3321" x2="559.533" y2="22.3654" gradientUnits="userSpaceOnUse">
<stop stop-color="white"/>
<stop offset="1" stop-color="#6A6A6A"/>
</linearGradient>
<linearGradient id="paint1_linear" x1="10.8302" y1="27.3321" x2="559.533" y2="22.3654" gradientUnits="userSpaceOnUse">
<stop stop-color="white"/>
<stop offset="1" stop-color="#6A6A6A"/>
</linearGradient>
<linearGradient id="paint2_linear" x1="10.8302" y1="27.3321" x2="559.533" y2="22.3654" gradientUnits="userSpaceOnUse">
<stop stop-color="white"/>
<stop offset="1" stop-color="#6A6A6A"/>
</linearGradient>
<linearGradient id="paint3_linear" x1="10.8302" y1="27.3321" x2="559.533" y2="22.3654" gradientUnits="userSpaceOnUse">
<stop stop-color="white"/>
<stop offset="1" stop-color="#6A6A6A"/>
</linearGradient>
<linearGradient id="paint4_linear" x1="10.8302" y1="27.3321" x2="559.533" y2="22.3654" gradientUnits="userSpaceOnUse">
<stop stop-color="white"/>
<stop offset="1" stop-color="#6A6A6A"/>
</linearGradient>
<linearGradient id="paint5_linear" x1="10.8302" y1="27.3321" x2="559.533" y2="22.3654" gradientUnits="userSpaceOnUse">
<stop stop-color="white"/>
<stop offset="1" stop-color="#6A6A6A"/>
</linearGradient>
<linearGradient id="paint6_linear" x1="10.8302" y1="27.3321" x2="559.533" y2="22.3654" gradientUnits="userSpaceOnUse">
<stop stop-color="white"/>
<stop offset="1" stop-color="#6A6A6A"/>
</linearGradient>
<linearGradient id="paint7_linear" x1="10.8302" y1="27.3321" x2="559.533" y2="22.3654" gradientUnits="userSpaceOnUse">
<stop stop-color="white"/>
<stop offset="1" stop-color="#6A6A6A"/>
</linearGradient>
<linearGradient id="paint8_linear" x1="10.8302" y1="27.3321" x2="559.533" y2="22.3654" gradientUnits="userSpaceOnUse">
<stop stop-color="white"/>
<stop offset="1" stop-color="#6A6A6A"/>
</linearGradient>
<linearGradient id="paint9_linear" x1="10.8302" y1="27.3321" x2="559.533" y2="22.3654" gradientUnits="userSpaceOnUse">
<stop stop-color="white"/>
<stop offset="1" stop-color="#6A6A6A"/>
</linearGradient>
</defs>
</svg>
